<svg xmlns="http://www.w3.org/2000/svg" xmlns:xlink="http://www.w3.org/1999/xlink" width="211.246" height="66" viewBox="0 0 211.246 66">
  <defs>
    <clipPath id="clip-path">
      <rect id="Rectangle_67" data-name="Rectangle 67" width="66" height="66" fill="#fff"/>
    </clipPath>
  </defs>
  <g id="footer-logo" transform="translate(-293 -1140)">
    <path id="Path_100" data-name="Path 100" d="M-34.268-1.245A23.087,23.087,0,0,1-44.277.61q-8.057,0-12.671-4.736t-4.614-12.622q0-8.4,5.188-13.623T-42.91-35.6A25.18,25.18,0,0,1-34.268-34.3v7.593a15.314,15.314,0,0,0-8.008-2.1,10.623,10.623,0,0,0-7.959,3.1,11.5,11.5,0,0,0-3.027,8.4,11.284,11.284,0,0,0,2.856,8.093A10.091,10.091,0,0,0-42.715-6.2a16.4,16.4,0,0,0,8.447-2.246ZM-1.079-28.589h-9.985V0h-7.91V-28.589h-9.937V-35.01H-1.079Zm5.6,27.246V-9.155A15.012,15.012,0,0,0,9.136-6.482a14.832,14.832,0,0,0,5.029.891,11.153,11.153,0,0,0,2.6-.269A6.09,6.09,0,0,0,18.621-6.6a3.248,3.248,0,0,0,1.111-1.123,2.8,2.8,0,0,0,.366-1.4,3.035,3.035,0,0,0-.586-1.831,6.305,6.305,0,0,0-1.6-1.489,16.709,16.709,0,0,0-2.4-1.318q-1.392-.635-3-1.294a15.326,15.326,0,0,1-6.116-4.175A9.114,9.114,0,0,1,4.375-25.2a9.488,9.488,0,0,1,1.1-4.7A9.331,9.331,0,0,1,8.464-33.13,13.41,13.41,0,0,1,12.847-35a22.518,22.518,0,0,1,5.273-.6,31.718,31.718,0,0,1,4.846.33,19.059,19.059,0,0,1,3.894,1.013v7.3a11.775,11.775,0,0,0-1.917-1.074,15.184,15.184,0,0,0-2.136-.769,16.3,16.3,0,0,0-2.185-.452,15.465,15.465,0,0,0-2.063-.146,10.759,10.759,0,0,0-2.441.256,6.262,6.262,0,0,0-1.855.72,3.583,3.583,0,0,0-1.172,1.111,2.633,2.633,0,0,0-.415,1.453,2.774,2.774,0,0,0,.464,1.575,5.321,5.321,0,0,0,1.318,1.318,13.99,13.99,0,0,0,2.075,1.221q1.221.6,2.759,1.233a30.742,30.742,0,0,1,3.772,1.868,13.409,13.409,0,0,1,2.869,2.234,8.7,8.7,0,0,1,1.831,2.844A10.05,10.05,0,0,1,28.4-9.839a9.973,9.973,0,0,1-1.111,4.919A9.018,9.018,0,0,1,24.272-1.7,13.075,13.075,0,0,1,19.841.073,25.609,25.609,0,0,1,14.507.61,29.662,29.662,0,0,1,9.026.122,16.545,16.545,0,0,1,4.521-1.343ZM44.546-12.061V0H36.66V-35.01H49.014q13.232,0,13.232,11.157a10.705,10.705,0,0,1-3.8,8.533q-3.8,3.259-10.144,3.259Zm0-16.895v10.913h3.1q6.3,0,6.3-5.518,0-5.4-6.3-5.4Z" transform="translate(442 1191)" fill="#fff"/>
    <g id="Group_87" data-name="Group 87" transform="translate(293 1139.902)">
      <g id="Group_85" data-name="Group 85" transform="translate(0 0.098)" clip-path="url(#clip-path)">
        <path id="Path_97" data-name="Path 97" d="M272.242,313.331c-.413-.634-.8-1.224-1.182-1.816q-3.284-5.071-6.571-10.139c-.138-.212-.139-.317.076-.48q5.406-4.077,10.8-8.17c.079-.06.162-.116.268-.191l7.922,12.234-11.313,8.562" transform="translate(-236.312 -261.505)" fill="#fff"/>
        <path id="Path_98" data-name="Path 98" d="M66.169,33.925a3.184,3.184,0,0,0-.061.4,33.254,33.254,0,0,1-6.931,19.6,31.446,31.446,0,0,1-8.31,7.7c-.068.043-.14.081-.235.136l-9.1-13.987c.34-.262.67-.52,1-.773,1.523-1.154,3.053-2.3,4.565-3.467a3.931,3.931,0,0,0,.675-.756,15.739,15.739,0,0,0,3.186-7.55,16.723,16.723,0,0,0-4.909-14.447,18.613,18.613,0,0,0-9.668-5.226A18.086,18.086,0,0,0,31.1,15.17a19.251,19.251,0,0,0-15.464,9.238,17.87,17.87,0,0,0-2.5,6.886,16.807,16.807,0,0,0-.153,4.228,19.345,19.345,0,0,0,4.366,10.807,21.169,21.169,0,0,0,12.516,7.419c.726.146,1.466.224,2.2.335a.427.427,0,0,1,.184.07,13.42,13.42,0,0,1-3.715.017c-1.223-.159-2.434-.411-3.65-.623l-.041.109a4.463,4.463,0,0,0,.394.256,16.9,16.9,0,0,0,4.12,1.432,34.2,34.2,0,0,0,5.428.668.838.838,0,0,1,.368.109,1.569,1.569,0,0,1-.332.121,13.2,13.2,0,0,1-1.5.159c-1.7.019-3.4.008-5.1,0-.206,0-.412-.022-.618-.034l-.033.089a1.759,1.759,0,0,0,.36.185c.932.235,1.857.509,2.8.675a29.8,29.8,0,0,0,5.824.274c.145,0,.29,0,.434,0l.013.073c-.412.095-.821.205-1.237.281a23.911,23.911,0,0,1-5.29.385,28.379,28.379,0,0,1-6.686-1.112c-.59-.17-1.182-.333-1.775-.494a2.046,2.046,0,0,0-.285-.037l-.042.076a2.108,2.108,0,0,0,.362.292c.9.448,1.8.926,2.725,1.313a24.282,24.282,0,0,0,6.017,1.6,27.728,27.728,0,0,0,5.525.187c.85-.052,1.7-.088,2.567-.066-.245.08-.488.169-.737.237a18.587,18.587,0,0,1-3.924.664c-1.3.068-2.609.143-3.909.092a24.6,24.6,0,0,1-6.635-1.217,27.642,27.642,0,0,1-17-14.83A27.747,27.747,0,0,1,4.264,37.6a26.067,26.067,0,0,1-.3-2.7c-.07-1.081-.113-2.165-.108-3.248a28.526,28.526,0,0,1,.79-6.293c.055-.241.1-.485.14-.728.005-.03-.015-.064-.04-.166-.072.151-.122.242-.16.338a22.991,22.991,0,0,0-1.332,5.18,32.537,32.537,0,0,0-.319,4.831,28.948,28.948,0,0,0,2.31,11.107,30.552,30.552,0,0,0,6.716,10.13A31.452,31.452,0,0,0,27,64.372a30.245,30.245,0,0,0,10.166.69c1.02-.107,2.041-.232,3.052-.4s2.006-.415,3.027-.58c-.64.235-1.272.495-1.921.7a30.58,30.58,0,0,1-5.614,1.187,28.087,28.087,0,0,1-5.115.148A31.876,31.876,0,0,1,8.742,55.844a32.623,32.623,0,0,1-5.867-8.79A31.037,31.037,0,0,1,.423,38.8,33.747,33.747,0,0,1,6.834,13.127,32.886,32.886,0,0,1,19.745,2.849,31.213,31.213,0,0,1,27.739.482c1.4-.221,2.826-.283,4.24-.42.144-.014.286-.041.43-.062h1.214c.108.017.215.044.324.05.714.045,1.435.042,2.142.138,1.452.2,2.914.367,4.34.687a32.627,32.627,0,0,1,13.3,6.479A32.112,32.112,0,0,1,61.985,17.3a33.272,33.272,0,0,1,4.124,14.9,3.5,3.5,0,0,0,.06.4Z" transform="translate(0 -0.04)" fill="#fff"/>
      </g>
    </g>
  </g>
</svg>
