<svg xmlns="http://www.w3.org/2000/svg" width="26" height="26" viewBox="0 0 26 26">
  <g id="ic-3d" transform="translate(-79.485 -236.661)">
    <circle id="Ellipse_27" data-name="Ellipse 27" cx="13" cy="13" r="13" transform="translate(79.485 236.661)" fill="#f5a6dd"/>
    <path id="Path_452" data-name="Path 452" d="M-2.123-2.8A2.6,2.6,0,0,1-3.148-.608,4.77,4.77,0,0,1-6.081.171,8.313,8.313,0,0,1-7.489.051a6.025,6.025,0,0,1-1.2-.318V-2.55a4.092,4.092,0,0,0,1.046.431,4.585,4.585,0,0,0,1.189.157,1.919,1.919,0,0,0,1.07-.25.809.809,0,0,0,.373-.714.82.82,0,0,0-.458-.738,2.555,2.555,0,0,0-1.278-.267h-.943V-6.077h.834a2.279,2.279,0,0,0,1.22-.256A.769.769,0,0,0-5.24-7a.731.731,0,0,0-.3-.615,1.507,1.507,0,0,0-.913-.226,3.781,3.781,0,0,0-1.9.547V-9.475a6.479,6.479,0,0,1,2.5-.492A4.3,4.3,0,0,1-3.3-9.3a2.138,2.138,0,0,1,.923,1.839,2.391,2.391,0,0,1-.5,1.538,2.332,2.332,0,0,1-1.391.813v.034A2.527,2.527,0,0,1-2.7-4.324,2.152,2.152,0,0,1-2.123-2.8ZM9.088-5.024a5.408,5.408,0,0,1-.625,2.635A4.31,4.31,0,0,1,6.675-.622,5.591,5.591,0,0,1,4,0H-.154V-9.8H3.907Q9.088-9.8,9.088-5.024ZM5.951-5A2.821,2.821,0,0,0,5.66-6.289a2.1,2.1,0,0,0-.831-.889,2.482,2.482,0,0,0-1.271-.314H2.8v5.182h.827a2.128,2.128,0,0,0,1.692-.728A2.883,2.883,0,0,0,5.951-5Z" transform="translate(93 255)" fill="#fff"/>
  </g>
</svg>
