<svg xmlns="http://www.w3.org/2000/svg" xmlns:xlink="http://www.w3.org/1999/xlink" width="26" height="26" viewBox="0 0 26 26">
  <defs>
    <clipPath id="clip-path">
      <rect id="Rectangle_144" data-name="Rectangle 144" width="18.934" height="14.727" fill="none"/>
    </clipPath>
  </defs>
  <g id="ic-360" transform="translate(-66 -326.5)">
    <circle id="Ellipse_14" data-name="Ellipse 14" cx="13" cy="13" r="13" transform="translate(66 326.5)" fill="#c59b6c"/>
    <g id="Group_177" data-name="Group 177" transform="translate(69.648 332.136)">
      <g id="Group_176" data-name="Group 176" transform="translate(0 0)" clip-path="url(#clip-path)">
        <path id="Path_221" data-name="Path 221" d="M22.939,8.131a5.355,5.355,0,0,0-2.675-3.085,17.183,17.183,0,0,1,1.389,1.576,2.9,2.9,0,0,1-.089,3.469,5.233,5.233,0,0,1-2.258,1.815c-1.195.488-2.421.854-3.678,1.288v1.265a11.136,11.136,0,0,0,4.982-1.732,8.619,8.619,0,0,0,1.766-1.663,3.156,3.156,0,0,0,.564-2.933" transform="translate(-4.146 -1.339)" fill="#fff"/>
        <path id="Path_222" data-name="Path 222" d="M6.8,12.961c-.026-.005-.054-.007-.079-.012a9.113,9.113,0,0,1-4.591-2.1A3.247,3.247,0,0,1,.893,8.22,3.506,3.506,0,0,1,2.211,5.7c.093-.089.193-.164.289-.246l.28-.243A5.169,5.169,0,0,0,.757,6.858a3.547,3.547,0,0,0,0,4.377,7.569,7.569,0,0,0,3.921,2.613c.7.228,1.4.393,2.12.563v1.7l4.056-2.342L6.8,11.425Z" transform="translate(0 -1.382)" fill="#fff"/>
        <path id="Path_223" data-name="Path 223" d="M16.259,5.164c0,.76,0,1.519,0,2.278a.821.821,0,0,1-.489.8q-1.985.99-3.968,1.984a.848.848,0,0,1-.811,0q-1.983-1-3.968-1.985a.814.814,0,0,1-.484-.791q0-2.285,0-4.569a.823.823,0,0,1,.494-.8Q9.013,1.1,10.99.1a.859.859,0,0,1,.823,0q1.971.991,3.946,1.973a.835.835,0,0,1,.5.819c-.005.755,0,1.511,0,2.266M10.991,9.321c0-.037.005-.059.005-.079q0-2.07,0-4.139c0-.084-.038-.115-.1-.148Q9.18,4.1,7.468,3.242c-.036-.018-.073-.033-.117-.054,0,.038-.005.059-.005.08q0,2.069,0,4.139c0,.085.039.115.1.148q1.715.854,3.426,1.712c.034.017.068.032.117.054m3.9-6.764c-.049-.028-.084-.05-.12-.068Q13.143,1.673,11.51.855a.219.219,0,0,0-.221,0q-1.631.82-3.265,1.634c-.036.018-.071.04-.12.068.049.028.083.05.119.068q1.633.817,3.266,1.635a.217.217,0,0,0,.221,0q1.631-.821,3.265-1.635c.036-.018.071-.04.12-.068" transform="translate(-1.735 0)" fill="#fff"/>
      </g>
    </g>
  </g>
</svg>
