<svg xmlns="http://www.w3.org/2000/svg" xmlns:xlink="http://www.w3.org/1999/xlink" width="30" height="30" viewBox="0 0 30 30">
  <defs>
    <clipPath id="clip-path">
      <rect id="Rectangle_229" data-name="Rectangle 229" width="28" height="15.54" fill="#ed831b"/>
    </clipPath>
  </defs>
  <g id="ic-3d-img" transform="translate(-350 -30)">
    <g id="Group_312" data-name="Group 312" transform="translate(351 37)">
      <g id="Group_311" data-name="Group 311" transform="translate(0 0)" clip-path="url(#clip-path)">
        <path id="Path_400" data-name="Path 400" d="M19.348,7.8c0,2.137.019,4.275-.008,6.411-.014,1.113-.412,1.413-1.515,1.313-1.726-.157-3.453-.313-5.182-.439a1.3,1.3,0,0,1-1.134-.641c-.706-1.1-1.466-2.172-2.219-3.244-.524-.748-.865-.761-1.4-.044Q6.818,12.574,5.8,14.03a.821.821,0,0,1-.838.412C3.575,14.3,2.184,14.187.8,14.051a.8.8,0,0,1-.756-.863C.013,12.575,0,11.961,0,11.347q.022-4.38.062-8.761c.008-.81.22-1.066,1.025-1.146q3.249-.325,6.5-.593C11.006.561,14.422.3,17.836.015c1.114-.093,1.531.233,1.543,1.37.023,2.137.006,4.275.006,6.412h-.038M16.6,7.622a3.332,3.332,0,0,0-1.113-2.78,1.8,1.8,0,0,0-2.613.008,3.988,3.988,0,0,0,.061,5.615,1.8,1.8,0,0,0,2.521-.018A3.418,3.418,0,0,0,16.6,7.622M5.67,7.489a3.315,3.315,0,0,0-.778-2.2,1.452,1.452,0,0,0-2.348.053A3.955,3.955,0,0,0,2.487,9.85a1.481,1.481,0,0,0,2.476.034,3.515,3.515,0,0,0,.707-2.4" transform="translate(0 0)" fill="#ed831b"/>
        <path id="Path_401" data-name="Path 401" d="M38.006,9.572a21.713,21.713,0,0,1-.019,2.448,1.937,1.937,0,0,1-1.515,1.744c-1.888.536-3.761,1.122-5.641,1.685a2.91,2.91,0,0,1-.338.069c.06-.691.166-1.366.168-2.043q.024-5.97,0-11.94a10.325,10.325,0,0,0-.186-1.36C32.651.8,34.9,1.426,37.14,2.087a1.166,1.166,0,0,1,.9,1.168c.006.715,0,1.429,0,2.2-.739-.125-1.419-.259-2.1-.353s-.927.048-.954.744c-.046,1.14-.035,2.284.013,3.424.026.612.3.765.943.659.686-.115,1.371-.239,2.064-.361" transform="translate(-10.674 -0.061)" fill="#ed831b"/>
        <path id="Path_402" data-name="Path 402" d="M38.141,10.466c0-.422.01-.844,0-1.266-.015-.5.212-.7.7-.619.6.107,1.2.235,1.8.326a.728.728,0,0,1,.7.805c.011,2.5.27,2.049-1.979,2.526a3.734,3.734,0,0,1-.621.108c-.367.014-.607-.139-.6-.552,0-.442,0-.886,0-1.329" transform="translate(-13.358 -2.999)" fill="#ed831b"/>
      </g>
    </g>
    <rect id="Rectangle_263" data-name="Rectangle 263" width="30" height="30" transform="translate(350 30)" fill="none"/>
  </g>
</svg>
