<svg id="ic-announce" xmlns="http://www.w3.org/2000/svg" width="46" height="46" viewBox="0 0 46 46">
  <path id="Path_189" data-name="Path 189" d="M0,0H46V46H0Z" fill="none"/>
  <path id="Path_190" data-name="Path 190" d="M35.786,9.458H28.278V5.729A3.729,3.729,0,0,0,24.524,2H17.016a3.729,3.729,0,0,0-3.754,3.729V9.458H5.754a3.713,3.713,0,0,0-3.735,3.729L2,33.7a3.729,3.729,0,0,0,3.754,3.729H35.786A3.729,3.729,0,0,0,39.54,33.7V13.187A3.729,3.729,0,0,0,35.786,9.458Zm-11.262,0H17.016V5.729h7.508Z" transform="translate(2.23 2.23)" fill="#ed831b"/>
</svg>
