<svg xmlns="http://www.w3.org/2000/svg" width="45" height="45" viewBox="0 0 45 45">
  <g id="ic-absorb" transform="translate(-943.229 -383)">
    <circle id="Ellipse_30" data-name="Ellipse 30" cx="22.5" cy="22.5" r="22.5" transform="translate(943.229 383)" fill="#ed831b" opacity="0.7"/>
    <g id="Group_233" data-name="Group 233" transform="translate(996.578 429.108)">
      <g id="Group_232" data-name="Group 232" transform="translate(-43.422 -36.003)">
        <path id="Path_97" data-name="Path 97" d="M-32.65-34.825h0Z" transform="translate(50.141 38.498)" fill="#fff"/>
        <path id="Path_98" data-name="Path 98" d="M-19.669-17.017c-.55.073-1.1.146-1.646.211l0,.01c-.06.011-.122.024-.187.034-1.091.19-2.874.3-3,.3h0q-2.569.078-5.131.328l-.006,0,0,0a83.449,83.449,0,0,0-9.476,1.513c-.045-.731-.045-1.492-.138-2.345a22.512,22.512,0,0,1-.133-2.431c0-.162,0-.325.006-.489v0c.015-.679.062-1.393.063-2.134a9.008,9.008,0,0,0-.278-2.4c-.294-1.073-.649-2.1-.956-3.109-.388-1.281-.734-2.544-1-3.808a.935.935,0,0,1-.083-.13,6.066,6.066,0,0,1-.258-2.416c-.175.032-.354.047-.528.081l-.106.021-.416.2-.4.2-.084.765-.01.1.041.283v0A36.255,36.255,0,0,0-42.1-27.054v0c.32,1.054.671,2.064.945,3.067a7.466,7.466,0,0,1,.219,1.971c0,.667-.047,1.37-.063,2.1h0c0,.175-.006.349-.006.524a24.125,24.125,0,0,0,.143,2.608c.1.867.06,1.768.162,2.781l.01.1.143.391.065.18.141.133a1.109,1.109,0,0,0,.774.294,1.762,1.762,0,0,0,.39-.047h0l0,0a81.8,81.8,0,0,1,9.7-1.562h0q2.506-.246,5.024-.321h0c.182-.006,1.211-.067,2.257-.188a13.6,13.6,0,0,0,1.461-.234,3.106,3.106,0,0,0,.606-.2l.336-.222a.932.932,0,0,0,.3-.674l-.047-.286C-19.578-16.763-19.624-16.89-19.669-17.017Z" transform="translate(43.422 39.089)" fill="#fff"/>
        <g id="Group_231" data-name="Group 231" transform="translate(2.757)">
          <path id="Path_99" data-name="Path 99" d="M-27.014-25.5h0Z" transform="translate(50.898 44.314)" fill="#fff"/>
          <path id="Path_100" data-name="Path 100" d="M-17.84-18.272a22.741,22.741,0,0,0-1.338-3.376c-.195-.37-.38-.687-.5-.977h0a34.376,34.376,0,0,1-1.411-5.35c-.284-1.184-.357-2.509-.653-3.884a31.358,31.358,0,0,0-1.231-4.23l-.019-.055-.177-.326-.057-.1-.081-.083a1.478,1.478,0,0,0-.926-.395h0a5.707,5.707,0,0,0-.659-.037,25.984,25.984,0,0,0-3.821.636h0c-.192.028-.386.034-.578.057.169.534.38,1.054.6,1.572.07-.01.138-.011.208-.021h0a27.615,27.615,0,0,1,3.592-.62,4.117,4.117,0,0,1,.424.024,29.685,29.685,0,0,1,1.138,3.923c.265,1.206.336,2.541.659,3.916h0A35.251,35.251,0,0,0-21.176-22h0c.18.427.393.783.56,1.1a17.843,17.843,0,0,1,1,2.465c-.062.013-.122.024-.188.036-1.091.19-2.872.3-3,.3h0q-2.572.078-5.131.328l0,0h0a83.028,83.028,0,0,0-9.476,1.512c-.045-.731-.045-1.492-.138-2.345h0a21.9,21.9,0,0,1-.133-2.419c0-.166,0-.331,0-.5h0c.015-.679.063-1.395.063-2.135a9,9,0,0,0-.276-2.4h0c-.3-1.073-.651-2.095-.956-3.109l0,0a36.178,36.178,0,0,1-1.2-4.73c1.182-.224,2.369-.416,3.564-.549h0c.132-.015.258-.018.385-.026a5.915,5.915,0,0,1,.706-1.674c-.414.018-.831.039-1.27.086h0q-2.039.227-4.054.624l-.106.021-.417.208-.4.2-.081.763-.01.1.039.284,0,0v0A36.063,36.063,0,0,0-40.4-28.686v0c.318,1.057.669,2.067.945,3.07h0a7.435,7.435,0,0,1,.218,1.968c0,.669-.045,1.372-.062,2.1v0c0,.179-.007.357-.007.536a23.521,23.521,0,0,0,.143,2.6h0c.1.865.06,1.767.162,2.781l.01.1.141.391.065.183.143.133a1.122,1.122,0,0,0,.774.294,1.805,1.805,0,0,0,.393-.049,81.061,81.061,0,0,1,9.7-1.562q2.506-.246,5.022-.321h0c.182-.006,1.211-.068,2.257-.188a13.613,13.613,0,0,0,1.463-.235,3.106,3.106,0,0,0,.606-.2l.334-.221a.933.933,0,0,0,.3-.675Z" transform="translate(41.724 37.087)" fill="#fff"/>
        </g>
      </g>
      <path id="Path_101" data-name="Path 101" d="M-34.984-38.749c-.416,3.34-2.533,4.028-2.533,6.349a2.629,2.629,0,0,0,2.627,2.6,2.63,2.63,0,0,0,2.629-2.6c0-2.32-2.119-3.009-2.533-6.349A.1.1,0,0,0-34.984-38.749Z" transform="translate(3.683)" fill="#fff"/>
      <path id="Path_102" data-name="Path 102" d="M-31.735-34.382c-.414,3.342-2.533,4.028-2.533,6.35a2.629,2.629,0,0,0,2.627,2.6,2.63,2.63,0,0,0,2.629-2.6c0-2.322-2.119-3.009-2.533-6.35A.1.1,0,0,0-31.735-34.382Z" transform="translate(5.709 2.724)" fill="#fff"/>
    </g>
  </g>
</svg>
