<svg xmlns="http://www.w3.org/2000/svg" width="26" height="26" viewBox="0 0 26 26">
  <g id="ic-base" transform="translate(-66 -152)">
    <circle id="Ellipse_10" data-name="Ellipse 10" cx="13" cy="13" r="13" transform="translate(66 152)" fill="#ed831b"/>
    <g id="Group_155" data-name="Group 155" transform="translate(56.301 142.436)">
      <path id="Path_194" data-name="Path 194" d="M16.021,15.695V15.7l.008-.008Z" transform="translate(0)" fill="#fff"/>
      <path id="Path_195" data-name="Path 195" d="M17.058,15.695l-1.037,1.148v1.139l2.065-2.287Z" transform="translate(0)" fill="#fff"/>
      <path id="Path_196" data-name="Path 196" d="M19.114,15.695,16.02,19.12v1.139l4.122-4.565Z" fill="#fff"/>
      <path id="Path_197" data-name="Path 197" d="M21.171,15.695l-5.15,5.7v1.139L22.2,15.695Z" transform="translate(0)" fill="#fff"/>
      <path id="Path_198" data-name="Path 198" d="M23.227,15.695l-7.206,7.982v1.138l8.234-9.12Z" transform="translate(0)" fill="#fff"/>
      <path id="Path_199" data-name="Path 199" d="M25.283,15.695l-9.262,10.26v1.139l10.291-11.4Z" transform="translate(0)" fill="#fff"/>
      <path id="Path_200" data-name="Path 200" d="M27.34,15.695,16.021,28.232v1.139L28.368,15.695Z" transform="translate(0)" fill="#fff"/>
      <path id="Path_201" data-name="Path 201" d="M17.4,29.443h1.028l11.357-12.58V15.725Z" transform="translate(-0.411 -0.009)" fill="#fff"/>
      <path id="Path_202" data-name="Path 202" d="M20.33,30.405h1.028l9.3-10.3V18.966Z" transform="translate(-1.28 -0.972)" fill="#fff"/>
      <path id="Path_203" data-name="Path 203" d="M23.254,31.367h1.028l7.244-8.023V22.205Z" transform="translate(-2.148 -1.934)" fill="#fff"/>
      <path id="Path_204" data-name="Path 204" d="M26.18,32.33h1.028l5.187-5.746V25.445Z" transform="translate(-3.017 -2.896)" fill="#fff"/>
      <path id="Path_205" data-name="Path 205" d="M29.106,33.293h1.028l3.13-3.467V28.687Z" transform="translate(-3.886 -3.859)" fill="#fff"/>
      <path id="Path_206" data-name="Path 206" d="M32.03,34.254h1.028l1.074-1.19V31.925Z" transform="translate(-4.755 -4.82)" fill="#fff"/>
      <path id="Path_207" data-name="Path 207" d="M34.957,35.217H35v-.05Z" transform="translate(-5.624 -5.783)" fill="#fff"/>
    </g>
  </g>
</svg>
