<svg xmlns="http://www.w3.org/2000/svg" width="20" height="20" viewBox="0 0 20 20">
  <g id="ic-building-setting" transform="translate(-7723 -2865)">
    <g id="building-gear" transform="translate(7724 2866)">
      <path id="Path_318" data-name="Path 318" d="M2,1.067A1.052,1.052,0,0,1,3.036,0H13.4a1.052,1.052,0,0,1,1.036,1.067V8A.518.518,0,1,1,13.4,8V1.067H3.036V16H6.145V13.336a.526.526,0,0,1,.518-.533H8.218V17.07H3.036A1.052,1.052,0,0,1,2,16Z" fill="#333"/>
      <path id="Path_319" data-name="Path 319" d="M4.518,2A.519.519,0,0,0,4,2.52V3.561a.519.519,0,0,0,.518.52H5.554a.519.519,0,0,0,.518-.52V2.52A.519.519,0,0,0,5.554,2ZM7.627,2a.519.519,0,0,0-.518.52V3.561a.519.519,0,0,0,.518.52H8.663a.519.519,0,0,0,.518-.52V2.52A.519.519,0,0,0,8.663,2Zm3.109,0a.519.519,0,0,0-.518.52V3.561a.519.519,0,0,0,.518.52h1.036a.519.519,0,0,0,.518-.52V2.52A.519.519,0,0,0,11.772,2ZM4.518,5.122A.519.519,0,0,0,4,5.642V6.683a.519.519,0,0,0,.518.52H5.554a.519.519,0,0,0,.518-.52V5.642a.519.519,0,0,0-.518-.52Zm3.109,0a.519.519,0,0,0-.518.52V6.683a.519.519,0,0,0,.518.52H8.663a.519.519,0,0,0,.518-.52V5.642a.519.519,0,0,0-.518-.52Zm3.109,0a.519.519,0,0,0-.518.52V6.683a.519.519,0,0,0,.518.52h1.036a.519.519,0,0,0,.518-.52V5.642a.519.519,0,0,0-.518-.52ZM4.518,8.244A.519.519,0,0,0,4,8.764V9.805a.519.519,0,0,0,.518.52H5.554a.519.519,0,0,0,.518-.52V8.764a.519.519,0,0,0-.518-.52Zm3.109,0a.519.519,0,0,0-.518.52V9.805a.519.519,0,0,0,.518.52H8.663a.519.519,0,0,0,.518-.52V8.764a.519.519,0,0,0-.518-.52Zm4.545,1.519a.663.663,0,0,1,1.274,0l.045.154a.662.662,0,0,0,.954.4l.141-.077a.666.666,0,0,1,.9.9l-.078.142a.667.667,0,0,0,.4.957l.154.047a.668.668,0,0,1,0,1.279l-.155.045a.667.667,0,0,0-.394.958l.077.142a.666.666,0,0,1-.9.905l-.141-.078a.662.662,0,0,0-.953.4l-.047.155a.663.663,0,0,1-1.274,0l-.045-.156a.662.662,0,0,0-.954-.4l-.141.077a.666.666,0,0,1-.9-.905l.078-.142a.667.667,0,0,0-.4-.957l-.153-.047a.667.667,0,0,1,0-1.279l.153-.045a.667.667,0,0,0,.4-.958l-.077-.142a.666.666,0,0,1,.9-.905l.141.078a.662.662,0,0,0,.953-.4l.047-.154Zm2.191,3.164a1.554,1.554,0,1,0-1.554,1.561,1.558,1.558,0,0,0,1.554-1.561Z" transform="translate(0.5 0.5)" fill="#333"/>
    </g>
    <rect id="Rectangle_290" data-name="Rectangle 290" width="20" height="20" transform="translate(7723 2865)" fill="none"/>
  </g>
</svg>
