<svg xmlns="http://www.w3.org/2000/svg" width="20" height="20" viewBox="0 0 20 20">
  <g id="ic-building-md" transform="translate(0.418 0.418)">
    <g id="Group_190" data-name="Group 190">
      <rect id="Rectangle_151" data-name="Rectangle 151" width="20" height="20" transform="translate(-0.418 -0.418)" fill="none"/>
    </g>
    <g id="Group_192" data-name="Group 192" transform="translate(0.798 2.395)">
      <g id="Group_191" data-name="Group 191">
        <path id="Path_234" data-name="Path 234" d="M1,9.992v7.985H5.791V13.985h1.6v3.992h4.791V9.992L6.589,6Zm9.582,6.388h-1.6V12.388H4.194V16.38H2.6V10.815L6.589,7.964l3.992,2.851Z" transform="translate(-1 -3.605)" fill="#333"/>
        <rect id="Rectangle_152" data-name="Rectangle 152" width="2" height="2" transform="translate(12.783 3.186)" fill="#333"/>
        <rect id="Rectangle_153" data-name="Rectangle 153" width="2" height="2" transform="translate(12.783 6.186)" fill="#333"/>
        <rect id="Rectangle_154" data-name="Rectangle 154" width="2" height="2" transform="translate(12.783 9.186)" fill="#333"/>
        <path id="Path_235" data-name="Path 235" d="M10,3V4.573l1.6,1.142V4.6h7.186V15.775H15.589v1.6H20.38V3Z" transform="translate(-2.814 -3)" fill="#333"/>
      </g>
    </g>
  </g>
</svg>
