<svg xmlns="http://www.w3.org/2000/svg" width="45" height="45" viewBox="0 0 45 45">
  <g id="ic-b-class" transform="translate(-1016.229 -280)">
    <circle id="Ellipse_30" data-name="Ellipse 30" cx="22.5" cy="22.5" r="22.5" transform="translate(1016.229 280)" fill="#ed831b" opacity="0.7"/>
    <g id="Group_323" data-name="Group 323" transform="translate(-240 -199)">
      <g id="Group_239" data-name="Group 239" transform="translate(660.541 190.195)">
        <path id="Path_112" data-name="Path 112" d="M619.86,359.493a1.722,1.722,0,0,1-1.421-1.207,1.434,1.434,0,0,1,.143-1.128,3.137,3.137,0,0,0,.405-1.986.571.571,0,0,0-.166-.341,2.479,2.479,0,0,1-.908-2.027c.067-1.556.147-3.112.22-4.669,0-.095,0-.19,0-.289-.161,0-.305.01-.449,0a1.517,1.517,0,0,1-1.47-1.475,3.348,3.348,0,0,1,.031-.346,1.917,1.917,0,0,0-.17-1.076,5.959,5.959,0,0,1-.373-1.632,12.385,12.385,0,0,1,.7-5.46,2.239,2.239,0,0,1,1.165-1.287,5.811,5.811,0,0,0,4.816,3.665v.333q0,3.556,0,7.112a1.078,1.078,0,0,0,2.145.158c.008-.106.006-.213.006-.319q0-3.454,0-6.909v-.371a5.619,5.619,0,0,0,4.763-3.658,2,2,0,0,1,1.15,1.16c.289,1.067.558,2.141.761,3.223a9.2,9.2,0,0,1-.1,3.063,2.761,2.761,0,0,1-.477,1.3c-.088.118-.03.333-.028.5a4.717,4.717,0,0,1,.016.809,1.542,1.542,0,0,1-1.669,1.206c-.051,0-.1,0-.183,0,.009.155.018.3.024.44q.107,2.262.213,4.524a2.458,2.458,0,0,1-.821,1.941.654.654,0,0,0-.182.4,2.981,2.981,0,0,0,.323,1.826,1.612,1.612,0,0,1-1.152,2.522h-.568a2.185,2.185,0,0,1-1.464-1.28,4.969,4.969,0,0,1-.647-2.906.593.593,0,0,0,0-.2.363.363,0,0,0-.1-.2,2.393,2.393,0,0,1-.922-1.581c-.046.144-.071.2-.085.266a2,2,0,0,1-.662,1.128.562.562,0,0,0-.228.532,4.981,4.981,0,0,1-.623,2.912,2.312,2.312,0,0,1-1.451,1.333Z" transform="translate(0 -34.087)" fill="#fff"/>
        <path id="Path_113" data-name="Path 113" d="M640.72,304.208a3.881,3.881,0,0,1-2.884-1.061,4.125,4.125,0,0,1-1.069-1.988.428.428,0,0,1-.006-.206c.316-1.163.629-2.327.956-3.487a3.031,3.031,0,0,1,3.413-2.032,2.853,2.853,0,0,1,2.625,2.217c.284,1.089.574,2.177.832,3.272a1.275,1.275,0,0,1-.09.636A3.6,3.6,0,0,1,640.72,304.208Zm.082-7.018c-.147,0-.229,0-.311,0a1.649,1.649,0,1,0,.018,3.3c.144,0,.288,0,.431,0a1.648,1.648,0,0,0,1.49-2.5A1.582,1.582,0,0,0,640.8,297.19Z" transform="translate(-17.253)" fill="#fff"/>
      </g>
      <text id="B" transform="translate(1276 513)" fill="#fff" font-size="19" font-family="SegoeUI-Bold, Segoe UI" font-weight="700"><tspan x="-12.181" y="0">B</tspan></text>
    </g>
  </g>
</svg>
