<svg xmlns="http://www.w3.org/2000/svg" xmlns:xlink="http://www.w3.org/1999/xlink" width="45" height="45" viewBox="0 0 45 45">
  <defs>
    <clipPath id="clip-path">
      <rect id="Rectangle_239" data-name="Rectangle 239" width="18.217" height="30.805" fill="#fff"/>
    </clipPath>
  </defs>
  <g id="ic-bottle" transform="translate(-1089.229 -383)">
    <circle id="Ellipse_30" data-name="Ellipse 30" cx="22.5" cy="22.5" r="22.5" transform="translate(1089.229 383)" fill="#ed831b" opacity="0.7"/>
    <g id="Group_326" data-name="Group 326" transform="translate(1100.156 389.483)">
      <g id="Group_325" data-name="Group 325" clip-path="url(#clip-path)">
        <path id="Path_409" data-name="Path 409" d="M87.054,88.627H78.146A1.342,1.342,0,0,1,76.8,87.285V65.951a2.67,2.67,0,0,1,2.67-2.67h6.252a2.67,2.67,0,0,1,2.67,2.67V87.285a1.342,1.342,0,0,1-1.342,1.342" transform="translate(-70.179 -57.822)" fill="#fff"/>
        <path id="Path_410" data-name="Path 410" d="M131.62,10.008h-2.58V.594A.594.594,0,0,1,129.634,0h1.392a.594.594,0,0,1,.594.594Z" transform="translate(-117.909)" fill="#fff"/>
        <path id="Path_411" data-name="Path 411" d="M108.065,30.22h-6.537a.432.432,0,0,1-.432-.432V28.776a.432.432,0,0,1,.432-.432h6.537a.432.432,0,0,1,.432.432v1.012a.432.432,0,0,1-.432.432" transform="translate(-92.375 -25.899)" fill="#fff"/>
        <path id="Path_412" data-name="Path 412" d="M169.794,22.621H170.9a.472.472,0,0,0,.472-.472v-2.4a.472.472,0,0,0-.472-.472h-1.106a.472.472,0,0,0-.472.472v2.4a.472.472,0,0,0,.472.472" transform="translate(-154.716 -17.617)" fill="#fff"/>
        <path id="Path_413" data-name="Path 413" d="M5.324,55.422c-.02-.3-.082-.8-.162-1.427a53.429,53.429,0,0,1-.539-8.454,23.432,23.432,0,0,1,.648-4.966,14.08,14.08,0,0,1,.791-2.3,10.022,10.022,0,0,1,1.2-2.02A8.748,8.748,0,0,1,8.7,34.752a5.355,5.355,0,0,1,1.43-.829,9.983,9.983,0,0,1,3.054-.493c.259-.016.527-.032.8-.053l.046,1.018c-.282.021-.552.037-.813.053-2.174.132-3.61.22-5.4,2.526-1.47,1.9-2.28,4.794-2.407,8.611a52.29,52.29,0,0,0,.529,8.248c.082.651.147,1.165.17,1.5Z" transform="translate(-4.207 -30.498)" fill="#fff"/>
        <path id="Path_414" data-name="Path 414" d="M1.727,278.677a2.268,2.268,0,0,0,0,4.406,2.268,2.268,0,0,0,0-4.406m0,3.243a1.071,1.071,0,0,1,0-2.081,1.071,1.071,0,0,1,0,2.081" transform="translate(0 -254.638)" fill="#fff"/>
      </g>
    </g>
  </g>
</svg>
