<svg id="ic-company" xmlns="http://www.w3.org/2000/svg" width="39.532" height="39.532" viewBox="0 0 39.532 39.532">
  <path id="Path_99" data-name="Path 99" d="M0,0H39.532V39.532H0Z" fill="none"/>
  <path id="Path_100" data-name="Path 100" d="M18.472,9.589V3H2V32.649H34.944V9.589ZM8.589,29.355H5.294V26.061H8.589Zm0-6.589H5.294V19.472H8.589Zm0-6.589H5.294V12.883H8.589Zm0-6.589H5.294V6.294H8.589Zm6.589,19.766H11.883V26.061h3.294Zm0-6.589H11.883V19.472h3.294Zm0-6.589H11.883V12.883h3.294Zm0-6.589H11.883V6.294h3.294ZM31.649,29.355H18.472V26.061h3.294V22.766H18.472V19.472h3.294V16.177H18.472V12.883H31.649ZM28.355,16.177H25.061v3.294h3.294Zm0,6.589H25.061v3.294h3.294Z" transform="translate(1.294 1.942)" fill="#ed831b"/>
</svg>
