<svg id="ic-contact-user" xmlns="http://www.w3.org/2000/svg" width="24" height="24" viewBox="0 0 24 24">
  <g id="Group_327" data-name="Group 327">
    <rect id="Rectangle_240" data-name="Rectangle 240" width="24" height="24" fill="none"/>
  </g>
  <g id="Group_328" data-name="Group 328">
    <path id="Path_415" data-name="Path 415" d="M20,2H4.01a2.006,2.006,0,0,0-2,2L2,22l4-4H20a2.006,2.006,0,0,0,2-2V4A2.006,2.006,0,0,0,20,2Zm0,14H5.17L4,17.17V4H20Zm-8-6a2,2,0,1,0-2-2A2.006,2.006,0,0,0,12,10Zm4,3.43a2.011,2.011,0,0,0-1.22-1.85,6.952,6.952,0,0,0-5.56,0A2.011,2.011,0,0,0,8,13.43V14h8Z" fill="#333"/>
  </g>
</svg>
