<svg id="ic-date" xmlns="http://www.w3.org/2000/svg" width="15.003" height="15.003" viewBox="0 0 15.003 15.003">
  <path id="Path_52" data-name="Path 52" d="M0,0H15V15H0Z" fill="none"/>
  <path id="Path_53" data-name="Path 53" d="M13.249,2.25h-.625V1h-1.25V2.25H5.125V1H3.875V2.25H3.25A1.254,1.254,0,0,0,2,3.5v10a1.254,1.254,0,0,0,1.25,1.25h10A1.254,1.254,0,0,0,14.5,13.5V3.5A1.254,1.254,0,0,0,13.249,2.25Zm0,11.251h-10V6.625h10Zm0-8.126h-10V3.5h10Z" transform="translate(-0.748 -0.374)" fill="#ed831b"/>
</svg>
