<svg id="ic-draw" xmlns="http://www.w3.org/2000/svg" width="24" height="24" viewBox="0 0 24 24">
  <g id="Group_241" data-name="Group 241">
    <rect id="Rectangle_185" data-name="Rectangle 185" width="24" height="24" fill="none"/>
  </g>
  <g id="Group_242" data-name="Group 242">
    <path id="Path_310" data-name="Path 310" d="M11,11h2.12l6.16-6.16L17.16,2.72,11,8.88Zm9.71-9L20,1.29a1,1,0,0,0-1.41,0l-.72.72,2.12,2.12.72-.72A1,1,0,0,0,20.71,2ZM17.9,9.05A6.935,6.935,0,0,1,18,10.2c0,1.71-1.08,4.64-6,9.14-4.92-4.49-6-7.43-6-9.14A5.968,5.968,0,0,1,12,4a6.346,6.346,0,0,1,.97.08l1.65-1.65A8.561,8.561,0,0,0,12,2a7.955,7.955,0,0,0-8,8.2Q4,15.18,12,22q7.995-6.825,8-11.8a8.7,8.7,0,0,0-.45-2.8Z" fill="#ed831b"/>
  </g>
</svg>
