<svg xmlns="http://www.w3.org/2000/svg" xmlns:xlink="http://www.w3.org/1999/xlink" width="26" height="26" viewBox="0 0 26 26">
  <defs>
    <clipPath id="clip-path">
      <rect id="Rectangle_142" data-name="Rectangle 142" width="12.596" height="15.745" fill="none"/>
    </clipPath>
  </defs>
  <g id="ic-exit" transform="translate(-66 -507.5)">
    <circle id="Ellipse_18" data-name="Ellipse 18" cx="13" cy="13" r="13" transform="translate(66 507.5)" fill="#009245"/>
    <g id="Group_172" data-name="Group 172" transform="translate(72.961 512.702)">
      <g id="Group_171" data-name="Group 171" transform="translate(0 0)" clip-path="url(#clip-path)">
        <path id="Path_216" data-name="Path 216" d="M5.568,15.738c.017-.051.032-.1.049-.143q.632-1.653,1.267-3.306a.614.614,0,0,0-.021-.518.361.361,0,0,0-.109-.13q-1.058-.758-2.119-1.51a1.374,1.374,0,0,1-.553-1.517,2.646,2.646,0,0,1,.254-.53c.441-.772.888-1.54,1.332-2.309.012-.021.021-.043.035-.072-.222-.038-.441-.058-.65-.115a1.038,1.038,0,0,0-.77.121c-.681.342-1.368.673-2.053,1.008l-.041.017L1.6,5.552l-.019.006v4.663H.006V0H12.6V15.739h-1.57V8.655H10.92c-.375,0-.751.006-1.126,0a2.08,2.08,0,0,1-1.877-1.1c-.014-.024-.029-.048-.044-.071l-.264-.395c-.018.028-.034.048-.046.07Q6.987,8.2,6.41,9.251a.082.082,0,0,0,.023.122c.426.378.857.75,1.273,1.138a2.035,2.035,0,0,1,.647,1.733,2.949,2.949,0,0,1-.234.812q-.5,1.3-1,2.609c-.017.043-.028.08-.092.079-.468,0-.935,0-1.4,0-.014,0-.029,0-.055-.006M1.583,1.573V5.495l.07-.03c.571-.286,1.141-.576,1.716-.856a9.158,9.158,0,0,1,.96-.424,1.88,1.88,0,0,1,1.4.037c.616.262,1.237.512,1.855.772a2,2,0,0,1,.912.793c.108.167.223.331.338.494s.233.3.334.464a.637.637,0,0,0,.584.335c.391,0,.781,0,1.172,0h.092V1.573Z" transform="translate(-0.002 0)" fill="#fff"/>
        <path id="Path_217" data-name="Path 217" d="M0,16.653V15.08H.114c.926,0,1.852,0,2.778,0a.773.773,0,0,0,.773-.427,1.286,1.286,0,0,1,.077-.116l1.2.93a2.342,2.342,0,0,1-.631.7,2.362,2.362,0,0,1-1.487.484c-.9-.015-1.809-.005-2.713-.005H0" transform="translate(-0.001 -4.063)" fill="#fff"/>
        <rect id="Rectangle_141" data-name="Rectangle 141" width="1.565" height="2.35" transform="translate(0 13.387)" fill="#fff"/>
        <path id="Path_218" data-name="Path 218" d="M9.836,4.089a1.392,1.392,0,0,1,1.378-1.4,1.413,1.413,0,0,1,1.4,1.406,1.4,1.4,0,0,1-1.407,1.377A1.369,1.369,0,0,1,9.836,4.089" transform="translate(-2.749 -0.75)" fill="#fff"/>
      </g>
    </g>
  </g>
</svg>
