<svg xmlns="http://www.w3.org/2000/svg" xmlns:xlink="http://www.w3.org/1999/xlink" width="20" height="20" viewBox="0 0 20 20">
  <defs>
    <clipPath id="clip-path">
      <rect id="Rectangle_150" data-name="Rectangle 150" width="20" height="20" transform="translate(-0.088 -0.088)" fill="#333"/>
    </clipPath>
  </defs>
  <g id="ic-environment" transform="translate(0.507 0.507)">
    <g id="Group_188" data-name="Group 188" transform="translate(-0.418 -0.418)" clip-path="url(#clip-path)">
      <path id="Path_233" data-name="Path 233" d="M13.747,12.322a2.4,2.4,0,0,1-.594.51v.857c2.486.35,4.186,1.049,4.186,1.856,0,1.155-3.48,2.093-7.773,2.093S1.794,16.7,1.794,15.545c0-.807,1.7-1.506,4.185-1.856v-.857a2.4,2.4,0,0,1-.594-.51C2.2,12.9,0,14.127,0,15.545c0,1.981,4.283,3.587,9.566,3.587s9.566-1.606,9.566-3.587c0-1.418-2.2-2.64-5.385-3.223M9.566,4.783A2.391,2.391,0,1,0,7.174,2.391,2.391,2.391,0,0,0,9.566,4.783M7.174,11.957v3.587a1.2,1.2,0,0,0,1.2,1.2h2.391a1.2,1.2,0,0,0,1.2-1.2V11.957a1.2,1.2,0,0,0,1.2-1.2V7.174A1.793,1.793,0,0,0,11.36,5.381h-.441a3.214,3.214,0,0,1-2.706,0H7.772A1.793,1.793,0,0,0,5.979,7.174v3.587a1.2,1.2,0,0,0,1.2,1.2" transform="translate(0.346 0.346)" fill="#333"/>
    </g>
  </g>
</svg>
