<svg xmlns="http://www.w3.org/2000/svg" xmlns:xlink="http://www.w3.org/1999/xlink" width="26" height="26" viewBox="0 0 26 26">
  <defs>
    <clipPath id="clip-path">
      <rect id="Rectangle_146" data-name="Rectangle 146" width="15.483" height="18.325" fill="none"/>
    </clipPath>
  </defs>
  <g id="ic-fire-hydrant" transform="translate(-66 -592.5)">
    <circle id="Ellipse_22" data-name="Ellipse 22" cx="13" cy="13" r="13" transform="translate(66 592.5)" fill="#ff5151"/>
    <g id="Group_181" data-name="Group 181" transform="translate(71.258 595.337)">
      <g id="Group_180" data-name="Group 180" transform="translate(0 0.001)" clip-path="url(#clip-path)">
        <path id="Path_225" data-name="Path 225" d="M8,24.632V20.544a.767.767,0,0,0-.823-.828H6.6V16.182c.179,0,.358,0,.537,0A.777.777,0,0,0,8,15.319V13.38h7.051v.187q0,.881,0,1.762a.777.777,0,0,0,.856.854h.54v3.534H15.9a.772.772,0,0,0-.85.839c0,1.349,0,2.7,0,4.077.239,0,.472-.006.7,0a.693.693,0,0,1,.65.417.629.629,0,0,1-.105.742,1.383,1.383,0,0,1-.463.245.689.689,0,0,1-.252.014l-8.263,0a.724.724,0,0,1-.768-.717.731.731,0,0,1,.768-.7H8m6.34-6.332a2.812,2.812,0,1,0-2.8,2.809,2.821,2.821,0,0,0,2.8-2.809" transform="translate(-3.788 -7.73)" fill="#fff"/>
        <path id="Path_226" data-name="Path 226" d="M8.176,3.516A3.434,3.434,0,0,1,10.818.9.857.857,0,0,1,11.1.122.8.8,0,0,1,11.675,0c.341.016.546.334.575.892a3.439,3.439,0,0,1,2.634,2.63c.289,0,.579,0,.869,0a.694.694,0,0,1,.72.7.706.706,0,0,1-.717.711q-4.24,0-8.48,0a.706.706,0,1,1,.007-1.412l.853,0a.374.374,0,0,0,.041-.009" transform="translate(-3.788 0)" fill="#fff"/>
        <path id="Path_227" data-name="Path 227" d="M33.8,22.864h-.7c0,.093,0,.17,0,.246a.455.455,0,0,1-.444.46c-.313.011-.628,0-.956,0V20.063c.359,0,.719-.017,1.077.007a.411.411,0,0,1,.321.411c0,.078,0,.157,0,.255h.7Z" transform="translate(-18.312 -11.588)" fill="#fff"/>
        <path id="Path_228" data-name="Path 228" d="M0,20.729H.692c0-.087,0-.164,0-.24a.443.443,0,0,1,.43-.451c.319-.016.639,0,.972,0v3.506c-.343,0-.692.02-1.037-.007A.427.427,0,0,1,.692,23.1c0-.077,0-.154,0-.25H0Z" transform="translate(0 -11.573)" fill="#fff"/>
        <path id="Path_229" data-name="Path 229" d="M14.151,22.623a1.767,1.767,0,1,1,1.792,1.758,1.783,1.783,0,0,1-1.792-1.758" transform="translate(-8.175 -12.042)" fill="#fff"/>
      </g>
    </g>
  </g>
</svg>
