<svg id="ic-forget" xmlns="http://www.w3.org/2000/svg" width="20" height="20" viewBox="0 0 20 20">
  <path id="Path_158" data-name="Path 158" d="M0,0H20V20H0Z" fill="none"/>
  <path id="Path_159" data-name="Path 159" d="M9.486,15.308H11.15V13.645H9.486ZM10.318,2a8.318,8.318,0,1,0,8.318,8.318A8.321,8.321,0,0,0,10.318,2Zm0,14.972a6.654,6.654,0,1,1,6.654-6.654A6.663,6.663,0,0,1,10.318,16.972Zm0-11.645A3.326,3.326,0,0,0,6.991,8.654H8.654a1.664,1.664,0,0,1,3.327,0c0,1.664-2.5,1.456-2.5,4.159H11.15c0-1.871,2.5-2.079,2.5-4.159A3.326,3.326,0,0,0,10.318,5.327Z" transform="translate(-0.318 -0.318)" fill="#ed831b"/>
</svg>
