<svg id="ic-file-check" xmlns="http://www.w3.org/2000/svg" width="24" height="24" viewBox="0 0 24 24">
  <g id="Group_73" data-name="Group 73">
    <rect id="Rectangle_54" data-name="Rectangle 54" width="24" height="24" fill="none"/>
  </g>
  <g id="Group_75" data-name="Group 75">
    <g id="Group_74" data-name="Group 74">
      <path id="Path_90" data-name="Path 90" d="M5,5H7V8H17V5h2v5h2V5a2.006,2.006,0,0,0-2-2H14.82A2.988,2.988,0,0,0,9.18,3H5A2.006,2.006,0,0,0,3,5V19a2.006,2.006,0,0,0,2,2h5V19H5Zm7-2a1,1,0,1,1-1,1A1,1,0,0,1,12,3Z" fill="#ed831b"/>
      <path id="Path_91" data-name="Path 91" d="M20.3,18.9a4.815,4.815,0,0,0,.7-2.4A4.5,4.5,0,1,0,16.5,21a4.815,4.815,0,0,0,2.4-.7L21.6,23,23,21.6Zm-3.8.1A2.5,2.5,0,1,1,19,16.5,2.476,2.476,0,0,1,16.5,19Z" fill="#ed831b"/>
    </g>
  </g>
</svg>
