<svg id="ic-factory-hazard" xmlns="http://www.w3.org/2000/svg" width="28" height="28" viewBox="0 0 28 28">
  <g id="Group_329" data-name="Group 329">
    <path id="Path_416" data-name="Path 416" d="M0,0H28V28H0Z" fill="none"/>
  </g>
  <g id="Group_331" data-name="Group 331" transform="translate(4.333 2.417)">
    <g id="Group_330" data-name="Group 330">
      <path id="Path_417" data-name="Path 417" d="M13.667,2,4,5.475v7.054a13.142,13.142,0,0,0,9.667,12.637,13.142,13.142,0,0,0,9.667-12.637V5.475Zm7.25,10.529a10.837,10.837,0,0,1-7.25,10.228,10.826,10.826,0,0,1-7.25-10.228V7.085l7.25-2.606,7.25,2.606Z" transform="translate(-4 -2)" fill="#ed831b"/>
      <rect id="Rectangle_241" data-name="Rectangle 241" width="3" height="2" transform="translate(8.167 13.926)" fill="#ed831b"/>
      <rect id="Rectangle_242" data-name="Rectangle 242" width="3" height="6" transform="translate(8.167 5.276)" fill="#ed831b"/>
    </g>
  </g>
</svg>
