<svg xmlns="http://www.w3.org/2000/svg" xmlns:xlink="http://www.w3.org/1999/xlink" width="26" height="26" viewBox="0 0 26 26">
  <defs>
    <clipPath id="clip-path">
      <rect id="Rectangle_305" data-name="Rectangle 305" width="14.523" height="16.598" fill="none"/>
    </clipPath>
  </defs>
  <g id="ic-firefighter" transform="translate(-66 -819.5)">
    <circle id="Ellipse_36" data-name="Ellipse 36" cx="13" cy="13" r="13" transform="translate(66 819.5)" fill="#f15a24"/>
    <g id="Group_470" data-name="Group 470" transform="translate(72.926 824.846)">
      <g id="Group_475" data-name="Group 475" transform="translate(0 0)" clip-path="url(#clip-path)">
        <path id="Path_493" data-name="Path 493" d="M14.071.854l-5.446.908c-.368.061-.325.437-.325.573H6.408a1.815,1.815,0,1,0-3.433.136A4.349,4.349,0,0,0,.056,5.417.778.778,0,1,0,1.5,5.994c.932-2.332,1.967-2.1,3.946-2.1v.877A3.154,3.154,0,0,0,3.112,7.819v8a.778.778,0,0,0,.778.778H8.559a.778.778,0,0,0,.778-.778V7.78A3.113,3.113,0,0,0,7,4.766V3.89H8.3c0,.1-.055.509.325.573l5.446.908a.389.389,0,0,0,.453-.384V1.237a.389.389,0,0,0-.453-.384m-9.4,1.48a.519.519,0,1,1,.519-.519.519.519,0,0,1-.519.519" transform="translate(0 0)" fill="#fff"/>
      </g>
    </g>
  </g>
</svg>
