<svg xmlns="http://www.w3.org/2000/svg" xmlns:xlink="http://www.w3.org/1999/xlink" width="28" height="28" viewBox="0 0 28 28">
  <defs>
    <clipPath id="clip-path">
      <rect id="Rectangle_166" data-name="Rectangle 166" width="28" height="28" fill="#d5d5d5"/>
    </clipPath>
  </defs>
  <g id="ic-fire-none" transform="translate(0 0)">
    <g id="Group_202" data-name="Group 202" transform="translate(0 0)" clip-path="url(#clip-path)">
      <path id="Path_254" data-name="Path 254" d="M27.233,13.929v.053a13.358,13.358,0,0,1-.146,1.974l.759.115A14.214,14.214,0,0,0,28,13.982v-.057l-.767,0Zm-.6-3.9a13.136,13.136,0,0,1,.446,1.928l.758-.117a13.777,13.777,0,0,0-.471-2.04ZM24.908,6.479a13.205,13.205,0,0,1,1,1.709l.689-.336A13.989,13.989,0,0,0,25.54,6.044ZM22.215,3.595a13.272,13.272,0,0,1,1.454,1.342l.56-.524a14.027,14.027,0,0,0-1.538-1.42ZM18.795,1.629a13.109,13.109,0,0,1,1.784.855l.381-.667a13.965,13.965,0,0,0-1.888-.9l-.277.716ZM14.947.766a13.077,13.077,0,0,1,1.955.287L17.07.3A14.041,14.041,0,0,0,15,0Zm-3.932.305a13.188,13.188,0,0,1,1.954-.3L12.91.006a13.877,13.877,0,0,0-2.067.316l.172.747ZM7.352,2.523a13.194,13.194,0,0,1,1.777-.864L8.847.945a13.861,13.861,0,0,0-1.88.914l.386.663ZM4.278,4.993a13.46,13.46,0,0,1,1.445-1.35l-.48-.6A14.119,14.119,0,0,0,3.714,4.472ZM2.061,8.26a13.181,13.181,0,0,1,.987-1.716l-.635-.431A13.892,13.892,0,0,0,1.369,7.928ZM.908,12.035a13.11,13.11,0,0,1,.435-1.93L.608,9.879a14.1,14.1,0,0,0-.459,2.044Zm.008,3.949a13.507,13.507,0,0,1-.15-1.974H0A14.33,14.33,0,0,0,.158,16.1Zm1.168,3.769a13.041,13.041,0,0,1-.726-1.841l-.732.227a13.8,13.8,0,0,0,.768,1.948Zm2.227,3.256a13.314,13.314,0,0,1-1.235-1.545l-.633.434A14.268,14.268,0,0,0,3.75,23.532ZM7.4,25.468a13.374,13.374,0,0,1-1.634-1.115l-.478.6a14.187,14.187,0,0,0,1.729,1.18l.383-.667Zm3.673,1.439a13.086,13.086,0,0,1-1.891-.581l-.279.716a13.983,13.983,0,0,0,2,.614ZM15,27.2q-.5.037-1,.037-.491,0-.975-.035l-.055.766Q13.479,28,14,28t1.06-.04L15,27.194Zm3.843-.88a13.2,13.2,0,0,1-1.889.585l.171.748a13.881,13.881,0,0,0,2-.618Zm3.409-1.977a13.392,13.392,0,0,1-1.631,1.117l.385.664a14.077,14.077,0,0,0,1.725-1.182Zm2.682-2.9A13.439,13.439,0,0,1,23.7,22.991l.561.522a13.98,13.98,0,0,0,1.3-1.637l-.634-.433Zm1.712-3.557a13.053,13.053,0,0,1-.723,1.843l.691.333a13.921,13.921,0,0,0,.765-1.949Z" transform="translate(0 0)" fill="#d5d5d5"/>
      <path id="Path_255" data-name="Path 255" d="M16.992,6.993a18.869,18.869,0,0,0-1.775,1.9,24.408,24.408,0,0,0-3.138-3.516c-3.1,2.882-5.307,6.64-5.307,8.906a7.184,7.184,0,0,0,7.076,7.287,7.183,7.183,0,0,0,7.075-7.287c0-1.684-1.641-5.159-3.931-7.287m-.615,10.774a4.244,4.244,0,0,1-2.44.764A3.892,3.892,0,0,1,9.8,14.569c0-1.221.768-2.3,2.3-4.135.219.253,3.122,3.963,3.122,3.963l1.853-2.114c.13.216.25.429.356.632a3.777,3.777,0,0,1-1.056,4.852" transform="translate(0.153 0.128)" fill="#d5d5d5"/>
    </g>
  </g>
</svg>
