<svg xmlns="http://www.w3.org/2000/svg" xmlns:xlink="http://www.w3.org/1999/xlink" width="20" height="20" viewBox="0 0 20 20">
  <defs>
    <clipPath id="clip-path">
      <rect id="Rectangle_164" data-name="Rectangle 164" width="20" height="20" fill="none"/>
    </clipPath>
  </defs>
  <g id="ic-fast" transform="translate(0)">
    <g id="Group_198" data-name="Group 198" transform="translate(0 0)" clip-path="url(#clip-path)">
      <path id="Path_250" data-name="Path 250" d="M20,10A10,10,0,1,1,10,0,10,10,0,0,1,20,10" transform="translate(0 0)" fill="#b873d8"/>
      <path id="Path_251" data-name="Path 251" d="M16.535,14.848,13.29,13.269l3.245-1.578a.366.366,0,0,0,.164-.49l-.327-.654a.366.366,0,0,0-.49-.164l-4.263,2.073L7.356,10.383a.365.365,0,0,0-.49.164l-.327.654a.366.366,0,0,0,.164.49l3.245,1.578L6.7,14.848a.365.365,0,0,0-.163.49l.327.654a.366.366,0,0,0,.491.164l4.262-2.073,4.263,2.073a.365.365,0,0,0,.49-.164l.327-.654a.365.365,0,0,0-.163-.49M9.927,9.917l-.125.591a.445.445,0,0,0,.375.568h2.881a.445.445,0,0,0,.376-.568l-.125-.591a2.868,2.868,0,0,0,1.6-2.5A3.124,3.124,0,0,0,11.619,4.5,3.124,3.124,0,0,0,8.328,7.42a2.868,2.868,0,0,0,1.6,2.5M12.9,7.054a.731.731,0,1,1-.731.731.732.732,0,0,1,.731-.731m-2.559,0a.731.731,0,1,1-.731.731.732.732,0,0,1,.731-.731" transform="translate(-1.619 -1.119)" fill="#fff"/>
    </g>
  </g>
</svg>
