<svg xmlns="http://www.w3.org/2000/svg" xmlns:xlink="http://www.w3.org/1999/xlink" width="28" height="28" viewBox="0 0 28 28">
  <defs>
    <clipPath id="clip-path">
      <rect id="Rectangle_227" data-name="Rectangle 227" width="28" height="28" fill="#ed831b"/>
    </clipPath>
  </defs>
  <g id="ic-flat" transform="translate(0 0)">
    <g id="Group_301" data-name="Group 301" transform="translate(0 0)" clip-path="url(#clip-path)">
      <path id="Path_390" data-name="Path 390" d="M0,24.391V3.609a.6.6,0,0,0,.049-.122A4.193,4.193,0,0,1,3.089.135C3.259.08,3.436.044,3.609,0h.657a.781.781,0,0,1,.4.792c-.019.8-.007,1.6-.008,2.4v.3h.315q11.084,0,22.167-.007a.875.875,0,0,1,.856.39V28H3.609a.72.72,0,0,0-.12-.051A4.19,4.19,0,0,1,.136,24.911c-.055-.171-.091-.347-.136-.521M4.663,4.663v.369q0,7.641,0,15.284A.6.6,0,0,1,4,21a2.839,2.839,0,0,0-2.765,3.563,2.768,2.768,0,0,0,2.952,2.271q11.154,0,22.31.007c.255,0,.342-.059.342-.328q-.012-10.746-.008-21.49c0-.362,0-.362-.374-.362H4.663" transform="translate(0 0)" fill="#ed831b"/>
      <path id="Path_391" data-name="Path 391" d="M16.944,21.55c0-.212-.007-.394,0-.574a.572.572,0,0,1,.59-.584.561.561,0,0,1,.57.573c.009.182,0,.362,0,.565h3.465v-5.8c-.083,0-.163-.013-.243-.013-.975,0-1.95.007-2.926-.008-.247,0-.31.075-.3.311.017.465.009.929,0,1.394a.572.572,0,0,1-.566.634.585.585,0,0,1-.6-.638c0-.729,0-1.458,0-2.187a.6.6,0,0,1,.673-.673q1.833,0,3.664,0h.29V6.411H18.109v.3q0,2.42,0,4.839c0,.4-.2.642-.534.665a.582.582,0,0,1-.629-.654c0-1.239,0-2.478,0-3.719V6.407H12.27V9.891h1.062c.236,0,.474-.008.71,0a.577.577,0,0,1,.023,1.152q-1.216.018-2.433,0a.565.565,0,0,1-.539-.632q0-1.845,0-3.691V6.409H6.446v6.965c.077.005.156.016.234.016q2.462,0,4.922-.008a.6.6,0,0,1,.662.626q-.006,1.094-.013,2.186c0,.422-.222.688-.568.694s-.592-.266-.593-.7c0-.535,0-1.072,0-1.624H6.445V21.53H11.09v-.8c0-.291,0-.582,0-.875a.582.582,0,1,1,1.159.005c0,.455,0,.912,0,1.367v.323c.192,0,.354,0,.515,0a.6.6,0,0,1,.657.581.59.59,0,0,1-.652.584q-2.624,0-5.248,0c-.511,0-1.022,0-1.532,0-.545,0-.742-.2-.742-.742q0-5.031,0-10.063V6.006c0-.6.191-.789.782-.789H21.918c.67,0,.836.182.836.839,0,3.016.009,6.033.009,9.051q0,3.5-.015,7c0,.409-.227.612-.669.613-1.3,0-2.607,0-3.91,0-.574,0-1.147,0-1.721,0-.423,0-.672-.227-.665-.59a.589.589,0,0,1,.657-.577c.154,0,.308,0,.5,0" transform="translate(1.761 1.749)" fill="#ed831b"/>
    </g>
  </g>
</svg>
