<svg id="ic-import" xmlns="http://www.w3.org/2000/svg" width="14" height="14" viewBox="0 0 14 14">
  <path id="Path_15" data-name="Path 15" d="M0,0H14V14H0Z" fill="none"/>
  <path id="Path_16" data-name="Path 16" d="M16.642,4.734,15.561,3.428A1.129,1.129,0,0,0,14.667,3H5.333a1.156,1.156,0,0,0-.9.428L3.358,4.734A1.523,1.523,0,0,0,3,5.722v9.722A1.56,1.56,0,0,0,4.556,17H15.444A1.56,1.56,0,0,0,17,15.444V5.722A1.523,1.523,0,0,0,16.642,4.734ZM5.52,4.556h8.96l.646.778H4.882ZM4.556,15.444V6.889H15.444v8.555Zm2.333-3.889H8.872v2.333h2.256V11.555h1.983L10,8.444Z" transform="translate(-3 -3)" fill="#ed831b"/>
</svg>
