<svg id="ic-idcard" xmlns="http://www.w3.org/2000/svg" width="20" height="20" viewBox="0 0 20 20">
  <path id="Path_341" data-name="Path 341" d="M0,0H20V20H0Z" fill="none"/>
  <path id="Path_342" data-name="Path 342" d="M15.05,3H1.368A1.329,1.329,0,0,0,0,4.277v8.939a1.329,1.329,0,0,0,1.368,1.277H15.05a1.323,1.323,0,0,0,1.361-1.277l.007-8.939A1.329,1.329,0,0,0,15.05,3Zm0,10.216H1.368V4.277H15.05ZM13,12.571,14.366,11.3l-1.033-1.277H12.211a3.525,3.525,0,0,1,0-2.554h1.122l1.033-1.277L13,4.922a4.779,4.779,0,0,0-1.868,2.548,4.352,4.352,0,0,0,0,2.554A4.8,4.8,0,0,0,13,12.571ZM6.157,8.746A1.993,1.993,0,0,0,8.209,6.831,1.993,1.993,0,0,0,6.157,4.915,1.993,1.993,0,0,0,4.1,6.831,1.993,1.993,0,0,0,6.157,8.746Zm0-2.554a.64.64,0,1,1-.684.638A.664.664,0,0,1,6.157,6.192Zm4.1,5.485c0-1.6-2.716-2.286-4.1-2.286s-4.1.69-4.1,2.286v.9h8.209ZM3.749,11.3a5.125,5.125,0,0,1,2.408-.638,5.073,5.073,0,0,1,2.408.638Z" transform="translate(1.791 1.254)" fill="#707070"/>
</svg>
