<svg xmlns="http://www.w3.org/2000/svg" width="24" height="24" viewBox="0 0 24 24">
  <g id="ic-line" transform="translate(-257 -303)">
    <path id="line" d="M11.188,0c6.169,0,11.188,4.072,11.188,9.079a8.071,8.071,0,0,1-2.4,5.586,36.114,36.114,0,0,1-8.79,6.5c-1.161.489-1.027-.276-.973-.578l0-.025.159-.958a2.288,2.288,0,0,0-.036-1.011c-.126-.312-.621-.474-.985-.552C3.98,17.328,0,13.567,0,9.079,0,4.072,5.021,0,11.188,0ZM7.023,10.749H4.891V6.878a.218.218,0,0,0-.217-.218H3.888a.218.218,0,0,0-.218.218v4.875a.214.214,0,0,0,.062.15h0l0,0,0,0a.215.215,0,0,0,.151.06H7.023a.217.217,0,0,0,.217-.218v-.783a.218.218,0,0,0-.217-.22ZM8.13,6.66a.218.218,0,0,0-.218.218v4.875a.217.217,0,0,0,.218.217h.786a.217.217,0,0,0,.217-.217V6.878a.218.218,0,0,0-.217-.218Zm5.4,0a.218.218,0,0,0-.218.218V9.773L11.08,6.758l-.018-.021h0l-.014-.014,0,0L11.029,6.7h0L11.02,6.7l0,0-.007,0L11,6.685h0l0,0-.014-.006-.006,0-.014,0H10.95l-.013,0h-.824a.218.218,0,0,0-.218.217v4.875a.217.217,0,0,0,.218.217H10.9a.218.218,0,0,0,.22-.217V8.86l2.238,3.021a.215.215,0,0,0,.055.053h0l.014.008.006,0,.011.006.01,0,.007,0,.014,0h0a.217.217,0,0,0,.056.008h.783a.218.218,0,0,0,.22-.217V6.878a.218.218,0,0,0-.218-.218h-.785Zm5.335,1V6.879a.218.218,0,0,0-.217-.22H15.515a.217.217,0,0,0-.151.062h0v0l0,0a.217.217,0,0,0-.062.15v4.875a.214.214,0,0,0,.062.15l0,0,0,0a.217.217,0,0,0,.151.06h3.135a.217.217,0,0,0,.217-.218v-.783a.218.218,0,0,0-.217-.22H16.517V9.925h2.133a.217.217,0,0,0,.217-.218V8.924a.218.218,0,0,0-.217-.22H16.517V7.881h2.133a.217.217,0,0,0,.217-.218Z" transform="translate(258 304)" fill="#ed831b"/>
    <rect id="Rectangle_256" data-name="Rectangle 256" width="24" height="24" transform="translate(257 303)" fill="none"/>
  </g>
</svg>
