<svg xmlns="http://www.w3.org/2000/svg" width="46" height="46" viewBox="0 0 46 46">
  <g id="ic-lab" transform="translate(-516.5 -610)">
    <g id="フラスコのフリーアイコン4" transform="translate(529.743 618.144)">
      <path id="Path_122" data-name="Path 122" d="M233.461,1.939a.97.97,0,1,0-.968-.971A.97.97,0,0,0,233.461,1.939Z" transform="translate(-223.974 0)" fill="#333"/>
      <path id="Path_123" data-name="Path 123" d="M239.826,88.991a.57.57,0,1,0-.57.57A.57.57,0,0,0,239.826,88.991Z" transform="translate(-229.84 -83.764)" fill="#333"/>
      <path id="Path_124" data-name="Path 124" d="M262.4,48.2a.682.682,0,1,0,.683-.68A.683.683,0,0,0,262.4,48.2Z" transform="translate(-252.309 -45.021)" fill="#333"/>
      <path id="Path_125" data-name="Path 125" d="M89.843,131.887l-5.459-8.72a4.991,4.991,0,0,1-.76-2.648l.007-5.666h-.966l-.007,5.649v.017a5.959,5.959,0,0,0,.908,3.16l5.459,8.72a1.569,1.569,0,0,1-1.33,2.4h-.009l-14.438-.016a1.569,1.569,0,0,1-1.327-2.4l5.478-8.709a5.951,5.951,0,0,0,.915-3.165l.006-5.654h-.964l-.007,5.653a5,5,0,0,1-.766,2.652L71.1,131.868a2.535,2.535,0,0,0,2.143,3.884l14.444.016v0h.035a2.533,2.533,0,0,0,2.116-3.878Z" transform="translate(-70.715 -108.806)" fill="#333"/>
      <path id="Path_126" data-name="Path 126" d="M122.951,325.82l-3.768,5.989a.826.826,0,0,0-.024.837.839.839,0,0,0,.722.441h12.776a.825.825,0,0,0,.7-1.262l-3.754-6a.822.822,0,0,0-.7-.387l-5.254-.006A.819.819,0,0,0,122.951,325.82Zm4.98,4.162a.6.6,0,1,1-.6.6A.6.6,0,0,1,127.931,329.983Zm-2.9-2.595a.9.9,0,1,1-.905.905A.905.905,0,0,1,125.035,327.388Z" transform="translate(-116.511 -308.298)" fill="#333"/>
    </g>
    <g id="Ellipse_4" data-name="Ellipse 4" transform="translate(516.5 610)" fill="none" stroke="#333" stroke-width="1">
      <circle cx="23" cy="23" r="23" stroke="none"/>
      <circle cx="23" cy="23" r="22.5" fill="none"/>
    </g>
  </g>
</svg>
