<svg id="ic-line-link" xmlns="http://www.w3.org/2000/svg" xmlns:xlink="http://www.w3.org/1999/xlink" width="32" height="32" viewBox="0 0 32 32">
  <defs>
    <clipPath id="clip-path">
      <rect id="Rectangle_83" data-name="Rectangle 83" width="32" height="32" fill="#ed831b"/>
    </clipPath>
  </defs>
  <g id="Group_98" data-name="Group 98" transform="translate(0 0)" clip-path="url(#clip-path)">
    <path id="Path_107" data-name="Path 107" d="M4.528.356c.284-.077.566-.163.853-.228A3.608,3.608,0,0,1,6,.036Q6.654,0,7.312,0q8.91,0,17.821.007a6.47,6.47,0,0,1,1.224.1,6.743,6.743,0,0,1,1.59.465,7.022,7.022,0,0,1,.81.428c.342.219.664.469.994.705a.018.018,0,0,0,.015.014c.25.271.511.532.748.814A5.219,5.219,0,0,1,31.3,3.783c.1.221.185.447.277.67l.053.058c.064.269.132.538.19.809a5.878,5.878,0,0,1,.1.608,33.546,33.546,0,0,1,.057,3.383q.011,7.912,0,15.823c0,.168-.022.336-.026.5a2.7,2.7,0,0,0,.022.281l-.053.089a4.068,4.068,0,0,1-.188,1.014c-.036.156-.073.312-.108.467l-.032.056c-.023.052-.047.1-.07.155s-.027.109-.04.164l-.052.062-.117.261a6.691,6.691,0,0,1-.858,1.353,6.376,6.376,0,0,1-1.508,1.363,6.651,6.651,0,0,1-2.147.916c-.292.077-.593.119-.891.175a.629.629,0,0,1-.116,0H6.213c-.039,0-.078,0-.116,0l-.086-.028c-.172-.021-.346-.031-.516-.066-.324-.068-.645-.15-.967-.227l-.085-.083-.176-.032L4.122,31.5l-.058-.029-.174-.058-.118-.089L3.746,31.3l-.032-.01-.027-.019-.031-.01-.028-.019-.088-.038-.028-.021-.031-.011-.029-.016-.057-.038-.032-.02-.09-.046-.169-.11-.031-.019-.14-.066-.612-.5-.147-.135-.4-.413L1.661,29.7l-.492-.615-.186-.316-.26-.5L.7,28.247.608,28.13c-.019-.058-.038-.116-.058-.175L.521,27.9C.51,27.85.5,27.8.488,27.756l-.021-.031-.036-.149L.37,27.491c0-.019,0-.036,0-.054L.351,27.4c-.075-.292-.159-.582-.224-.876-.038-.17-.048-.348-.07-.522.053-.076,0-.085-.056-.086.008-.219.016-.439.023-.658,0-.038,0-.077,0-.116q0-9.133,0-18.266c0-.266,0-.532,0-.8l.023-.058c.072-.386.142-.773.217-1.159A2.616,2.616,0,0,1,.351,4.6l.021-.031V4.511l.062-.086.036-.149.021-.031A2.534,2.534,0,0,1,.7,3.754l.025-.027A6.506,6.506,0,0,1,3.071,1.077l.033-.02L3.36.9,3.394.881,3.451.844l.03-.016L3.512.816,3.539.8,3.628.757,3.655.738,3.687.729,3.714.71,4.389.418A.232.232,0,0,1,4.443.409L4.528.356M25.654,2.962a4.053,4.053,0,0,0-.452-.05q-9.2,0-18.394,0a4.035,4.035,0,0,0-.95.1,3.608,3.608,0,0,0-1.121.464,3.889,3.889,0,0,0-1.274,1.3,5.01,5.01,0,0,0-.319.669,3.436,3.436,0,0,0-.213,1.091c-.01.154,0,.309,0,.464q0,9.243,0,18.485a2.433,2.433,0,0,0,.053.257,2.331,2.331,0,0,0,.025.356,4.184,4.184,0,0,0,.568,1.3,4.378,4.378,0,0,0,.823.895,3.613,3.613,0,0,0,1.374.682,1.338,1.338,0,0,0,.386.062c.07,0,.127-.043.186.026a.156.156,0,0,0,.1.028c.116,0,.232,0,.349,0l18.854-.03.058-.051c.052.017.11.057.155.046.289-.071.575-.153.861-.232l.058-.053.347-.175.031-.017.492-.333.033-.021.7-.762.089-.125a3.527,3.527,0,0,0,.469-1.069A4.554,4.554,0,0,0,29,25.717l.051-.058c0-.14-.006-.28-.01-.42.006-.072.038-.151.038-.229q0-5.582,0-11.164,0-3.511,0-7.021a4.555,4.555,0,0,0-.056-.518L29,6.285a.559.559,0,0,0,.019-.175,5.754,5.754,0,0,0-.184-.723,3.794,3.794,0,0,0-1.149-1.61l-.034-.024-.49-.332L27.133,3.4a3.157,3.157,0,0,0-1.421-.442l-.029-.041-.029.041" transform="translate(0 0)" fill="#ed831b"/>
    <path id="Path_108" data-name="Path 108" d="M22.337,26.071c-.363.244-.726.488-1.087.735-.23.157-.455.32-.684.476-.077.053-.162.093-.244.14a.2.2,0,0,1-.021.022l-1.026.618-.019.021-.176.095-.086.04-.85.45-.079.029a4.459,4.459,0,0,1-.452.061.317.317,0,0,1-.358-.362,5.512,5.512,0,0,1,.068-.591c.029-.194.071-.385.1-.579A.368.368,0,0,0,17.4,27.1c.06,0,.11-.009.059-.085,0-.214,0-.429,0-.643l-.058-.057c.054-.136-.062-.2-.119-.3L17.2,25.98l-.151-.109-.174-.081-.03,0-.028-.025-1.4-.266-.05-.05-.038.048c-.143-.046-.287-.093-.431-.138l-1.226-.383-.028-.025-.117-.033-.057-.029h-.029l-.061-.022-.084-.037-.119-.05h0l-.054-.038-.149-.056-.06-.023-.055-.035-.026-.025-.032-.01-.027-.019-.031-.009-.027-.019-.031-.009-.028-.02-.147-.068-.027-.02-.641-.356-.028-.021-.118-.069-.03-.017-.057-.039-.033-.02-.809-.581-.025-.029-.262-.219-.06-.043-.87-.888L9.5,22.1c-.235-.326-.474-.648-.7-.978-.108-.155-.2-.324-.293-.487l-.084-.078a.75.75,0,0,0-.028-.123,2.208,2.208,0,0,0-.22-.485c-.073-.1-.046-.207-.107-.293l-.05-.118L7.952,19.3c0-.027-.009-.053-.014-.081-.053-.174-.117-.345-.156-.522-.051-.224-.083-.452-.119-.678a.947.947,0,0,1,0-.174l-.036-.056c0-.289,0-.576,0-.864,0-.167.02-.333.026-.5a.928.928,0,0,0-.021-.152l.022-.02c.039-.172.076-.344.118-.515s.087-.323.132-.485c0-.038.006-.076.01-.115.051-.155.1-.31.153-.465l.024-.028.033-.118.025-.028.015-.058.072-.147.505-.959.08-.126.152-.252.075-.09c.023-.038.047-.076.07-.114l.076-.088.124-.2.08-.056.111-.115.063-.089c.165-.172.331-.343.5-.515.039-.041.074-.086.11-.13l.066-.031.2-.2.086-.078.086-.068.088-.079c.134-.1.271-.194.4-.3.188-.147.367-.306.561-.446a2.278,2.278,0,0,1,.283-.113c.423-.217.841-.445,1.265-.658.168-.084.354-.133.522-.214a8.661,8.661,0,0,1,1.109-.348A.787.787,0,0,0,15,8.947c.012-.008.026-.026.035-.024.235.062.437-.108.667-.094.041,0,.084-.041.109-.053.151-.011.291-.019.43-.034s.272-.033.407-.056a.851.851,0,0,0,.154-.053c.022-.009.048-.036.061-.029.218.1.432-.026.649,0a.333.333,0,0,0,.134-.039,1.685,1.685,0,0,0,.232.038c.233,0,.467-.011.7,0,.353.02.7.061,1.057.085.244.017.489.015.733.036a.764.764,0,0,1,.213.088c.017.008.035.024.051.023a.615.615,0,0,1,.418.083c.03.018.085-.014.124,0,.111.025.221.058.33.091.035.011.066.035.1.046.312.1.628.192.934.312.44.172.879.352,1.3.556a8.585,8.585,0,0,1,1.924,1.267c.312.27.6.566.892.856a7.275,7.275,0,0,1,1.627,2.519,5.705,5.705,0,0,1,.387,1.411c.008.056.018.111.028.167l.052.086c.012.308.028.615.034.923a5.35,5.35,0,0,1-.007.755,5.386,5.386,0,0,1-.181.846c-.123.421-.272.834-.405,1.253-.028.087-.026.185-.1.185a4.445,4.445,0,0,1-.236.484c-.226.355-.468.7-.7,1.05-.031.047-.058.1-.085.147l-.051.053,0,0-.024.024-.253.3-.038.049c-.129.138-.257.279-.391.415-.328.331-.657.66-.987.991l-.075.079-.213.183-.078.078-.126.1a.18.18,0,0,1-.021.019l-.049.036c-.012.009-.025.019-.036.028l-.525.423-.02.018-.871.693c-.026.02-.049.043-.074.065l-.023.024-.087.063-.027.019-.2.125-.027.03-.5.378-.027.018M15.216,19.71l.018.029a.544.544,0,0,0,.59.252.6.6,0,0,0,.42-.652q0-2.012,0-4.025a1.1,1.1,0,0,0-.01-.174.526.526,0,0,0-.657-.432.534.534,0,0,0-.443.6q0,1.917,0,3.835a.984.984,0,0,0,.082.565m-.814-.7-.027-.031-.031-.01-.032-.017a3.407,3.407,0,0,0-.43-.061c-.449-.008-.9,0-1.359,0V15.366c0-.053,0-.107,0-.16a.546.546,0,0,0-.721-.5.567.567,0,0,0-.384.6q0,1.977,0,3.953a.619.619,0,0,0,.083.447c0,.01,0,.02,0,.03a.533.533,0,0,0,.427.256q1.059.011,2.118,0a.516.516,0,0,0,.553-.4.532.532,0,0,0-.195-.581m10.532.9.078-.052a.355.355,0,0,0,.232-.341.628.628,0,0,0-.265-.547l-.027-.02-.2-.033L24.66,18.9H23.167v-1h.15c.447,0,.892,0,1.337,0a.558.558,0,1,0,0-1.114c-.441,0-.881,0-1.322,0h-.159v-.994h.166c.459,0,.92.009,1.38,0a.507.507,0,0,0,.527-.421.526.526,0,0,0-.314-.632.838.838,0,0,0-.3-.051c-.639,0-1.279,0-1.918,0a.583.583,0,0,0-.664.668c0,1.353,0,2.705,0,4.058a.6.6,0,0,0,.312.542c.073.045.159.1.223,0a.655.655,0,0,0,.167.048q.893.005,1.786,0a.941.941,0,0,0,.192-.028c.07-.016.138-.038.207-.057m-6.777-2.938c.015-.019.031-.038.048-.057.185.264.365.534.558.793.362.488.733.969,1.1,1.456.154.206.3.418.454.624a.6.6,0,0,0,.133.1l.032.019a.048.048,0,0,1,.026.007c.019.017.038.035.056.053a.509.509,0,0,0,.41-.029l.027-.02.03-.009.028-.021.183-.241.042-.024-.042-.036c0-.01,0-.019,0-.029.1,0,.088-.061.079-.125s-.006-.106-.006-.16q0-1.891,0-3.781a3.105,3.105,0,0,0-.016-.346.542.542,0,0,0-.736-.435.569.569,0,0,0-.363.6c0,.775,0,1.551,0,2.327v.147c-.294-.355-.557-.713-.819-1.07-.435-.594-.875-1.183-1.3-1.782a.643.643,0,0,0-.644-.231.571.571,0,0,0-.383.567c0,.247,0,.494,0,.742l0,3.344-.073.052.073.066.151.329a.023.023,0,0,0,.017.019l.183.115.089.036h.206c.079.056.083,0,.086-.058a.721.721,0,0,0,.171-.073.532.532,0,0,0,.213-.368l.048-.038-.048-.051Z" transform="translate(-2.202 -2.461)" fill="#ed831b"/>
  </g>
</svg>
