<svg id="ic-lock" xmlns="http://www.w3.org/2000/svg" width="25" height="25" viewBox="0 0 25 25">
  <g id="Group_134" data-name="Group 134">
    <path id="Path_165" data-name="Path 165" d="M0,0H25V25H0Z" fill="none"/>
    <path id="Path_166" data-name="Path 166" d="M0,0H25V25H0Z" fill="none" opacity="0.87"/>
  </g>
  <path id="Path_167" data-name="Path 167" d="M18.483,8.277H17.449V6.2A5.173,5.173,0,1,0,7.1,6.2V8.277H6.069A2.08,2.08,0,0,0,4,10.357v10.4a2.08,2.08,0,0,0,2.069,2.079H18.483a2.08,2.08,0,0,0,2.069-2.079v-10.4A2.08,2.08,0,0,0,18.483,8.277ZM9.173,6.2a3.1,3.1,0,1,1,6.207,0V8.277H9.173Zm9.311,14.555H6.069v-10.4H18.483Zm-6.207-3.119a2.079,2.079,0,1,0-2.069-2.079A2.08,2.08,0,0,0,12.276,17.634Z" transform="translate(0.224 0.056)" fill="#707070"/>
</svg>
