<svg id="ic-locate" xmlns="http://www.w3.org/2000/svg" width="34" height="34" viewBox="0 0 34 34">
  <path id="Path_31" data-name="Path 31" d="M0,0H34V34H0Z" fill="none"/>
  <path id="Path_32" data-name="Path 32" d="M15.7,10.357A5.347,5.347,0,1,0,21.05,15.7,5.345,5.345,0,0,0,15.7,10.357Zm11.95,4.01A12.023,12.023,0,0,0,17.04,3.754V1H14.367V3.754A12.023,12.023,0,0,0,3.754,14.367H1V17.04H3.754A12.023,12.023,0,0,0,14.367,27.654v2.754H17.04V27.654A12.023,12.023,0,0,0,27.654,17.04h2.754V14.367H27.654ZM15.7,25.061A9.357,9.357,0,1,1,25.061,15.7,9.35,9.35,0,0,1,15.7,25.061Z" transform="translate(1 1)" fill="#ed831b"/>
</svg>
