<svg xmlns="http://www.w3.org/2000/svg" width="72" height="72" viewBox="0 0 72 72">
  <g id="ic-message" transform="translate(0)">
    <path id="Path_147" data-name="Path 147" d="M0,0H72V72H0Z" transform="translate(0)" fill="none"/>
    <path id="Path_148" data-name="Path 148" d="M41.01,8V29.007h-29.5l-1.77,1.77L8,32.518V8H41.01m3-6H5A3.01,3.01,0,0,0,2,5V47.012l12-12H44.011a3.01,3.01,0,0,0,3-3V5A3.01,3.01,0,0,0,44.011,2Zm15,12h-6V41.01H14v6a3.01,3.01,0,0,0,3,3H50.012l12,12V17A3.01,3.01,0,0,0,59.015,14Z" transform="translate(4.081 4.081)" fill="#ed831b"/>
  </g>
</svg>
