<svg xmlns="http://www.w3.org/2000/svg" width="24" height="24" viewBox="0 0 24 24">
  <g id="ic-material-box" transform="translate(-1692 -432)">
    <rect id="Rectangle_264" data-name="Rectangle 264" width="24" height="24" transform="translate(1692 432)" fill="none"/>
    <path id="box-seam" d="M10.053,1.349a.614.614,0,0,0-.457,0L2.267,4.281l2.952,1.18,7.557-3.022L10.053,1.349ZM14.429,3.1,6.872,6.123,9.824,7.3l7.557-3.022Zm3.991,2.088L10.438,8.381V18.11l7.982-3.193V5.189ZM9.21,18.111V8.38L1.228,5.188v9.73L9.21,18.111ZM9.14.208a1.842,1.842,0,0,1,1.368,0l8.755,3.5a.614.614,0,0,1,.386.57V14.918a1.228,1.228,0,0,1-.772,1.14l-8.823,3.529a.614.614,0,0,1-.457,0L.774,16.058A1.228,1.228,0,0,1,0,14.918V4.281a.614.614,0,0,1,.385-.57Z" transform="translate(1694 433.923)" fill="#333"/>
  </g>
</svg>
