<svg id="ic-map" xmlns="http://www.w3.org/2000/svg" width="20" height="20" viewBox="0 0 20 20">
  <path id="Path_452" data-name="Path 452" d="M0,0H20V20H0Z" fill="none"/>
  <path id="Path_453" data-name="Path 453" d="M19.528,3l-.151.028L14.333,4.983,8.667,3,3.34,4.794A.476.476,0,0,0,3,5.248v14.28A.468.468,0,0,0,3.472,20l.151-.028,5.043-1.955L14.333,20l5.327-1.794a.476.476,0,0,0,.34-.453V3.472A.468.468,0,0,0,19.528,3ZM9.611,5.333l3.778,1.322V17.667L9.611,16.345Zm-4.722.935,2.833-.954v11.05l-2.833,1.1ZM18.111,16.732l-2.833.954V6.646l2.833-1.1Z" transform="translate(-1 -1)" fill="#333"/>
</svg>
