<svg xmlns="http://www.w3.org/2000/svg" xmlns:xlink="http://www.w3.org/1999/xlink" width="26" height="26" viewBox="0 0 26 26">
  <defs>
    <clipPath id="clip-path">
      <rect id="Rectangle_148" data-name="Rectangle 148" width="14.614" height="12.147" fill="none"/>
    </clipPath>
  </defs>
  <g id="ic-monitor" transform="translate(-242 -368.5)">
    <circle id="Ellipse_17" data-name="Ellipse 17" cx="13" cy="13" r="13" transform="translate(242 368.5)" fill="#f7b52c"/>
    <g id="Group_185" data-name="Group 185" transform="translate(248 373.727)">
      <g id="Group_184" data-name="Group 184" transform="translate(0 0)" clip-path="url(#clip-path)">
        <path id="Path_231" data-name="Path 231" d="M14.539,11.017a.189.189,0,0,1-.117.04.2.2,0,0,1-.05-.007l-2.129-.574v1.479a.193.193,0,0,1-.192.192H.192A.193.193,0,0,1,0,11.954V5.321a.193.193,0,0,1,.192-.192H3.5L5.227.38a.577.577,0,1,1,1.084.4L4.723,5.128H12.05a.193.193,0,0,1,.192.192V6.735l2.129-.574a.192.192,0,0,1,.243.185v4.519a.194.194,0,0,1-.076.153" transform="translate(0 0)" fill="#fff"/>
      </g>
    </g>
  </g>
</svg>
