<svg id="ic-mobile-link" xmlns="http://www.w3.org/2000/svg" width="32" height="32" viewBox="0 0 32 32">
  <path id="Path_110" data-name="Path 110" d="M0,0H32V32H0Z" fill="none"/>
  <path id="Path_111" data-name="Path 111" d="M24.449,1H11A2.689,2.689,0,0,0,8.313,3.673V7.682H11V5.009H24.449V26.39H11V23.717H8.313v4.009A2.689,2.689,0,0,0,11,30.4H24.449a2.689,2.689,0,0,0,2.689-2.673V3.673A2.689,2.689,0,0,0,24.449,1ZM8.327,17.664,4.9,14.256l-1.708,1.7,5.123,5.091,9.668-9.608-1.708-1.7L8.327,17.664Z" transform="translate(0.959 0.301)" fill="#ed831b"/>
</svg>
