<svg xmlns="http://www.w3.org/2000/svg" xmlns:xlink="http://www.w3.org/1999/xlink" width="28.035" height="28" viewBox="0 0 28.035 28">
  <defs>
    <clipPath id="clip-path">
      <rect id="Rectangle_168" data-name="Rectangle 168" width="28.035" height="28" fill="#d5d5d5"/>
    </clipPath>
  </defs>
  <g id="ic-nowater-none" transform="translate(0 0)">
    <g id="Group_206" data-name="Group 206" transform="translate(0 0)" clip-path="url(#clip-path)">
      <path id="Path_258" data-name="Path 258" d="M27.267,13.929v.053a13.341,13.341,0,0,1-.146,1.974l.76.115a14.2,14.2,0,0,0,.155-2.089v-.057l-.768,0Zm-.6-3.9a13.122,13.122,0,0,1,.446,1.928l.76-.117A13.9,13.9,0,0,0,27.4,9.8ZM24.939,6.479a13.2,13.2,0,0,1,1,1.709l.69-.336a13.985,13.985,0,0,0-1.055-1.808Zm-2.7-2.884A13.282,13.282,0,0,1,23.7,4.937l.561-.524a14.037,14.037,0,0,0-1.54-1.42ZM18.818,1.629a13.133,13.133,0,0,1,1.787.855l.382-.667a13.99,13.99,0,0,0-1.89-.9ZM14.966.766a13.109,13.109,0,0,1,1.958.287L17.092.3A14.075,14.075,0,0,0,15.019,0Zm-3.937.305a13.22,13.22,0,0,1,1.957-.3L12.926.006a13.91,13.91,0,0,0-2.069.316l.172.747ZM7.362,2.523A13.145,13.145,0,0,1,9.14,1.659L8.858.945a13.886,13.886,0,0,0-1.882.914ZM4.283,4.993A13.47,13.47,0,0,1,5.73,3.643l-.48-.6A14.13,14.13,0,0,0,3.719,4.472ZM2.063,8.26a13.177,13.177,0,0,1,.988-1.716l-.636-.431A13.888,13.888,0,0,0,1.371,7.928ZM.909,12.035a13.1,13.1,0,0,1,.435-1.93L.609,9.879a14.085,14.085,0,0,0-.46,2.044Zm.008,3.949A13.491,13.491,0,0,1,.767,14.01H0A14.312,14.312,0,0,0,.158,16.1Zm1.169,3.769a13.031,13.031,0,0,1-.727-1.841l-.733.227A13.786,13.786,0,0,0,1.4,20.087Zm2.23,3.256A13.317,13.317,0,0,1,3.08,21.464l-.634.434a14.271,14.271,0,0,0,1.309,1.634Zm3.089,2.459A13.392,13.392,0,0,1,5.77,24.353l-.478.6a14.205,14.205,0,0,0,1.731,1.18l.383-.667Zm3.678,1.439a13.114,13.114,0,0,1-1.893-.581l-.28.716a14.014,14.014,0,0,0,2,.614Zm3.938.289q-.5.037-1,.037-.491,0-.976-.035l-.055.766Q13.5,28,14.017,28t1.062-.04l-.057-.766Zm3.848-.88a13.19,13.19,0,0,1-1.891.585l.171.748a13.871,13.871,0,0,0,2-.618Zm3.414-1.977a13.331,13.331,0,0,1-1.633,1.117l.385.664a14.1,14.1,0,0,0,1.727-1.182Zm2.686-2.9a13.442,13.442,0,0,1-1.235,1.548l.562.522A13.983,13.983,0,0,0,25.6,21.876Zm1.714-3.557a13.044,13.044,0,0,1-.724,1.843l.692.333a13.911,13.911,0,0,0,.766-1.949Z" transform="translate(0 0)" fill="#d5d5d5"/>
      <path id="Path_259" data-name="Path 259" d="M22.139,18.548l-3.515-2.716c.013-.141.027-.283.027-.427,0-2.829-2.526-3.882-3.716-7.892a.768.768,0,0,0-1.478,0,12.142,12.142,0,0,1-1.481,3.18L7.247,7.039a.4.4,0,0,0-.568.071l-.5.639a.406.406,0,0,0,.072.569L21.145,19.827a.405.405,0,0,0,.568-.071l.5-.64a.4.4,0,0,0-.072-.568m-12.4-3.143A4.478,4.478,0,0,0,14.2,19.912a4.4,4.4,0,0,0,2.946-1.131l-6.927-5.354a4.4,4.4,0,0,0-.474,1.978" transform="translate(0.146 0.166)" fill="#d5d5d5"/>
    </g>
  </g>
</svg>
