<svg id="ic-news-report" xmlns="http://www.w3.org/2000/svg" width="46" height="46" viewBox="0 0 46 46">
  <g id="Group_150" data-name="Group 150" transform="translate(0)">
    <rect id="Rectangle_127" data-name="Rectangle 127" width="46" height="46" fill="none"/>
  </g>
  <g id="Group_151" data-name="Group 151" transform="translate(4.023 6.035)">
    <path id="Path_186" data-name="Path 186" d="M39.954,3,36.784,6.148,33.634,3,30.465,6.148,27.3,3l-3.15,3.148L20.977,3,17.808,6.148,14.658,3,11.488,6.148,8.319,3,5.169,6.148,2,3V33.16a3.794,3.794,0,0,0,3.8,3.77H36.158a3.794,3.794,0,0,0,3.8-3.77ZM19.079,33.16H5.8V21.85H19.079Zm17.079,0H22.874V29.39H36.158Zm0-7.54H22.874V21.85H36.158Zm0-7.54H5.8V12.425H36.158Z" transform="translate(-2 -3)" fill="#ed831b"/>
  </g>
</svg>
