<svg xmlns="http://www.w3.org/2000/svg" width="24" height="24" viewBox="0 0 24 24">
  <g id="ic-noflat" transform="translate(-7952 -2919)">
    <path id="ic-noflat-2" data-name="ic-noflat" d="M10.284,1.648a1.294,1.294,0,0,0-2.244,0L.189,15.007A1.336,1.336,0,0,0,1.311,17.03h15.7a1.336,1.336,0,0,0,1.122-2.023ZM9.16,5.58a1.035,1.035,0,0,1,1.03,1.139l-.4,4.015a.632.632,0,0,1-1.259,0l-.4-4.015A1.036,1.036,0,0,1,9.16,5.58Zm0,6.87a1.145,1.145,0,1,1-.809.335,1.145,1.145,0,0,1,.809-.335Z" transform="translate(7954.001 2922.001)" fill="#b6b6b6"/>
    <rect id="Rectangle_290" data-name="Rectangle 290" width="24" height="24" transform="translate(7952 2919)" fill="none"/>
  </g>
</svg>
