<svg xmlns="http://www.w3.org/2000/svg" width="20" height="20" viewBox="0 0 20 20">
  <g id="ic-object" transform="translate(-8952 -202)">
    <rect id="Rectangle_263" data-name="Rectangle 263" width="20" height="20" transform="translate(8952 202)" fill="none"/>
    <g id="building-gear" transform="translate(8951 202)">
      <path id="Path_318" data-name="Path 318" d="M2,1.25A1.25,1.25,0,0,1,3.25,0h12.5A1.25,1.25,0,0,1,17,1.25V9.375a.625.625,0,0,1-1.25,0V1.25H3.25v17.5H7V15.625A.625.625,0,0,1,7.625,15H9.5v5H3.25A1.25,1.25,0,0,1,2,18.75Z" fill="#333"/>
      <path id="Path_319" data-name="Path 319" d="M4.625,2A.625.625,0,0,0,4,2.625v1.25a.625.625,0,0,0,.625.625h1.25A.625.625,0,0,0,6.5,3.875V2.625A.625.625,0,0,0,5.875,2Zm3.75,0a.625.625,0,0,0-.625.625v1.25a.625.625,0,0,0,.625.625h1.25a.625.625,0,0,0,.625-.625V2.625A.625.625,0,0,0,9.625,2Zm3.75,0a.625.625,0,0,0-.625.625v1.25a.625.625,0,0,0,.625.625h1.25A.625.625,0,0,0,14,3.875V2.625A.625.625,0,0,0,13.375,2Zm-7.5,3.75A.625.625,0,0,0,4,6.375v1.25a.625.625,0,0,0,.625.625h1.25A.625.625,0,0,0,6.5,7.625V6.375a.625.625,0,0,0-.625-.625Zm3.75,0a.625.625,0,0,0-.625.625v1.25a.625.625,0,0,0,.625.625h1.25a.625.625,0,0,0,.625-.625V6.375a.625.625,0,0,0-.625-.625Zm3.75,0a.625.625,0,0,0-.625.625v1.25a.625.625,0,0,0,.625.625h1.25A.625.625,0,0,0,14,7.625V6.375a.625.625,0,0,0-.625-.625ZM4.625,9.5A.625.625,0,0,0,4,10.125v1.25A.625.625,0,0,0,4.625,12h1.25a.625.625,0,0,0,.625-.625v-1.25A.625.625,0,0,0,5.875,9.5Zm3.75,0a.625.625,0,0,0-.625.625v1.25A.625.625,0,0,0,8.375,12h1.25a.625.625,0,0,0,.625-.625v-1.25A.625.625,0,0,0,9.625,9.5Zm5.483,1.825a.8.8,0,0,1,1.536,0l.054.185a.8.8,0,0,0,1.151.477l.17-.092a.8.8,0,0,1,1.088,1.086l-.094.17a.8.8,0,0,0,.477,1.15l.186.056a.8.8,0,0,1,0,1.536l-.187.054a.8.8,0,0,0-.475,1.151l.093.17a.8.8,0,0,1-1.087,1.088l-.17-.094a.8.8,0,0,0-1.15.477l-.056.186a.8.8,0,0,1-1.536,0l-.054-.187a.8.8,0,0,0-1.151-.475l-.17.092a.8.8,0,0,1-1.088-1.087l.094-.17a.8.8,0,0,0-.477-1.15l-.185-.056a.8.8,0,0,1,0-1.536l.185-.054a.8.8,0,0,0,.477-1.151l-.092-.17a.8.8,0,0,1,1.086-1.088l.17.094a.8.8,0,0,0,1.15-.477l.056-.185Zm2.642,3.8A1.875,1.875,0,1,0,14.625,17,1.875,1.875,0,0,0,16.5,15.125Z" transform="translate(0.5 0.5)" fill="#333"/>
    </g>
  </g>
</svg>
