<svg xmlns="http://www.w3.org/2000/svg" xmlns:xlink="http://www.w3.org/1999/xlink" width="26" height="26" viewBox="0 0 26 26">
  <defs>
    <clipPath id="clip-path">
      <rect id="Rectangle_138" data-name="Rectangle 138" width="20.588" height="9.629" fill="none"/>
    </clipPath>
  </defs>
  <g id="ic-panorama" transform="translate(-242 -326.5)">
    <circle id="Ellipse_16" data-name="Ellipse 16" cx="13" cy="13" r="13" transform="translate(242 326.5)" fill="#ffaeae"/>
    <g id="Group_166" data-name="Group 166" transform="translate(244.706 335.685)">
      <g id="Group_165" data-name="Group 165" transform="translate(0 0)" clip-path="url(#clip-path)">
        <path id="Path_213" data-name="Path 213" d="M20.286.644H16.72V.3a.3.3,0,0,0-.6,0V.644H12.55a.3.3,0,0,0,0,.6h3.566v.412a.949.949,0,0,0-.644.9V2.9h-1.7a.948.948,0,0,0-.9-.645H7.716a.949.949,0,0,0-.9.645h-1.7V2.558a.949.949,0,0,0-.645-.9V1.249H8.038a.3.3,0,1,0,0-.6H4.472V.3a.3.3,0,1,0-.6,0V.644H.3a.3.3,0,1,0,0,.6H3.868v.412a.949.949,0,0,0-.645.9V3.848a.947.947,0,0,0,1.894,0V3.5h1.7a.949.949,0,0,0,.9.645h.342V5.16a1.268,1.268,0,0,0-1.141.958L6.19,9.024H5.781a.3.3,0,0,0,0,.6H7.071a.3.3,0,1,0,0-.6H6.813l.69-2.76a.663.663,0,0,1,.605-.5.948.948,0,0,0,.9.643h2.579a.95.95,0,0,0,.9-.643.662.662,0,0,1,.6.5l.69,2.76h-.258a.3.3,0,0,0,0,.6h1.289a.3.3,0,0,0,0-.6H14.4l-.727-2.906A1.268,1.268,0,0,0,12.53,5.16V4.15h.342a.948.948,0,0,0,.9-.645h1.7v.343a.947.947,0,0,0,1.893,0V2.558a.949.949,0,0,0-.644-.9V1.249h3.566a.3.3,0,0,0,0-.6" transform="translate(0 0)" fill="#fff"/>
      </g>
    </g>
  </g>
</svg>
