<svg id="ic-photo-setting" xmlns="http://www.w3.org/2000/svg" width="28" height="28" viewBox="0 0 28 28">
  <path id="Path_394" data-name="Path 394" d="M0,0H28V28H0Z" fill="none"/>
  <path id="Path_395" data-name="Path 395" d="M23.6,4.4V18.8H9.2V4.4H23.6m0-2.4H9.2A2.407,2.407,0,0,0,6.8,4.4V18.8a2.407,2.407,0,0,0,2.4,2.4H23.6A2.407,2.407,0,0,0,26,18.8V4.4A2.407,2.407,0,0,0,23.6,2ZM13.4,13.6l2.028,2.712L18.4,12.6l4,5h-12ZM2,6.8V23.6A2.407,2.407,0,0,0,4.4,26H21.2V23.6H4.4V6.8Z" fill="#ed831b"/>
</svg>
