<svg xmlns="http://www.w3.org/2000/svg" width="34" height="34" viewBox="0 0 34 34">
  <g id="ic-pin" transform="translate(1)">
    <path id="Path_26" data-name="Path 26" d="M0,0H34V34H0Z" transform="translate(-1)" fill="none"/>
    <path id="Path_27" data-name="Path 27" d="M14.333,4.667A6.649,6.649,0,0,1,21,11.533c0,2.88-2.293,6.227-6.667,9.76C9.96,17.76,7.667,14.4,7.667,11.533a6.649,6.649,0,0,1,6.667-6.867m0-2.667A9.291,9.291,0,0,0,5,11.533q0,6.24,9.333,13.133,9.34-6.88,9.333-13.133A9.291,9.291,0,0,0,14.333,2Z" transform="translate(1.667 0.667)" fill="#ed831b"/>
    <path id="Path_28" data-name="Path 28" d="M14.333,7A2.667,2.667,0,1,0,17,9.667,2.675,2.675,0,0,0,14.333,7ZM5,24.333H23.667V27H5Z" transform="translate(1.667 2.333)" fill="#ed831b"/>
  </g>
</svg>
