<svg xmlns="http://www.w3.org/2000/svg" xmlns:xlink="http://www.w3.org/1999/xlink" width="28" height="28" viewBox="0 0 28 28">
  <defs>
    <clipPath id="clip-path">
      <rect id="Rectangle_164" data-name="Rectangle 164" width="28" height="28" fill="none"/>
    </clipPath>
  </defs>
  <g id="ic-poison" transform="translate(0 0)">
    <g id="Group_198" data-name="Group 198" transform="translate(0 0)" clip-path="url(#clip-path)">
      <path id="Path_250" data-name="Path 250" d="M28,14A14,14,0,1,1,14,0,14,14,0,0,1,28,14" transform="translate(0 0.001)" fill="#b873d8"/>
      <path id="Path_251" data-name="Path 251" d="M20.549,18.989l-4.543-2.21,4.543-2.209a.512.512,0,0,0,.229-.687l-.458-.916a.512.512,0,0,0-.687-.229l-5.968,2.9L7.7,12.739a.512.512,0,0,0-.687.229l-.458.916a.512.512,0,0,0,.229.687l4.543,2.209-4.543,2.21a.511.511,0,0,0-.228.687l.457.916a.512.512,0,0,0,.688.229l5.967-2.9,5.968,2.9a.512.512,0,0,0,.687-.229l.457-.916a.511.511,0,0,0-.228-.687m-9.251-6.9-.175.827a.622.622,0,0,0,.526.795h4.033a.624.624,0,0,0,.527-.795l-.176-.827a4.016,4.016,0,0,0,2.239-3.5,4.374,4.374,0,0,0-4.607-4.1,4.374,4.374,0,0,0-4.607,4.1,4.016,4.016,0,0,0,2.239,3.5m4.159-4.008A1.024,1.024,0,1,1,14.434,9.1a1.025,1.025,0,0,1,1.024-1.024m-3.583,0A1.024,1.024,0,1,1,10.851,9.1a1.025,1.025,0,0,1,1.024-1.024" transform="translate(0.334 0.231)" fill="#fff"/>
    </g>
  </g>
</svg>
