<svg id="ic-pin-function" xmlns="http://www.w3.org/2000/svg" width="14" height="14" viewBox="0 0 14 14">
  <path id="Path_26" data-name="Path 26" d="M0,0H14V14H0Z" fill="none"/>
  <path id="Path_27" data-name="Path 27" d="M9.9,3.4a3.492,3.492,0,0,1,3.5,3.606c0,1.512-1.2,3.27-3.5,5.125-2.3-1.855-3.5-3.62-3.5-5.125A3.492,3.492,0,0,1,9.9,3.4M9.9,2A4.879,4.879,0,0,0,5,7.006q0,3.277,4.9,6.9,4.906-3.613,4.9-6.9A4.879,4.879,0,0,0,9.9,2Z" transform="translate(-2.902 -2)" fill="#ed831b"/>
  <path id="Path_28" data-name="Path 28" d="M9.9,7a1.4,1.4,0,1,0,1.4,1.4A1.4,1.4,0,0,0,9.9,7ZM5,16.089h9.805v1.4H5Z" transform="translate(-2.902 -3.488)" fill="#ed831b"/>
</svg>
