<svg xmlns="http://www.w3.org/2000/svg" xmlns:xlink="http://www.w3.org/1999/xlink" width="18" height="18" viewBox="0 0 18 18">
  <defs>
    <clipPath id="clip-path">
      <rect id="Rectangle_227" data-name="Rectangle 227" width="18" height="18" fill="#ed831b"/>
    </clipPath>
  </defs>
  <g id="ic-plan" transform="translate(0 0)">
    <g id="Group_301" data-name="Group 301" transform="translate(0 0)" clip-path="url(#clip-path)">
      <path id="Path_390" data-name="Path 390" d="M0,15.68V2.32a.383.383,0,0,0,.032-.078A2.7,2.7,0,0,1,1.986.087C2.1.052,2.209.028,2.32,0h.422A.5.5,0,0,1,3,.509C2.99,1.024,3,1.54,3,2.055V2.25h.2q7.126,0,14.25,0A.562.562,0,0,1,18,2.5V18H2.32a.463.463,0,0,0-.077-.033A2.693,2.693,0,0,1,.088,16.014C.052,15.9.029,15.791,0,15.68M3,3v.237Q3,8.147,3,13.06a.382.382,0,0,1-.422.441A1.825,1.825,0,0,0,.8,15.791a1.78,1.78,0,0,0,1.9,1.46q7.171,0,14.342,0c.164,0,.22-.038.22-.211q-.008-6.908-.005-13.815c0-.233,0-.233-.24-.233H3" transform="translate(0 0)" fill="#ed831b"/>
      <path id="Path_391" data-name="Path 391" d="M12.768,15.716c0-.136,0-.253,0-.369a.368.368,0,0,1,.379-.375.361.361,0,0,1,.367.368c.006.117,0,.233,0,.363h2.228V11.976c-.053,0-.1-.009-.156-.009-.627,0-1.253,0-1.881-.005-.159,0-.2.048-.193.2.011.3.006.6,0,.9a.368.368,0,0,1-.364.408.376.376,0,0,1-.383-.41c0-.469,0-.937,0-1.406a.384.384,0,0,1,.433-.433q1.178,0,2.355,0h.186V5.984H13.517v.19q0,1.555,0,3.111c0,.259-.127.413-.343.427a.374.374,0,0,1-.4-.421c0-.8,0-1.593,0-2.391V5.982H9.763v2.24h.682c.152,0,.3-.005.457,0a.371.371,0,0,1,.015.741q-.782.012-1.564,0a.363.363,0,0,1-.347-.406Q9,7.371,9,6.184v-.2H6.019V10.46c.05,0,.1.01.15.01q1.582,0,3.164-.005a.383.383,0,0,1,.426.4q0,.7-.009,1.405c0,.271-.142.442-.365.446s-.38-.171-.381-.449c0-.344,0-.689,0-1.044H6.018V15.7H9v-.514c0-.187,0-.374,0-.562a.374.374,0,1,1,.745,0c0,.293,0,.586,0,.879v.208c.124,0,.227,0,.331,0a.384.384,0,0,1,.422.373.379.379,0,0,1-.419.375q-1.687,0-3.374,0H5.728c-.35,0-.477-.127-.477-.477q0-3.234,0-6.469v-3.8c0-.383.123-.507.5-.507H15.966c.431,0,.537.117.537.539,0,1.939.006,3.878.006,5.818q0,2.249-.009,4.5c0,.263-.146.393-.43.394-.838,0-1.676,0-2.513,0-.369,0-.737,0-1.106,0-.272,0-.432-.146-.427-.379a.379.379,0,0,1,.422-.371c.1,0,.2,0,.324,0" transform="translate(-0.743 -0.738)" fill="#ed831b"/>
    </g>
  </g>
</svg>
