<svg xmlns="http://www.w3.org/2000/svg" xmlns:xlink="http://www.w3.org/1999/xlink" width="20" height="20.5" viewBox="0 0 20 20.5">
  <defs>
    <clipPath id="clip-path">
      <rect id="Rectangle_149" data-name="Rectangle 149" width="18" height="20" transform="translate(-0.318 -0.078)" fill="#333"/>
    </clipPath>
  </defs>
  <g id="ic-prevention" transform="translate(-69 -461.5)">
    <g id="Group_187" data-name="Group 187" transform="translate(70.318 461.578)">
      <g id="Group_186" data-name="Group 186" transform="translate(0 0)" clip-path="url(#clip-path)">
        <path id="Path_232" data-name="Path 232" d="M16.821,1.021,10.31,2.106c-.439.073-.388.522-.388.685H7.661a2.17,2.17,0,1,0-4.1.162A5.2,5.2,0,0,0,.067,6.475a.931.931,0,0,0,1.728.692C2.91,4.379,4.146,4.651,6.511,4.651V5.7A3.772,3.772,0,0,0,3.721,9.349v9.565a.931.931,0,0,0,.93.93h5.581a.931.931,0,0,0,.93-.93V9.3A3.721,3.721,0,0,0,8.372,5.7V4.651h1.55c0,.115-.066.609.388.685l6.511,1.085a.465.465,0,0,0,.542-.459V1.48a.465.465,0,0,0-.542-.459M5.581,2.791a.62.62,0,1,1,.62-.62.62.62,0,0,1-.62.62" transform="translate(0 0)" fill="#333"/>
      </g>
    </g>
    <rect id="Rectangle_265" data-name="Rectangle 265" width="20" height="20" transform="translate(69 462)" fill="none"/>
  </g>
</svg>
