<svg id="ic-photo-list" xmlns="http://www.w3.org/2000/svg" width="20" height="20" viewBox="0 0 20 20">
  <g id="Group_304" data-name="Group 304">
    <path id="Path_392" data-name="Path 392" d="M0,0H20V20H0Z" fill="none"/>
  </g>
  <g id="Group_306" data-name="Group 306" transform="translate(3 3)">
    <g id="Group_305" data-name="Group 305">
      <path id="Path_393" data-name="Path 393" d="M12.333,3H4.556A1.553,1.553,0,0,0,3.008,4.556L3,15.444A1.553,1.553,0,0,0,4.548,17h10.9A1.56,1.56,0,0,0,17,15.444V7.667ZM4.556,15.444V4.556h7V8.444h3.889v7ZM7.667,6.889a.778.778,0,1,1-.778-.778A.78.78,0,0,1,7.667,6.889Zm0,3.111a.778.778,0,1,1-.778-.778A.78.78,0,0,1,7.667,10Zm0,3.111a.778.778,0,1,1-.778-.778A.78.78,0,0,1,7.667,13.111Z" transform="translate(-3 -3)" fill="#333"/>
    </g>
  </g>
</svg>
