<svg id="ic-qa" xmlns="http://www.w3.org/2000/svg" width="46" height="46" viewBox="0 0 46 46">
  <path id="Path_187" data-name="Path 187" d="M0,0H46V46H0Z" transform="translate(0)" fill="none"/>
  <path id="Path_188" data-name="Path 188" d="M26.679,5.8V19.086H8.018L6.9,20.206l-1.1,1.1V5.8H26.679m1.9-3.8H3.9A1.9,1.9,0,0,0,2,3.9V30.476l7.594-7.594H28.578a1.9,1.9,0,0,0,1.9-1.9V3.9A1.9,1.9,0,0,0,28.578,2ZM38.07,9.594h-3.8V26.679H9.594v3.8a1.9,1.9,0,0,0,1.9,1.9H32.374l7.594,7.594V11.492A1.9,1.9,0,0,0,38.07,9.594Z" transform="translate(2.016 2.016)" fill="#ed831b"/>
</svg>
