<svg id="ic-reference" xmlns="http://www.w3.org/2000/svg" width="46" height="46" viewBox="0 0 46 46">
  <g id="Group_145" data-name="Group 145" transform="translate(0)">
    <rect id="Rectangle_124" data-name="Rectangle 124" width="46" height="46" fill="none"/>
  </g>
  <g id="Group_146" data-name="Group 146" transform="translate(1.895 4.736)">
    <path id="Path_180" data-name="Path 180" d="M42.194,9.533a20.264,20.264,0,0,0-2.82-1.172V31.48a19.711,19.711,0,0,0-6.715-1.192,20.309,20.309,0,0,0-10.553,3.036V10.071A20.937,20.937,0,0,0,2.017,9.533,1.87,1.87,0,0,0,1,11.224V34.439a1.9,1.9,0,0,0,1.919,1.9,2.041,2.041,0,0,0,.921-.231,16.659,16.659,0,0,1,7.713-1.979,17.336,17.336,0,0,1,10.553,3.844,17.336,17.336,0,0,1,10.553-3.844,16.445,16.445,0,0,1,7.713,2,2.041,2.041,0,0,0,.921.231,1.909,1.909,0,0,0,1.919-1.9V11.224A1.87,1.87,0,0,0,42.194,9.533ZM18.268,31.48a19.52,19.52,0,0,0-13.431,0V12.434a17.1,17.1,0,0,1,13.431.019ZM35.537.5l-9.593,9.609V28.366l9.593-8.648Z" transform="translate(-1 -0.5)" fill="#ed831b"/>
  </g>
</svg>
