<svg xmlns="http://www.w3.org/2000/svg" xmlns:xlink="http://www.w3.org/1999/xlink" width="14" height="14" viewBox="0 0 14 14">
  <defs>
    <clipPath id="clip-path">
      <rect id="Rectangle_6" data-name="Rectangle 6" width="14" height="14" transform="translate(0.43)" fill="#ed831b"/>
    </clipPath>
  </defs>
  <g id="ic-setting" transform="translate(-0.43)">
    <g id="Group_15" data-name="Group 15" clip-path="url(#clip-path)">
      <path id="Path_13" data-name="Path 13" d="M12.432,6.878a2.342,2.342,0,0,1,1.323-2,7.232,7.232,0,0,0-.566-1.369,2.214,2.214,0,0,1-2.22-.722A2.14,2.14,0,0,1,10.41.567,7.219,7.219,0,0,0,9.041,0,2.592,2.592,0,0,1,6.878,1.323,2.592,2.592,0,0,1,4.714,0,7.232,7.232,0,0,0,3.345.566a2.141,2.141,0,0,1-.559,2.22,2.216,2.216,0,0,1-2.22.723A7.22,7.22,0,0,0,0,4.878a2.342,2.342,0,0,1,1.323,2A2.592,2.592,0,0,1,0,9.041,7.229,7.229,0,0,0,.566,10.41a2.141,2.141,0,0,1,2.22.559,2.141,2.141,0,0,1,.559,2.22,7.208,7.208,0,0,0,1.369.566,2.593,2.593,0,0,1,2.163-1.323,2.592,2.592,0,0,1,2.164,1.323,7.215,7.215,0,0,0,1.369-.567,2.14,2.14,0,0,1,.559-2.219,2.215,2.215,0,0,1,2.22-.723,7.229,7.229,0,0,0,.566-1.369,2.342,2.342,0,0,1-1.323-2M6.878,9.869A2.991,2.991,0,1,1,9.868,6.878,2.991,2.991,0,0,1,6.878,9.869" fill="#ed831b"/>
    </g>
  </g>
</svg>
