<svg id="ic-safe-info" xmlns="http://www.w3.org/2000/svg" width="30" height="30" viewBox="0 0 30 30">
  <g id="Group_288" data-name="Group 288">
    <rect id="Rectangle_216" data-name="Rectangle 216" width="30" height="30" fill="none"/>
  </g>
  <g id="Group_290" data-name="Group 290" transform="translate(2.5 3.75)">
    <g id="Group_289" data-name="Group 289">
      <path id="Path_347" data-name="Path 347" d="M24.5,3H4.5A2.507,2.507,0,0,0,2,5.5V23a2.507,2.507,0,0,0,2.5,2.5h20A2.507,2.507,0,0,0,27,23V5.5A2.507,2.507,0,0,0,24.5,3Zm0,20H4.5V5.5h20Z" transform="translate(-2 -3)" fill="#ed831b" fill-rule="evenodd"/>
      <path id="Path_348" data-name="Path 348" d="M21.263,10.775,19.487,9l-3.962,3.962-1.762-1.775L12,12.95l3.525,3.55Z" transform="translate(0.5 -1.5)" fill="#ed831b" fill-rule="evenodd"/>
      <rect id="Rectangle_217" data-name="Rectangle 217" width="7" height="2" transform="translate(3.5 5.25)" fill="#ed831b"/>
      <rect id="Rectangle_218" data-name="Rectangle 218" width="7" height="2" transform="translate(3.5 10.25)" fill="#ed831b"/>
      <rect id="Rectangle_219" data-name="Rectangle 219" width="7" height="2" transform="translate(3.5 15.25)" fill="#ed831b"/>
    </g>
  </g>
</svg>
