<svg xmlns="http://www.w3.org/2000/svg" width="46" height="46" viewBox="0 0 46 46">
  <g id="ic-save-position-primary" transform="translate(-250 -378)">
    <g id="Ellipse_35" data-name="Ellipse 35" transform="translate(250 378)" fill="#fff" stroke="#ed831b" stroke-width="1">
      <circle cx="23" cy="23" r="23" stroke="none"/>
      <circle cx="23" cy="23" r="22.5" fill="none"/>
    </g>
    <path id="save" d="M2.412,1.206A1.206,1.206,0,0,0,1.206,2.412v14.47a1.206,1.206,0,0,0,1.206,1.206h14.47a1.206,1.206,0,0,0,1.206-1.206V2.412a1.206,1.206,0,0,0-1.206-1.206H11.455a1.206,1.206,0,0,0-1.206,1.206v8.794L13.44,8.014a.6.6,0,0,1,.854.854l-4.22,4.22a.6.6,0,0,1-.854,0L5,8.868a.6.6,0,0,1,.854-.854l3.191,3.192V2.412A2.412,2.412,0,0,1,11.455,0h5.426a2.412,2.412,0,0,1,2.412,2.412v14.47a2.412,2.412,0,0,1-2.412,2.412H2.412A2.412,2.412,0,0,1,0,16.881V2.412A2.412,2.412,0,0,1,2.412,0H5.426a.6.6,0,0,1,0,1.206Z" transform="translate(263.5 391.5)" fill="#ed831b" stroke="#ed831b" stroke-width="0.5"/>
  </g>
</svg>
