<svg xmlns="http://www.w3.org/2000/svg" xmlns:xlink="http://www.w3.org/1999/xlink" width="26" height="26" viewBox="0 0 26 26">
  <defs>
    <clipPath id="clip-path">
      <rect id="Rectangle_303" data-name="Rectangle 303" width="17.367" height="17.499" fill="none"/>
    </clipPath>
  </defs>
  <g id="ic-storezone" transform="translate(-66 -727.5)">
    <circle id="Ellipse_36" data-name="Ellipse 36" cx="13" cy="13" r="13" transform="translate(66 727.5)" fill="#8cc43f"/>
    <g id="Group_468" data-name="Group 468" transform="translate(70.082 732.492)">
      <g id="Group_471" data-name="Group 471" clip-path="url(#clip-path)">
        <path id="Path_490" data-name="Path 490" d="M.007,4.043l2.2-1.025Q5.4,1.535,8.592.05a.4.4,0,0,1,.387,0q4.088,1.945,8.184,3.874a.3.3,0,0,1,.2.328q-.009,4.334,0,8.668a.371.371,0,0,1-.232.39q-4.011,2.061-8.013,4.14a.344.344,0,0,1-.35,0q-4.3-2.077-8.6-4.144a.223.223,0,0,1-.157-.224Q.009,8.6,0,4.11c0-.018,0-.037.007-.067M.73,4.55c0,.082-.012.137-.012.192q0,3.942,0,7.884a.245.245,0,0,0,.164.259q3.651,1.75,7.3,3.509l.271.13c0-.084.009-.139.009-.194q0-4.086,0-8.17a.246.246,0,0,0-.171-.268Q4.637,6.279.989,4.658C.909,4.623.829,4.592.73,4.55M11.821,6.684c-.1.046-.167.072-.228.1-.748.362-1.494.729-2.244,1.085a.281.281,0,0,0-.191.3q.012,4.086.012,8.173v.217c.078-.033.12-.047.157-.066q3.591-1.818,7.182-3.633a.235.235,0,0,0,.142-.252q0-3.963,0-7.927V4.454c-.1.041-.16.067-.222.095-.674.31-1.346.624-2.024.925a.261.261,0,0,0-.177.287c.005,1.206,0,2.413.005,3.62a.263.263,0,0,1-.163.281c-.688.34-1.37.69-2.056,1.036-.053.028-.11.048-.192.083ZM1.372,4.167c.08.041.118.063.157.081Q5.09,5.786,8.651,7.319a.352.352,0,0,0,.262-.007c.761-.377,1.517-.764,2.274-1.149.044-.022.083-.052.14-.086-.053-.03-.09-.053-.128-.071Q7.774,4.488,4.349,2.972a.365.365,0,0,0-.264,0c-.595.254-1.185.518-1.776.778l-.937.413M6.527,1.8c.073.037.111.059.15.077Q10.2,3.468,13.717,5.054a.355.355,0,0,0,.261-.012c.577-.277,1.15-.563,1.724-.849.053-.026.1-.058.178-.1-.092-.045-.153-.077-.215-.106-2.126-.979-4.256-1.946-6.37-2.948a1.127,1.127,0,0,0-1.172,0c-.5.286-1.038.5-1.595.76" transform="translate(0 0)" fill="#fff" fill-rule="evenodd"/>
      </g>
    </g>
  </g>
</svg>
