<svg xmlns="http://www.w3.org/2000/svg" xmlns:xlink="http://www.w3.org/1999/xlink" width="26" height="26" viewBox="0 0 26 26">
  <defs>
    <clipPath id="clip-path">
      <rect id="Rectangle_306" data-name="Rectangle 306" width="13.382" height="17.351" transform="translate(0 0)" fill="none"/>
    </clipPath>
  </defs>
  <g id="ic-shower" transform="translate(-244 -817.5)">
    <circle id="Ellipse_36" data-name="Ellipse 36" cx="13" cy="13" r="13" transform="translate(244 817.5)" fill="#3e9a97"/>
    <g id="Group_471" data-name="Group 471" transform="translate(249.645 821.506)">
      <g id="Group_477" data-name="Group 477" transform="translate(0 0)" clip-path="url(#clip-path)">
        <path id="Path_494" data-name="Path 494" d="M12.355,17.351a1.108,1.108,0,0,1-.549-1.086q.023-5.8.007-11.6a3.092,3.092,0,0,0-5.3-2.169,1.028,1.028,0,0,0-.077.1,12.455,12.455,0,0,1,1.069.652A4.588,4.588,0,0,1,9.426,6.891c.025.641-.251.927-.893.931-1.452.009-2.9,0-4.356,0-1.079,0-2.158,0-3.237,0-.693,0-.949-.274-.94-.967A4.676,4.676,0,0,1,3.949,2.4,1.51,1.51,0,0,0,5.1,1.757,4.294,4.294,0,0,1,8.018.067.833.833,0,0,0,8.19,0h1a.459.459,0,0,0,.1.048A4.623,4.623,0,0,1,13.374,5c0,3.774-.006,7.549.008,11.323a1,1,0,0,1-.564,1.028Z" transform="translate(0 0)" fill="#fff"/>
        <path id="Path_495" data-name="Path 495" d="M18.871,24.282c0,.193.013.386,0,.578a.78.78,0,0,1-.788.737.747.747,0,0,1-.76-.758c-.013-.372-.014-.745,0-1.117a.774.774,0,0,1,.74-.747.8.8,0,0,1,.806.729c.017.191,0,.385,0,.578" transform="translate(-10.221 -13.564)" fill="#fff"/>
        <path id="Path_496" data-name="Path 496" d="M3.451,34.585c0,.18.006.36,0,.539a.757.757,0,0,1-.747.769.757.757,0,0,1-.8-.753c-.013-.371-.014-.745,0-1.116a.74.74,0,0,1,.784-.725.745.745,0,0,1,.763.748c.008.179,0,.359,0,.539" transform="translate(-1.116 -19.66)" fill="#fff"/>
        <path id="Path_497" data-name="Path 497" d="M9.617,34.59c0-.18-.007-.36,0-.539a.775.775,0,0,1,1.549.007c.014.359.014.719,0,1.078a.775.775,0,0,1-1.55-.007c-.007-.179,0-.359,0-.539" transform="translate(-5.676 -19.66)" fill="#fff"/>
        <path id="Path_498" data-name="Path 498" d="M9.617,24.3c0-.193-.009-.386,0-.578a.773.773,0,0,1,1.541-.052,9.519,9.519,0,0,1,0,1.232.774.774,0,0,1-1.543-.063c-.008-.179,0-.36,0-.539" transform="translate(-5.676 -13.564)" fill="#fff"/>
        <path id="Path_499" data-name="Path 499" d="M3.448,24.276c0,.206.012.412,0,.616a.769.769,0,0,1-.777.7.757.757,0,0,1-.762-.676,10.129,10.129,0,0,1,0-1.271.782.782,0,0,1,.771-.675.794.794,0,0,1,.766.725c.012.192,0,.385,0,.578" transform="translate(-1.114 -13.564)" fill="#fff"/>
        <path id="Path_500" data-name="Path 500" d="M17.324,34.588c0-.179-.008-.36,0-.539a.775.775,0,0,1,1.545-.067,8.444,8.444,0,0,1,0,1.23.774.774,0,0,1-1.541-.047c-.011-.192,0-.385,0-.578" transform="translate(-10.226 -19.659)" fill="#fff"/>
      </g>
    </g>
  </g>
</svg>
