<svg id="ic-tool-setting" xmlns="http://www.w3.org/2000/svg" width="24" height="24" viewBox="0 0 24 24">
  <g id="Group_252" data-name="Group 252">
    <rect id="Rectangle_188" data-name="Rectangle 188" width="24" height="24" fill="none"/>
  </g>
  <g id="Group_254" data-name="Group 254">
    <g id="Group_253" data-name="Group 253">
      <path id="Path_324" data-name="Path 324" d="M20.97,7.27a1,1,0,0,0,0-1.41L18.14,3.03a1,1,0,0,0-1.41,0L12.24,7.52,8.35,3.63a2,2,0,0,0-2.83,0l-1.9,1.9a2,2,0,0,0,0,2.83l3.89,3.89L3,16.76V21H7.24l4.52-4.52,3.89,3.89a2,2,0,0,0,2.83,0l1.9-1.9a2,2,0,0,0,0-2.83l-3.89-3.89ZM5.04,6.94l1.89-1.9h0L8.2,6.31,7.02,7.5,8.43,8.91,9.62,7.72l1.2,1.2-1.9,1.9Zm11.23,7.44-1.19,1.19,1.41,1.41,1.19-1.19,1.27,1.27-1.9,1.9-3.89-3.89,1.9-1.9ZM6.41,19H5V17.59l9.61-9.61,1.3,1.3.11.11ZM16.02,6.56l1.41-1.41,1.41,1.41L17.43,7.97Z" fill="#ed831b"/>
    </g>
  </g>
</svg>
