<svg xmlns="http://www.w3.org/2000/svg" xmlns:xlink="http://www.w3.org/1999/xlink" width="26" height="26" viewBox="0 0 26 26">
  <defs>
    <clipPath id="clip-path">
      <rect id="Rectangle_302" data-name="Rectangle 302" width="13.415" height="13.382" fill="none"/>
    </clipPath>
  </defs>
  <g id="ic-tube" transform="translate(-244 -681.5)">
    <circle id="Ellipse_36" data-name="Ellipse 36" cx="13" cy="13" r="13" transform="translate(244 681.5)" fill="#ed831b"/>
    <g id="Group_467" data-name="Group 467" transform="translate(250.974 687.969)">
      <g id="Group_469" data-name="Group 469" transform="translate(0 0)" clip-path="url(#clip-path)">
        <path id="Path_488" data-name="Path 488" d="M22.346,15.687H20.431l-.123.511H19.254V12.621H20.3c-.01.445.272.52.675.506.766-.026,1.535-.015,2.3-.006,1.219.016,1.768.561,1.773,1.775.008,1.768,0,3.537,0,5.329l.516.093v1.029H21.942c-.236-.83-.181-1,.4-1.135Z" transform="translate(-12.153 -7.966)" fill="#fff"/>
        <path id="Path_489" data-name="Path 489" d="M.519,1.115,0,1.035V0H3.665V1.024l-.435.1V5.059c1.158.282,1.9.141,2.036-.406H6.322V8.234H5.269L5.162,7.75A.691.691,0,0,0,4.99,7.7c-.887,0-1.773.017-2.659.012C1.07,7.708.525,7.165.52,5.914c-.006-1.576,0-3.152,0-4.8" transform="translate(0 0)" fill="#fff"/>
      </g>
    </g>
  </g>
</svg>
