<svg xmlns="http://www.w3.org/2000/svg" width="40" height="40" viewBox="0 0 40 40">
  <g id="ic-user" transform="translate(-2276 -1486)">
    <g id="Group_394" data-name="Group 394" transform="translate(419 1468)">
      <path id="Subtraction_1" data-name="Subtraction 1" d="M-402-1434a16.889,16.889,0,0,1-12.021-4.979A16.889,16.889,0,0,1-419-1451a16.889,16.889,0,0,1,4.979-12.021A16.889,16.889,0,0,1-402-1468a16.889,16.889,0,0,1,12.021,4.979A16.889,16.889,0,0,1-385-1451a16.889,16.889,0,0,1-4.979,12.021A16.889,16.889,0,0,1-402-1434Zm0-15a14.721,14.721,0,0,0-5.013.988c-1.363.543-2.988,1.506-2.988,3.012v2h16v-2c0-1.505-1.625-2.469-2.988-3.012A14.721,14.721,0,0,0-402-1449Zm0-10a4,4,0,0,0-4,4,4,4,0,0,0,4,4,4.005,4.005,0,0,0,4-4A4,4,0,0,0-402-1459Z" transform="translate(2279 1489)" fill="#ed831b"/>
    </g>
    <rect id="Rectangle_264" data-name="Rectangle 264" width="40" height="40" transform="translate(2276 1486)" fill="none"/>
  </g>
</svg>
