<svg xmlns="http://www.w3.org/2000/svg" xmlns:xlink="http://www.w3.org/1999/xlink" width="26" height="26" viewBox="0 0 26 26">
  <defs>
    <clipPath id="clip-path">
      <rect id="Rectangle_304" data-name="Rectangle 304" width="16.073" height="14.385" transform="translate(0 0)" fill="none"/>
    </clipPath>
  </defs>
  <g id="ic-use-zone" transform="translate(-244 -727.5)">
    <circle id="Ellipse_36" data-name="Ellipse 36" cx="13" cy="13" r="13" transform="translate(244 727.5)" fill="#f9be00"/>
    <g id="Group_469" data-name="Group 469" transform="translate(249.645 733.492)">
      <g id="Group_473" data-name="Group 473" transform="translate(0 0.001)" clip-path="url(#clip-path)">
        <path id="Path_491" data-name="Path 491" d="M8.356,10.115C6.739,9.439,6.223,8.869,6.223,7.649c0-.733.494-.494.71-1.836.09-.556.526-.009.609-1.28,0-.506-.238-.632-.238-.632s.121-.749.168-1.326A2.425,2.425,0,0,0,4.867,0,2.425,2.425,0,0,0,2.261,2.575c.047.577.168,1.326.168,1.326s-.238.126-.238.632c.084,1.271.52.724.61,1.28.217,1.342.71,1.1.71,1.836,0,1.22-.517,1.79-2.133,2.466C.885,10.321,0,10.64,0,11.407v2.978H11.356V12.153c0-.7-1.378-1.359-3-2.037" transform="translate(0 0)" fill="#fff"/>
        <path id="Path_492" data-name="Path 492" d="M27.6,9.8a1.344,1.344,0,0,1,.759-1.147,4.179,4.179,0,0,0-.325-.785,1.269,1.269,0,0,1-1.273-.415,1.228,1.228,0,0,1-.321-1.273,4.157,4.157,0,0,0-.785-.325,1.394,1.394,0,0,1-2.482,0,4.168,4.168,0,0,0-.785.325A1.227,1.227,0,0,1,22.07,7.45a1.269,1.269,0,0,1-1.273.415,4.179,4.179,0,0,0-.325.785A1.344,1.344,0,0,1,21.231,9.8a1.487,1.487,0,0,1-.759,1.241,4.157,4.157,0,0,0,.325.785,1.28,1.28,0,0,1,1.594,1.594,4.134,4.134,0,0,0,.785.325,1.394,1.394,0,0,1,2.482,0,4.157,4.157,0,0,0,.785-.325,1.229,1.229,0,0,1,.321-1.273,1.27,1.27,0,0,1,1.273-.415,4.157,4.157,0,0,0,.325-.785A1.343,1.343,0,0,1,27.6,9.8m-3.186,1.716A1.716,1.716,0,1,1,26.133,9.8a1.716,1.716,0,0,1-1.716,1.716" transform="translate(-12.289 -3.513)" fill="#fff"/>
      </g>
    </g>
  </g>
</svg>
