<svg id="ic-verification" xmlns="http://www.w3.org/2000/svg" width="24" height="24" viewBox="0 0 24 24">
  <g id="Group_347" data-name="Group 347">
    <path id="Path_427" data-name="Path 427" d="M0,0H24V24H0Z" fill="none"/>
  </g>
  <g id="Group_349" data-name="Group 349">
    <g id="Group_348" data-name="Group 348">
      <path id="Path_428" data-name="Path 428" d="M20,4H4A2.006,2.006,0,0,0,2,6V18a2.006,2.006,0,0,0,2,2H20a2.006,2.006,0,0,0,2-2V6A2.006,2.006,0,0,0,20,4Zm0,14H4V6H20Z" fill="#ed831b"/>
      <path id="Path_429" data-name="Path 429" d="M6.49,10.5V15H7.64V9H6.77L5.01,10.27l.58.89Z" fill="#ed831b"/>
      <path id="Path_430" data-name="Path 430" d="M11.47,10.05a.736.736,0,0,1,.81.72,1.45,1.45,0,0,1-.54,1.06c-.36.38-1.06,1.08-2.13,2.15V15H13.5v-.99H11.13l-.03-.05c.68-.68,1.15-1.14,1.4-1.39a2.632,2.632,0,0,0,.92-1.86,1.622,1.622,0,0,0-.91-1.48,2.343,2.343,0,0,0-1.95-.03,1.861,1.861,0,0,0-1,1.15l1.01.42A.945.945,0,0,1,11.47,10.05Z" fill="#ed831b"/>
      <path id="Path_431" data-name="Path 431" d="M16.99,13.94a1.039,1.039,0,0,1-1.02-.86l-1.03.41A2.042,2.042,0,0,0,16.99,15a1.972,1.972,0,0,0,1.76-.85,1.626,1.626,0,0,0-.01-1.76,1.468,1.468,0,0,0-.68-.52V11.8a1.387,1.387,0,0,0,.52-.48,1.5,1.5,0,0,0-.02-1.57A1.883,1.883,0,0,0,16.94,9a1.868,1.868,0,0,0-1.85,1.24l.99.41a.857.857,0,0,1,.85-.64.671.671,0,0,1,.75.65c0,.58-.55.72-.88.72h-.46v1h.5c.56,0,1.04.24,1.04.79A.842.842,0,0,1,16.99,13.94Z" fill="#ed831b"/>
    </g>
  </g>
</svg>
