<svg id="ic-view" xmlns="http://www.w3.org/2000/svg" width="15" height="15" viewBox="0 0 15 15">
  <path id="Path_151" data-name="Path 151" d="M0,0H15V15H0Z" fill="none"/>
  <path id="Path_152" data-name="Path 152" d="M7.88,5.256A6.109,6.109,0,0,1,13.4,8.71a6.132,6.132,0,0,1-11.033,0A6.109,6.109,0,0,1,7.88,5.256M7.88,4A7.4,7.4,0,0,0,1,8.71a7.38,7.38,0,0,0,13.76,0A7.4,7.4,0,0,0,7.88,4Zm0,3.14A1.57,1.57,0,1,1,6.316,8.71,1.567,1.567,0,0,1,7.88,7.14m0-1.256A2.826,2.826,0,1,0,10.695,8.71,2.825,2.825,0,0,0,7.88,5.884Z" transform="translate(-0.38 -1.52)" fill="#ed831b"/>
</svg>
