<svg xmlns="http://www.w3.org/2000/svg" width="48" height="96" viewBox="0 0 48 96">
  <g id="ic-visibility" transform="translate(7514 116)">
    <g id="ic-visibility-2" data-name="ic-visibility" transform="translate(-7514 -67.777)">
      <path id="Path_306" data-name="Path 306" d="M0,0H48V48H0Z" transform="translate(0 -0.223)" fill="none"/>
      <path id="Path_307" data-name="Path 307" d="M13,6.182a10.658,10.658,0,0,1,9.622,6,10.715,10.715,0,0,1-19.244,0,10.658,10.658,0,0,1,9.622-6M13,4A12.9,12.9,0,0,0,1,12.182a12.891,12.891,0,0,0,24,0A12.9,12.9,0,0,0,13,4Zm0,5.455a2.727,2.727,0,1,1-2.727,2.727A2.728,2.728,0,0,1,13,9.455m0-2.182a4.909,4.909,0,1,0,4.909,4.909A4.917,4.917,0,0,0,13,7.273Z" transform="translate(11 11.777)" fill="#707070"/>
    </g>
    <g id="ic-unview" transform="translate(-7514.223 -116)">
      <path id="Path_156" data-name="Path 156" d="M0,0H48V48H0ZM0,0H48V48H0ZM0,0H48V48H0ZM0,0H48V48H0Z" transform="translate(0.223)" fill="none"/>
      <path id="Path_157" data-name="Path 157" d="M13,6.323a10.658,10.658,0,0,1,9.622,6,10.524,10.524,0,0,1-2.629,3.4l1.538,1.538A12.875,12.875,0,0,0,25,12.323,12.909,12.909,0,0,0,9.029,4.763l1.8,1.8A11.027,11.027,0,0,1,13,6.323ZM11.833,7.566l2.258,2.258a2.726,2.726,0,0,1,1.4,1.4l2.258,2.258a5.1,5.1,0,0,0,.153-1.167,4.891,4.891,0,0,0-4.9-4.9A4.63,4.63,0,0,0,11.833,7.566ZM2.1,4,5.025,6.923A12.8,12.8,0,0,0,1,12.323,12.9,12.9,0,0,0,13,20.5a12.8,12.8,0,0,0,4.713-.895l3.731,3.731L22.982,21.8,3.64,2.45Zm8.182,8.182,2.847,2.847A.548.548,0,0,1,13,15.05a2.728,2.728,0,0,1-2.727-2.727C10.273,12.268,10.284,12.236,10.284,12.181ZM6.575,8.472l1.909,1.909a5.019,5.019,0,0,0-.393,1.942,4.915,4.915,0,0,0,6.84,4.516L16,17.908a11.381,11.381,0,0,1-3,.415,10.658,10.658,0,0,1-9.622-6,10.8,10.8,0,0,1,3.2-3.851Z" transform="translate(11.223 11.55)" fill="#707070"/>
    </g>
  </g>
</svg>
