<svg xmlns="http://www.w3.org/2000/svg" width="18" height="18" viewBox="0 0 18 18">
  <g id="ic-weight" transform="translate(0.038 0.089)">
    <g id="Group_275" data-name="Group 275" transform="translate(0 -0.051)">
      <rect id="Rectangle_207" data-name="Rectangle 207" width="18" height="18" transform="translate(-0.038 -0.038)" fill="none"/>
    </g>
    <g id="Group_276" data-name="Group 276" transform="translate(1.662 1.662)">
      <path id="Path_334" data-name="Path 334" d="M10.729,8.547V6.365C14.046,5.943,16.549,4.11,16.549,2H2C2,4.11,4.5,5.943,7.819,6.365V8.547C5.142,9.078,2,11.173,2,16.549H6.365V15.094H3.549A5.61,5.61,0,0,1,9.274,9.856,5.61,5.61,0,0,1,15,15.094H12.184v1.455h4.365C16.549,11.173,13.406,9.078,10.729,8.547Zm3.543-5.092A7.853,7.853,0,0,1,9.274,5a7.853,7.853,0,0,1-5-1.542Zm-5,13.094a1.459,1.459,0,0,1-1.455-1.455,1.422,1.422,0,0,1,.429-1.026,22.833,22.833,0,0,1,3.935-1.884A22.833,22.833,0,0,1,10.3,16.119,1.422,1.422,0,0,1,9.274,16.549Z" transform="translate(-2 -2)" fill="#707070"/>
    </g>
  </g>
</svg>
