<svg xmlns="http://www.w3.org/2000/svg" xmlns:xlink="http://www.w3.org/1999/xlink" width="26" height="26" viewBox="0 0 26 26">
  <defs>
    <clipPath id="clip-path">
      <rect id="Rectangle_140" data-name="Rectangle 140" width="8.846" height="12.867" fill="none"/>
    </clipPath>
  </defs>
  <g id="ic-water" transform="translate(-66 -549.5)">
    <circle id="Ellipse_19" data-name="Ellipse 19" cx="13" cy="13" r="13" transform="translate(66 549.5)" fill="#4dbce2"/>
    <g id="Group_170" data-name="Group 170" transform="translate(74.477 556.254)">
      <g id="Group_169" data-name="Group 169" transform="translate(0 0)" clip-path="url(#clip-path)">
        <path id="Path_215" data-name="Path 215" d="M5.157.555a.763.763,0,0,0-1.468,0C2.513,4.519,0,5.6,0,8.391a4.446,4.446,0,0,0,4.423,4.475A4.446,4.446,0,0,0,8.846,8.391c0-2.808-2.508-3.853-3.689-7.836m-.734,10.7A2.818,2.818,0,0,1,1.608,8.443a.4.4,0,0,1,.8,0,2.013,2.013,0,0,0,2.011,2.011.4.4,0,0,1,0,.8" transform="translate(0 0)" fill="#fff"/>
      </g>
    </g>
  </g>
</svg>
