<svg id="ic-web-link" xmlns="http://www.w3.org/2000/svg" width="32" height="32" viewBox="0 0 32 32">
  <path id="Path_132" data-name="Path 132" d="M0,0H32V32H0Z" fill="none"/>
  <path id="Path_133" data-name="Path 133" d="M14.664,2a12.677,12.677,0,1,0,12.69,12.677A12.671,12.671,0,0,0,14.664,2ZM23.45,9.606H19.71a19.839,19.839,0,0,0-1.749-4.513A10.179,10.179,0,0,1,23.45,9.606Zm-8.773-5.02A17.858,17.858,0,0,1,17.1,9.606H12.256A17.858,17.858,0,0,1,14.677,4.586ZM4.865,17.213a9.916,9.916,0,0,1,0-5.071H9.15a20.937,20.937,0,0,0-.177,2.535,20.937,20.937,0,0,0,.177,2.535ZM5.9,19.748h3.74a19.839,19.839,0,0,0,1.749,4.513A10.125,10.125,0,0,1,5.9,19.748ZM9.644,9.606H5.9a10.125,10.125,0,0,1,5.489-4.513A19.839,19.839,0,0,0,9.644,9.606Zm5.033,15.162a17.858,17.858,0,0,1-2.421-5.02H17.1A17.858,17.858,0,0,1,14.677,24.768Zm2.966-7.556H11.711a18.652,18.652,0,0,1-.2-2.535,18.489,18.489,0,0,1,.2-2.535h5.933a18.489,18.489,0,0,1,.2,2.535A18.651,18.651,0,0,1,17.644,17.213Zm.317,7.048a19.839,19.839,0,0,0,1.749-4.513h3.74A10.179,10.179,0,0,1,17.961,24.261ZM20.2,17.213a20.937,20.937,0,0,0,.177-2.535,20.937,20.937,0,0,0-.177-2.535h4.285a9.917,9.917,0,0,1,0,5.071Z" transform="translate(1.323 1.323)" fill="#ed831b"/>
</svg>
