<svg xmlns="http://www.w3.org/2000/svg" width="79.792" height="69.818" viewBox="0 0 79.792 69.818">
  <g id="sign-photo" transform="translate(-0.002 -1)">
    <path id="Path_398" data-name="Path 398" d="M19.688,12.343A8.343,8.343,0,1,1,11.345,4,8.343,8.343,0,0,1,19.688,12.343Z" transform="translate(14.721 15.223)" fill="#d5d5d5"/>
    <path id="Path_399" data-name="Path 399" d="M9.976,1A9.974,9.974,0,0,0,0,10.974v49.87a9.974,9.974,0,0,0,9.974,9.974H69.82a9.974,9.974,0,0,0,9.974-9.974V10.974A9.974,9.974,0,0,0,69.82,1H9.976ZM69.82,5.987a4.987,4.987,0,0,1,4.987,4.987V43.389L55.971,33.68a2.493,2.493,0,0,0-2.877.464l-18.5,18.5L21.326,43.808a2.493,2.493,0,0,0-3.142.309L4.989,55.857V10.974A4.987,4.987,0,0,1,9.976,5.987Z" fill="#d5d5d5"/>
  </g>
</svg>
