<svg xmlns="http://www.w3.org/2000/svg" width="88.658" height="79.182" viewBox="0 0 88.658 79.182">
  <g id="sign-forbidden" transform="translate(0 -27.362)">
    <path id="Path_162" data-name="Path 162" d="M230.862,357.113a5.264,5.264,0,1,0,5.263,5.263A5.266,5.266,0,0,0,230.862,357.113Z" transform="translate(-186.532 -272.652)" fill="#ed831b"/>
    <path id="Path_163" data-name="Path 163" d="M87.462,93.12,52.081,31.838a8.949,8.949,0,0,0-15.5,0L1.195,93.118a8.95,8.95,0,0,0,7.751,13.426H79.711A8.949,8.949,0,0,0,87.462,93.12ZM80.426,97.5a2.876,2.876,0,0,1-2.485,1.431H10.715a2.869,2.869,0,0,1-2.484-4.3L41.845,36.408a2.868,2.868,0,0,1,4.967,0L80.426,94.63A2.877,2.877,0,0,1,80.426,97.5Z" fill="#ed831b"/>
    <path id="Path_164" data-name="Path 164" d="M230.862,152.719a5.267,5.267,0,0,0-5.266,5.265l2.022,23.807a3.243,3.243,0,0,0,6.487,0l2.02-23.807A5.264,5.264,0,0,0,230.862,152.719Z" transform="translate(-186.532 -103.65)" fill="#ed831b"/>
  </g>
</svg>
