<svg id="sign-no-person" xmlns="http://www.w3.org/2000/svg" width="48" height="48" viewBox="0 0 48 48">
  <g id="Group_342" data-name="Group 342">
    <rect id="Rectangle_243" data-name="Rectangle 243" width="48" height="48" fill="none"/>
  </g>
  <g id="Group_344" data-name="Group 344" transform="translate(2 2)">
    <g id="Group_343" data-name="Group 343">
      <path id="Path_420" data-name="Path 420" d="M19.251,15.293a6.491,6.491,0,0,0,.6-2.709A6.591,6.591,0,0,0,13.269,6a6.491,6.491,0,0,0-2.709.6Z" transform="translate(8.073 4.806)" fill="#d5d5d5"/>
      <path id="Path_421" data-name="Path 421" d="M24,2A22,22,0,1,0,46,24,22.008,22.008,0,0,0,24,2ZM6.4,24a17.385,17.385,0,0,1,3.718-10.78l6.292,6.292a7.633,7.633,0,0,0,6.578,6.578l4.84,4.84A22.112,22.112,0,0,0,24,30.6a21.883,21.883,0,0,0-13.508,4.664A17.5,17.5,0,0,1,6.4,24ZM24,41.6a17.471,17.471,0,0,1-10.23-3.3,17.506,17.506,0,0,1,20.46,0A17.47,17.47,0,0,1,24,41.6Zm13.882-6.82L13.22,10.118A17.385,17.385,0,0,1,24,6.4,17.571,17.571,0,0,1,37.882,34.78Z" transform="translate(-2 -2)" fill="#d5d5d5"/>
    </g>
  </g>
</svg>
