<svg id="sign-lock" xmlns="http://www.w3.org/2000/svg" width="96.446" height="96.446" viewBox="0 0 96.446 96.446">
  <g id="Group_134" data-name="Group 134">
    <path id="Path_165" data-name="Path 165" d="M0,0H96.446V96.446H0Z" fill="none"/>
    <path id="Path_166" data-name="Path 166" d="M0,0H96.446V96.446H0Z" fill="none" opacity="0.87"/>
  </g>
  <path id="Path_167" data-name="Path 167" d="M60.26,29.13H56.242V21.093a20.093,20.093,0,0,0-40.186,0V29.13H12.037A8.061,8.061,0,0,0,4,37.167V77.353a8.061,8.061,0,0,0,8.037,8.037H60.26A8.061,8.061,0,0,0,68.3,77.353V37.167A8.061,8.061,0,0,0,60.26,29.13ZM24.093,21.093a12.056,12.056,0,0,1,24.112,0V29.13H24.093ZM60.26,77.353H12.037V37.167H60.26ZM36.149,65.3a8.037,8.037,0,1,0-8.037-8.037A8.061,8.061,0,0,0,36.149,65.3Z" transform="translate(12.074 3.019)" fill="#ed831b"/>
</svg>
