<svg id="sign-lab" xmlns="http://www.w3.org/2000/svg" width="32.357" height="44.707" viewBox="0 0 32.357 44.707">
  <path id="Path_122" data-name="Path 122" d="M234.1,3.216a1.608,1.608,0,1,0-1.606-1.609A1.608,1.608,0,0,0,234.1,3.216Z" transform="translate(-218.367 0)" fill="#333"/>
  <path id="Path_123" data-name="Path 123" d="M240.576,89.366a.946.946,0,1,0-.946.945A.945.945,0,0,0,240.576,89.366Z" transform="translate(-224.018 -80.699)" fill="#333"/>
  <path id="Path_124" data-name="Path 124" d="M262.4,48.652a1.131,1.131,0,1,0,1.133-1.128A1.132,1.132,0,0,0,262.4,48.652Z" transform="translate(-245.665 -43.374)" fill="#333"/>
  <path id="Path_125" data-name="Path 125" d="M102.432,143.1l-9.052-14.458a8.276,8.276,0,0,1-1.261-4.391l.011-9.395h-1.6l-.011,9.367v.028a9.88,9.88,0,0,0,1.505,5.24l9.052,14.459a2.6,2.6,0,0,1-2.205,3.984h-.014l-23.94-.026a2.6,2.6,0,0,1-2.2-3.987L81.8,129.477a9.868,9.868,0,0,0,1.517-5.248l.01-9.375h-1.6l-.012,9.374a8.283,8.283,0,0,1-1.271,4.4l-9.083,14.44a4.2,4.2,0,0,0,3.554,6.44l23.951.026v0c.037,0,.056,0,.058,0v0a4.2,4.2,0,0,0,3.509-6.43Z" transform="translate(-70.715 -104.825)" fill="#333"/>
  <path id="Path_126" data-name="Path 126" d="M125.514,326.074,119.266,336a1.37,1.37,0,0,0-.04,1.388,1.391,1.391,0,0,0,1.2.731h21.184a1.368,1.368,0,0,0,1.158-2.093l-6.225-9.944a1.363,1.363,0,0,0-1.158-.641l-8.712-.009A1.358,1.358,0,0,0,125.514,326.074Zm8.257,6.9a1,1,0,1,1-1,1A1,1,0,0,1,133.771,332.976Zm-4.8-4.3a1.5,1.5,0,1,1-1.5,1.5A1.5,1.5,0,0,1,128.969,328.674Z" transform="translate(-114.836 -297.019)" fill="#333"/>
</svg>
