<svg xmlns="http://www.w3.org/2000/svg" xmlns:xlink="http://www.w3.org/1999/xlink" width="238.301" height="113.523" viewBox="0 0 238.301 113.523">
  <defs>
    <clipPath id="clip-path">
      <rect id="Rectangle_67" data-name="Rectangle 67" width="85" height="81.377" transform="translate(0 0)" fill="none"/>
    </clipPath>
  </defs>
  <g id="topic-logo" transform="translate(12581 304)">
    <g id="topic-logo-2" data-name="topic-logo" transform="translate(-13785.742 -462)">
      <path id="Path_306" data-name="Path 306" d="M7.246-14.521q0,.156-.137.156l-.762-.02V-.811l.039,2.119q0,.166-.176.166H5.4q-.156,0-.156-.166L5.283-.811v-1.6Q3.555-1.8,2.3-1.445a2.6,2.6,0,0,0-.781.3.516.516,0,0,1-.264.117q-.127,0-.2-.244Q.908-1.709.742-2.363q.5-.049,1.26-.186V-14.385l-.9.02q-.137,0-.137-.156v-.8q0-.156.137-.156l1.982.039H5.146l1.963-.039q.137,0,.137.156ZM5.283-3.486V-6.328H3.066v3.516Q3.945-3.037,5.283-3.486Zm0-7.891V-14.4H3.066v3.027Zm0,4.033v-3.018H3.066v3.018ZM19.424-2.1a6.412,6.412,0,0,1-.615,2.48,1.069,1.069,0,0,1-.947.576q-1.377,0-2.383-3a14.524,14.524,0,0,1-3.555,3.3,1.242,1.242,0,0,1-.283.137q-.107,0-.3-.283A1.469,1.469,0,0,0,10.8.645a13.452,13.452,0,0,0,4.326-3.867,28.2,28.2,0,0,1-.781-5.84H9.658l-2.637.039q-.137,0-.137-.176v-.762a.121.121,0,0,1,.137-.137l2.637.02h1.2a20.136,20.136,0,0,0,.625-1.982,4.776,4.776,0,0,0,.117-.82,8.565,8.565,0,0,1,1,.244q.205.068.205.176a.472.472,0,0,1-.117.244.991.991,0,0,0-.186.381,18.606,18.606,0,0,1-.654,1.758h2.432q-.078-2.48-.1-3.9A19.037,19.037,0,0,0,14-16.416,11.429,11.429,0,0,1,15.2-16.3q.283.039.283.176a3.337,3.337,0,0,1-.1.381,4.247,4.247,0,0,0-.107,1.191v.508q0,2.3.088,3.965h.7l2.793-.02q.166,0,.166.137V-9.2q0,.176-.166.176l-2.793-.039H15.4A28.146,28.146,0,0,0,15.918-4.5a12.36,12.36,0,0,0,.8-1.8,7.221,7.221,0,0,0,.42-1.641,6.225,6.225,0,0,1,1.006.439q.2.1.2.234a.728.728,0,0,1-.225.381,4.95,4.95,0,0,0-.371.82,16.676,16.676,0,0,1-1.484,2.9q.811,2.783,1.6,2.783.479,0,.684-2.8a2.041,2.041,0,0,0,.674.547q.234.117.234.264A2.433,2.433,0,0,1,19.424-2.1Zm-6.562.723q0,.215-.156.215h-.723q-.156,0-.156-.215v-.4H8.857V-.5A.138.138,0,0,1,8.7-.342H8A.138.138,0,0,1,7.842-.5l.039-3.32V-5.459L7.842-7.705A.138.138,0,0,1,8-7.861l1.641.039h1.426l1.641-.039a.138.138,0,0,1,.156.156L12.822-5.9v1.455Zm-1.035-1.3V-4.424H8.857v1.748Zm0-2.627V-6.9H8.857v1.6Zm1.7-8.076q0,.156-.166.156l-1.914-.039h-2l-1.885.039a.138.138,0,0,1-.156-.156v-.7a.138.138,0,0,1,.156-.156l1.885.039h.381V-15a7.191,7.191,0,0,0-.117-1.543q.469.02,1.191.1.244.029.244.205,0,.01-.1.264a2.778,2.778,0,0,0-.107,1.016v.762h.508l1.914-.039q.166,0,.166.156Zm4.941.918a.536.536,0,0,1,.049.156q0,.059-.156.146l-.479.244a1.213,1.213,0,0,1-.234.1q-.068,0-.127-.137a8.069,8.069,0,0,0-1.338-2.422.19.19,0,0,1-.039-.1q0-.078.2-.186l.4-.215a.4.4,0,0,1,.156-.078q.049,0,.146.117A9.7,9.7,0,0,1,18.467-12.461ZM9.678-10.713a.414.414,0,0,1,.02.1q0,.078-.2.137l-.479.127a.939.939,0,0,1-.176.029q-.088,0-.127-.176a10.4,10.4,0,0,0-.654-1.982.24.24,0,0,1-.039-.107q0-.068.234-.146l.459-.146a1.036,1.036,0,0,1,.117-.01q.088,0,.146.137A7.713,7.713,0,0,1,9.678-10.713ZM38.994-.4a3.352,3.352,0,0,0-.518.723q-.176.332-.293.332A1.4,1.4,0,0,1,37.9.586a17.718,17.718,0,0,1-7.52-3.965q0,2.09.059,3.652.039.947.039.967a.138.138,0,0,1-.156.156h-.967A.138.138,0,0,1,29.2,1.24q0-.078.02-.664.068-1.748.078-3.916A14.249,14.249,0,0,1,25.84-.83,23.1,23.1,0,0,1,22.061.684a1.2,1.2,0,0,1-.293.068q-.137,0-.293-.312a2.038,2.038,0,0,0-.537-.684Q25.957-1.553,28.3-3.76h-4.16l-2.627.039q-.176,0-.176-.156V-4.6q0-.156.176-.156l2.627.039h5.117v-1.6H26.279l-2.842.039q-.156,0-.156-.137v-.7q0-.176.156-.176l2.842.039h2.979V-8.8H25.293l-2.754.039q-.186,0-.186-.156v-.723q0-.156.186-.156l2.754.039h1.6a7.046,7.046,0,0,0-.84-1.719.26.26,0,0,1-.049-.117q0-.068.215-.146l.518-.176a.6.6,0,0,1,.186-.059q.068,0,.137.1a10.436,10.436,0,0,1,1.055,2.119h3.7a14.872,14.872,0,0,0,.742-1.465,5.251,5.251,0,0,0,.234-.791q.5.107,1.064.273.225.078.225.225,0,.107-.176.234a1.229,1.229,0,0,0-.283.42q-.293.547-.664,1.1H34.7l2.783-.039a.138.138,0,0,1,.156.156v.723a.138.138,0,0,1-.156.156L34.7-8.8H30.42v1.543H33.8l2.842-.039q.156,0,.156.176v.7q0,.137-.156.137L33.8-6.318H30.42v1.6h5.5l2.637-.039q.166,0,.166.156v.723q0,.156-.166.156L35.918-3.76H31.357A19.07,19.07,0,0,0,38.994-.4Zm-.273-11.943q0,.156-.166.156l-2.637-.039H24.141l-2.627.039q-.176,0-.176-.156v-.723a.155.155,0,0,1,.176-.176l2.627.039h.693a9.327,9.327,0,0,0-1.416-2.119.175.175,0,0,1-.049-.107q0-.068.166-.156l.547-.273a.334.334,0,0,1,.156-.059.157.157,0,0,1,.117.078A11.535,11.535,0,0,1,25.8-13.818a.23.23,0,0,1,.029.1q0,.068-.156.156l-.654.361h2.637v-1.5a9.482,9.482,0,0,0-.117-1.816q.674.029,1.211.1.205.039.205.186a.629.629,0,0,1-.078.273,3.735,3.735,0,0,0-.117,1.26v1.5H30.9v-1.484a8.157,8.157,0,0,0-.137-1.816q.7.039,1.24.1.2.039.2.186a.943.943,0,0,1-.078.254A4.372,4.372,0,0,0,32-14.707v1.5h1.855a15.651,15.651,0,0,0,1.123-1.875,3.425,3.425,0,0,0,.313-.947,9,9,0,0,1,1.143.381q.205.068.205.205a.307.307,0,0,1-.156.254,1.372,1.372,0,0,0-.342.4q-.518.83-1.064,1.582h.84l2.637-.039q.166,0,.166.176ZM58.74-7.891a.138.138,0,0,1-.156.156l-2.637-.039h-1.6a13.021,13.021,0,0,1-2.578,4.824q2.451,1.074,5.674,2.871.107.078.107.146a.4.4,0,0,1-.107.215l-.459.684q-.1.156-.176.156a.6.6,0,0,1-.225-.1,42.3,42.3,0,0,0-5.723-3.076q-2.7,2.314-8.174,3.115a1.592,1.592,0,0,1-.205.02q-.2,0-.361-.332A2.307,2.307,0,0,0,41.6-.029q5.342-.586,8-2.549a33.552,33.552,0,0,0-3.936-1.338q-.439.635-.557.781a.35.35,0,0,1-.254.146.418.418,0,0,1-.146-.029L44.1-3.232q-.273-.107-.273-.186a.249.249,0,0,1,.078-.137q.322-.391.977-1.3a31.727,31.727,0,0,0,1.738-2.92H44.346L41.7-7.734a.138.138,0,0,1-.156-.156v-.85A.138.138,0,0,1,41.7-8.9l2.646.039h2.842q.469-.947.84-1.816a5.594,5.594,0,0,0,.5-1.582,11.893,11.893,0,0,1,1.318.381q.2.068.2.2a.422.422,0,0,1-.225.322,2.2,2.2,0,0,0-.479.762q-.312.732-.811,1.738h7.422L58.584-8.9a.138.138,0,0,1,.156.156Zm-5.674.117H47.979q-.83,1.572-1.7,2.939a36.77,36.77,0,0,1,4.307,1.4A11.249,11.249,0,0,0,53.066-7.773Zm4.941-2.5a.138.138,0,0,1-.156.156h-.928a.138.138,0,0,1-.156-.156v-2.861H43.223v2.861a.138.138,0,0,1-.156.156h-.928a.138.138,0,0,1-.156-.156l.039-2.119v-.645L41.982-14.1a.138.138,0,0,1,.156-.156l2.8.039h4.307v-.3a8.991,8.991,0,0,0-.166-2.041q.566.029,1.338.107.244.029.244.156a1.293,1.293,0,0,1-.117.381,5.942,5.942,0,0,0-.1,1.4v.3h4.619l2.783-.039a.138.138,0,0,1,.156.156l-.039.947v.762ZM78.467.264a.138.138,0,0,1-.156.156L75.625.381H64.512L61.807.42A.138.138,0,0,1,61.65.264V-.625a.138.138,0,0,1,.156-.156l2.705.039h4.795v-3.34H67.168l-2.744.039a.138.138,0,0,1-.156-.156v-.85a.138.138,0,0,1,.156-.156l2.744.039h2.139V-8.145H67.588L64.951-8.1a.147.147,0,0,1-.166-.166v-.859q0-.156.166-.156l2.637.039h4.775l2.666-.039q.137,0,.137.156v.859q0,.166-.137.166l-2.666-.049H70.508v2.979h2.461l2.715-.039q.186,0,.186.156v.85q0,.156-.186.156l-2.715-.039H70.508v3.34h5.117l2.686-.039a.138.138,0,0,1,.156.156Zm1.074-9.5a3.555,3.555,0,0,0-.557.84q-.137.3-.244.3a.943.943,0,0,1-.312-.117,19.146,19.146,0,0,1-8.467-6.826,21.062,21.062,0,0,1-8.135,6.963.788.788,0,0,1-.3.117q-.1,0-.283-.3a2.4,2.4,0,0,0-.6-.674,18.125,18.125,0,0,0,8.223-6.748,3.939,3.939,0,0,0,.537-1.172q.771.137,1.26.273.264.078.264.225a.288.288,0,0,1-.146.215.884.884,0,0,0-.176.166A18.368,18.368,0,0,0,79.541-9.238ZM94.3-1.318q0,.156-.176.156L91.641-1.2h-.3v.2l.039,2.148a.138.138,0,0,1-.156.156h-.8q-.166,0-.166-.156l.039-2.148v-.2h-2.52l-2.48.039a.138.138,0,0,1-.156-.156v-.7a.138.138,0,0,1,.156-.156l1.523.039V-3.877l-.9.02q-.166,0-.166-.156V-4.7q0-.156.166-.156l2.295.039h2.08V-6.182H88.76l-2.021.039a.138.138,0,0,1-.156-.156l.039-1.123v-.84l-.039-1.123q0-.176.156-.176l2.021.039h2.178l2.041-.039q.156,0,.156.176L93.1-8.262v.84L93.135-6.3a.138.138,0,0,1-.156.156l-.5-.01q-.5-.02-1.143-.029v1.367l2.236-.039q.166,0,.166.156v.684q0,.156-.166.156L91.338-3.9v1.758h.3l2.48-.039q.176,0,.176.156ZM92.041-7.041V-8.623H87.676v1.582Zm-1.748,4.9V-3.9H87.881v1.758ZM94.1-10.8q0,.137-.166.137l-2.334-.02H88.242l-2.324.02q-.156,0-.156-.137v-.7a.138.138,0,0,1,.156-.156l1.758.039q.332-.771.762-2.021l-1.8.039q-.166,0-.166-.156v-.7q0-.156.166-.156l1.943.039h.176l.2-.684a5.845,5.845,0,0,0,.205-1.182q.771.137,1.133.225.244.068.244.215a.432.432,0,0,1-.156.283,1.3,1.3,0,0,0-.264.518l-.2.625h.713l1.982-.039q.166,0,.166.156l-.039,1.182v1.66l1.191-.039q.166,0,.166.156Zm-2.422-.82v-2.021H89.6q-.361,1.074-.762,2.021Zm7.412,1.885a.138.138,0,0,1-.156.156l-1.68-.039v6l.039,2.969A1.626,1.626,0,0,1,96.777.762a5.336,5.336,0,0,1-2.324.3.664.664,0,0,1-.371-.059,1.013,1.013,0,0,1-.107-.342,2.6,2.6,0,0,0-.3-.84,15.556,15.556,0,0,0,1.738.1q.7,0,.7-.742v-8.8h-.176l-1.66.039q-.166,0-.166-.156v-.82q0-.156.166-.156l1.66.039h1.318l1.68-.039a.138.138,0,0,1,.156.156ZM85.684-11.221q0,.117-.186.244a1.528,1.528,0,0,0-.459.6A16.67,16.67,0,0,1,84.1-8.857v7.5l.039,2.617a.138.138,0,0,1-.156.156h-.908a.138.138,0,0,1-.156-.156l.039-2.617V-4.9q0-.2.059-2.6A13.4,13.4,0,0,1,81.4-5.9q-.205.176-.283.176t-.176-.225a2.792,2.792,0,0,0-.439-.693,13.912,13.912,0,0,0,3.623-4.443,4.658,4.658,0,0,0,.381-.957,5.9,5.9,0,0,1,.957.557Q85.684-11.318,85.684-11.221Zm-.107-4.463q0,.117-.186.225a1.7,1.7,0,0,0-.518.5,17.927,17.927,0,0,1-3.1,3.34.586.586,0,0,1-.283.156q-.1,0-.234-.264a2.427,2.427,0,0,0-.527-.674,11.4,11.4,0,0,0,3.145-3.213,4.889,4.889,0,0,0,.439-.908,6.721,6.721,0,0,1,1.035.566Q85.576-15.8,85.576-15.684ZM98.74-14.219q0,.156-.166.156L97.041-14.1H95.9l-1.543.039a.138.138,0,0,1-.156-.156v-.84a.138.138,0,0,1,.156-.156l1.543.039h1.143l1.533-.039q.166,0,.166.156ZM118.633.078a.138.138,0,0,1-.156.156L115.84.2H104.18l-2.646.039a.138.138,0,0,1-.156-.156V-.85a.138.138,0,0,1,.156-.156l2.646.039h5.176V-5.459h-2.461l-2.8.039a.138.138,0,0,1-.156-.156v-.908a.138.138,0,0,1,.156-.156l2.8.039h2.461v-4.131h-4.717a15.517,15.517,0,0,1-2.061,3.213q-.156.176-.225.176a.786.786,0,0,1-.3-.2,2.22,2.22,0,0,0-.713-.42,16.723,16.723,0,0,0,3.34-6.094,3.607,3.607,0,0,0,.215-1.143,7.613,7.613,0,0,1,1.221.342q.244.078.244.215a.432.432,0,0,1-.156.283,1.6,1.6,0,0,0-.322.635q-.713,1.836-.723,1.865h4.2v-1.66a17.506,17.506,0,0,0-.156-2.744q.693.029,1.4.107.244.029.244.176a.531.531,0,0,1-.039.166,1.329,1.329,0,0,0-.059.2,9.857,9.857,0,0,0-.127,2.061v1.7h3.7l2.8-.039a.138.138,0,0,1,.156.156v.889a.138.138,0,0,1-.156.156l-2.8-.039h-3.7V-6.6H113.4l2.793-.039q.166,0,.166.156v.908q0,.156-.166.156L113.4-5.459h-2.783V-.967h5.225l2.637-.039a.138.138,0,0,1,.156.156ZM135.879-1.6a.138.138,0,0,1-.156.156l-2.783-.039h-5.918l-2.783.039a.138.138,0,0,1-.156-.156l.039-2V-6.836l-.039-2.012A.138.138,0,0,1,124.238-9l2.783.039h5.918L135.723-9a.138.138,0,0,1,.156.156l-.039,2.012V-3.6ZM134.7-2.383V-3.8h-9.414v1.416Zm0-2.256v-1.3h-9.414v1.3Zm0-2.139V-8.066h-9.414v1.289Zm4.248-2.9a1.889,1.889,0,0,0-.42.742q-.117.342-.273.342A1.09,1.09,0,0,1,138-8.643Q133.2-9.8,131.924-12.783q-1.006,2.705-4.961,3.564a1.847,1.847,0,0,1-.273.039q-.166,0-.371-.342a1.9,1.9,0,0,0-.479-.537,9.019,9.019,0,0,0,3.75-1.367,4.182,4.182,0,0,0,1.65-2.393h-2.295a8.836,8.836,0,0,1-1.426,1.367.825.825,0,0,1-.283.156q-.1,0-.312-.225a1.624,1.624,0,0,0-.605-.381A8.614,8.614,0,0,0,129-15.713a3.643,3.643,0,0,0,.381-.986q.684.166,1,.264.244.088.244.215,0,.107-.176.225a1.257,1.257,0,0,0-.322.439,8.66,8.66,0,0,1-.508.82h6.445a1.5,1.5,0,0,0,.537-.059.688.688,0,0,1,.225-.078,1.287,1.287,0,0,1,.5.283q.459.352.459.537,0,.1-.156.2a1.109,1.109,0,0,0-.381.42,9.049,9.049,0,0,1-1.084,1.4q-.244.244-.342.244a.965.965,0,0,1-.361-.117,2.414,2.414,0,0,0-.674-.225,7.6,7.6,0,0,0,1.455-1.68h-3.857a5.1,5.1,0,0,0,2.871,3.057A12.646,12.646,0,0,0,138.945-9.678ZM127.861-.537q0,.127-.225.176A2.7,2.7,0,0,0,127-.1a16.073,16.073,0,0,1-4.678,1.563,1.486,1.486,0,0,1-.264.039q-.156,0-.322-.322a2.835,2.835,0,0,0-.518-.664,14.892,14.892,0,0,0,4.639-1.26,3.181,3.181,0,0,0,.762-.537q.664.293,1.035.5Q127.861-.664,127.861-.537Zm10.684,1a2.626,2.626,0,0,0-.566.684q-.166.3-.361.3a1.756,1.756,0,0,1-.254-.029,13.974,13.974,0,0,1-5.205-1.992q-.088-.068-.088-.117,0-.068.215-.186l.557-.3a.451.451,0,0,1,.225-.088.269.269,0,0,1,.137.049A13.555,13.555,0,0,0,138.545.459Zm-11.9-12.041a2.432,2.432,0,0,1,.029.273q0,.166-.332.332a29.963,29.963,0,0,1-3.32,1.455,2.152,2.152,0,0,0-.674.322.414.414,0,0,1-.264.137.238.238,0,0,1-.215-.156q-.234-.469-.469-1.084a8.344,8.344,0,0,0,1.465-.342,23.69,23.69,0,0,0,3.74-1.631Q126.6-12.061,126.641-11.582Zm-.723-2.8q.107.078.107.137a.513.513,0,0,1-.127.205l-.381.459q-.156.2-.225.2a.4.4,0,0,1-.137-.068,12.128,12.128,0,0,0-2.92-1.68q-.127-.049-.127-.117t.127-.205l.322-.381q.137-.166.244-.166a.307.307,0,0,1,.117.029A13.432,13.432,0,0,1,125.918-14.385Zm19.668,2.607h-2.168l-2.08.039q-.137,0-.137-.156v-.85q0-.156.137-.156l2.08.039h2.168l2.08-.039a.138.138,0,0,1,.156.156v.85a.138.138,0,0,1-.156.156Zm-3.506-2.842v-.8a.138.138,0,0,1,.156-.156l1.748.039h1.494l1.738-.039q.166,0,.166.156v.8q0,.156-.166.156l-1.738-.039h-1.494l-1.748.039A.138.138,0,0,1,142.08-14.619Zm.156,5.381v-.781q0-.156.166-.156l1.621.039H145.3l1.621-.039a.138.138,0,0,1,.156.156v.781q0,.166-.156.166L145.3-9.111h-1.279l-1.621.039A.147.147,0,0,1,142.236-9.238Zm0,2.676v-.781q0-.156.166-.156l1.621.039H145.3l1.621-.039a.138.138,0,0,1,.156.156v.781q0,.166-.156.166L145.3-6.436h-1.279L142.4-6.4A.147.147,0,0,1,142.236-6.562Zm3.887,6.7H143.2V1.3a.138.138,0,0,1-.156.156h-.8q-.186,0-.186-.156l.039-2.939v-1.2l-.039-1.777q0-.137.176-.137l1.709.039h1.416l1.729-.039q.156,0,.156.137l-.039,1.436v1.221l.039,2.9q0,.156-.166.156h-.8a.138.138,0,0,1-.156-.156Zm0-.977v-2.9H143.2v2.9Zm4.834-6.553H150.3l-1.982.039q-.176,0-.176-.186v-.8a.155.155,0,0,1,.176-.176l1.982.039h.742q.156-2.344.156-5.82h-.1l-2.285.039a.138.138,0,0,1-.156-.156v-.869a.138.138,0,0,1,.156-.156l2.285.039h3.018l2.285-.039q.176,0,.176.186-.039,1.016-.039,2.354a85.079,85.079,0,0,0,.381,10.107,6.557,6.557,0,0,0,.391,1.7q.205.537.391.537.332,0,.576-2.822a2.952,2.952,0,0,0,.781.566q.254.146.254.3,0,.059-.02.234a7.98,7.98,0,0,1-.625,2.617,1.1,1.1,0,0,1-1,.645q-1.25,0-1.8-2.783-.537-2.6-.537-12.5h-2.92q0,3.535-.186,5.82h.186l1.982-.039a.155.155,0,0,1,.176.176v.8q0,.186-.176.186l-1.982-.039h-.283q-.127,1.113-.293,1.973a14.652,14.652,0,0,1-1.113,3.564,11.984,11.984,0,0,1-1.973,2.861q-.166.2-.234.2-.088,0-.283-.2A2.91,2.91,0,0,0,147.48.42a10.826,10.826,0,0,0,2.295-3.1,12.34,12.34,0,0,0,.947-2.959A17.6,17.6,0,0,0,150.957-7.393ZM176.084,1.24a.138.138,0,0,1-.156.156h-.889a.138.138,0,0,1-.156-.156V.42h-8.74v.84q0,.137-.156.137H165.1q-.156,0-.156-.137l.039-2.354V-6.338l-.039-2.383a.138.138,0,0,1,.156-.156l2.783.039h4.16l2.607-.039a.138.138,0,0,1,.156.156L174.766-7.4v.889l.039,1.338q0,.137-.156.137l-2.607-.039h-5.9v1.523h6.924l2.861-.039a.138.138,0,0,1,.156.156l-.039,1.563v1.6Zm-1.2-1.777v-2.08h-8.74v2.08Zm-1.279-5.5V-7.881h-7.461v1.846Zm4.482-1.8q0,.166-.156.166h-.908q-.156,0-.156-.166v-2.256H163.2v2.256q0,.166-.156.166h-.908q-.156,0-.156-.166l.039-1.777v-.518l-.039-.84a.138.138,0,0,1,.156-.156l2.783.039h4.326a6.217,6.217,0,0,0-.146-1.5,6.4,6.4,0,0,1,1.26.107q.244.029.244.156a.965.965,0,0,1-.117.361,2.571,2.571,0,0,0-.088.879h4.727l2.8-.039a.138.138,0,0,1,.156.156l-.039.762v.6Zm-8.145-6.27a.138.138,0,0,1-.156.156l-2.158-.039h-.7a13.068,13.068,0,0,1,.762,1.621.411.411,0,0,1,.01.068q0,.088-.2.156l-.615.2a.683.683,0,0,1-.2.049q-.088,0-.127-.146a11.576,11.576,0,0,0-.8-1.943h-1.816a11.678,11.678,0,0,1-1.66,1.924.7.7,0,0,1-.283.176.608.608,0,0,1-.293-.176,1.917,1.917,0,0,0-.645-.4,9.964,9.964,0,0,0,2.7-3.437,2.376,2.376,0,0,0,.244-.82,7.64,7.64,0,0,1,1.1.244q.2.059.2.2a.37.37,0,0,1-.117.244,1.765,1.765,0,0,0-.322.5q-.059.127-.166.322t-.156.273h3.086l2.158-.039a.138.138,0,0,1,.156.156Zm8.76,0a.138.138,0,0,1-.156.156l-2.48-.039h-1.377a14.015,14.015,0,0,1,.83,1.621.175.175,0,0,1,.029.088q0,.088-.205.156l-.576.156a.8.8,0,0,1-.176.029q-.088,0-.146-.127a11.5,11.5,0,0,0-.879-1.924h-1.9a11.859,11.859,0,0,1-.752,1.172q-.2.225-.264.225a.824.824,0,0,1-.322-.176,2.144,2.144,0,0,0-.674-.283,10.459,10.459,0,0,0,1.68-2.852,4.792,4.792,0,0,0,.215-.859,6.623,6.623,0,0,1,1.074.225q.244.068.244.215a.341.341,0,0,1-.156.244,1.741,1.741,0,0,0-.3.537q-.2.479-.254.6h3.916l2.48-.039a.138.138,0,0,1,.156.156ZM199.248.244q0,.156-.137.156L196.27.361h-7.324L186.1.4a.138.138,0,0,1-.156-.156V-.645A.138.138,0,0,1,186.1-.8l2.842.039h3.418v-2.6H190.83L188.2-3.32q-.156,0-.156-.166v-.859A.138.138,0,0,1,188.2-4.5l2.627.039h1.533V-6.738H190.83L188.2-6.7q-.176,0-.176-.137l.039-2.207v-4.043l-.039-2.148q0-.166.176-.166l2.627.039h4.434l2.627-.039q.156,0,.156.166l-.039,2.148v4.043l.039,2.207q0,.137-.156.137l-2.627-.039h-1.738v2.275h1.865l2.617-.039a.138.138,0,0,1,.156.156v.859q0,.166-.156.166l-2.617-.039h-1.865v2.6h2.744L199.111-.8q.137,0,.137.156Zm-2.4-8.027v-2.822h-3.32v2.822Zm0-3.818v-2.725h-3.32V-11.6Zm-4.482,3.818v-2.822h-3.154v2.822Zm0-3.818v-2.725h-3.154V-11.6ZM187.48-5.381a4.314,4.314,0,0,0-.059.762q.01.146.01.205,0,.225-.322.42a37.177,37.177,0,0,1-4.473,2.08,3.4,3.4,0,0,0-.713.322.516.516,0,0,1-.264.117q-.127,0-.205-.176A8.041,8.041,0,0,1,181.1-2.8a9.146,9.146,0,0,0,1.836-.5l.859-.322v-5h-.322l-1.777.049q-.156,0-.156-.166v-.84a.138.138,0,0,1,.156-.156l1.777.039h.322v-4.277h-.459l-1.943.039q-.137,0-.137-.166v-.859q0-.156.137-.156l1.943.039h2.041l1.924-.039a.138.138,0,0,1,.156.156v.859q0,.166-.156.166l-1.924-.039h-.4V-9.7h.225l1.8-.039q.137,0,.137.156v.84q0,.166-.137.166l-1.8-.049h-.225v4.5A24.984,24.984,0,0,0,187.48-5.381Zm31.182.059a.315.315,0,0,1,.049.137q0,.068-.156.166l-.635.4a.547.547,0,0,1-.205.078q-.068,0-.156-.137-.547-.859-.977-1.445-3.486.332-6.064.508v3.994l.039,2.842a.138.138,0,0,1-.156.156h-1.025a.138.138,0,0,1-.156-.156l.039-2.842V-5.557q-2.6.156-5.82.254a3.029,3.029,0,0,0-.9.127.815.815,0,0,1-.3.1q-.117,0-.176-.225-.166-.557-.3-1.26.6.049,1.318.049h.742q1.65,0,3.5-.068l1.162-1a40.566,40.566,0,0,0-4.17-3.506q-.088-.049-.088-.088t.137-.186l.459-.42q.117-.117.186-.117a.241.241,0,0,1,.137.059q.9.635,1.2.879a22.837,22.837,0,0,0,2.4-2.646q.186-.264.342-.537-2.93.3-5.781.42a.758.758,0,0,1-.381-.059.984.984,0,0,1-.166-.3,2.752,2.752,0,0,0-.439-.8,68.718,68.718,0,0,0,7.246-.439q2.529-.283,4.58-.713a7.464,7.464,0,0,0,1.475-.469,8.083,8.083,0,0,1,.947.781.517.517,0,0,1,.176.322q0,.205-.283.205a5.294,5.294,0,0,0-.84.078q-3.711.664-5.732.9.088.049.234.137t.2.117q.225.156.225.264,0,.166-.244.283a1.375,1.375,0,0,0-.459.361,27.2,27.2,0,0,1-2.6,2.773q.752.625,2.119,1.885a32.955,32.955,0,0,0,2.939-3.242,5.154,5.154,0,0,0,.664-1.055,6.642,6.642,0,0,1,1.084.557q.215.146.215.254,0,.176-.264.3a1.892,1.892,0,0,0-.5.4A40.591,40.591,0,0,1,209.1-6.641q2.559-.107,6.7-.42A18.133,18.133,0,0,0,214.3-8.6q-.068-.059-.068-.088,0-.049.205-.205l.381-.3a.452.452,0,0,1,.215-.107.222.222,0,0,1,.127.068A20.627,20.627,0,0,1,218.662-5.322ZM206.777-3.379q0,.107-.225.215a3.212,3.212,0,0,0-.576.566A17.856,17.856,0,0,1,202.7.3a.825.825,0,0,1-.283.156q-.078,0-.293-.283a2.778,2.778,0,0,0-.684-.615A13.358,13.358,0,0,0,204.814-3.2a4.345,4.345,0,0,0,.7-1.016,6.74,6.74,0,0,1,1.035.557Q206.777-3.516,206.777-3.379Zm11.68,2.764a2.759,2.759,0,0,0-.742.635q-.2.264-.254.264a.749.749,0,0,1-.3-.156,23.209,23.209,0,0,1-4.1-3.867.147.147,0,0,1-.039-.088q0-.059.215-.2l.527-.332a.352.352,0,0,1,.166-.1q.059,0,.127.088A18.487,18.487,0,0,0,218.457-.615ZM228.3-6.3a.539.539,0,0,1,.02.107q0,.078-.176.156l-.439.156a.886.886,0,0,1-.225.068q-.068,0-.117-.146L227-7.061l-1.6.156v5.361l.039,2.92q0,.146-.156.146h-.908q-.156,0-.156-.146l.039-2.92V-6.777q-1.016.088-1.963.117a1.711,1.711,0,0,0-.752.166.393.393,0,0,1-.205.059q-.137,0-.2-.244-.1-.41-.186-1.084A11.39,11.39,0,0,0,222.1-7.7h.234q.82-1.055,1.582-2.187a27.313,27.313,0,0,0-2.881-3.018q-.078-.068-.078-.117a.64.64,0,0,1,.117-.225l.322-.42q.107-.156.186-.156a.249.249,0,0,1,.137.078L222.5-13a27.678,27.678,0,0,0,1.455-2.5,4.166,4.166,0,0,0,.381-1.084,11.375,11.375,0,0,1,1.045.479q.215.117.215.264,0,.117-.176.244a2.157,2.157,0,0,0-.42.576q-.684,1.191-1.777,2.744.674.674,1.338,1.455.6-.937,1.563-2.578a3.839,3.839,0,0,0,.439-1.123,6.743,6.743,0,0,1,1.094.518.343.343,0,0,1,.186.264q0,.117-.176.244a2.817,2.817,0,0,0-.664.82q-1.689,2.705-3.408,4.932,1.25-.049,3.047-.215-.264-.664-.6-1.318a.24.24,0,0,1-.039-.107q0-.059.176-.137l.459-.176a.636.636,0,0,1,.176-.059q.059,0,.107.1A18.872,18.872,0,0,1,228.3-6.3Zm10.518-6.66q0,.137-.166.137l-2.676-.039H232.92a27.988,27.988,0,0,1-1.885,3.7q3.174-.264,4.922-.518-.635-.791-1.338-1.523a.289.289,0,0,1-.078-.146q0-.078.176-.176l.42-.234a.573.573,0,0,1,.176-.068.191.191,0,0,1,.127.068A19.623,19.623,0,0,1,238.4-8.164a.333.333,0,0,1,.059.146q0,.068-.176.176l-.527.3a.668.668,0,0,1-.254.107q-.059,0-.127-.107-.479-.84-.732-1.221-3.311.479-6.846.791a2.13,2.13,0,0,0-.879.205.473.473,0,0,1-.215.1q-.117,0-.186-.2-.137-.449-.3-1.2.352.02.7.02.312,0,.84-.02a21.651,21.651,0,0,0,1.865-3.8h-.645l-2.656.039q-.166,0-.166-.137v-.82q0-.156.166-.156l2.656.039H232.5v-.84a8.8,8.8,0,0,0-.146-1.8,11.922,11.922,0,0,1,1.318.117q.244.039.244.156a1.293,1.293,0,0,1-.117.381,3.856,3.856,0,0,0-.1,1.143v.84h2.275l2.676-.039q.166,0,.166.156Zm.225,11.318A3.449,3.449,0,0,1,238.4.527a3.361,3.361,0,0,1-2.275.537,4.451,4.451,0,0,1-1.641-.205A1.217,1.217,0,0,1,233.9-.361V-5.02a14.228,14.228,0,0,0-.117-2.217,11.328,11.328,0,0,1,1.24.117q.283.029.283.176a1.9,1.9,0,0,1-.127.381,7.261,7.261,0,0,0-.1,1.641V-.7q0,.43.205.547a2.106,2.106,0,0,0,.957.137q1.143,0,1.377-.361a4.556,4.556,0,0,0,.342-2.139,2.292,2.292,0,0,0,.723.381.686.686,0,0,1,.313.176A.694.694,0,0,1,239.043-1.641ZM231.953-6.8a.6.6,0,0,1-.049.186,1.445,1.445,0,0,0-.068.2,3.807,3.807,0,0,0-.078.977,8.224,8.224,0,0,1-.85,3.857,6.435,6.435,0,0,1-3.057,2.764,1.016,1.016,0,0,1-.293.1q-.117,0-.322-.264a2.514,2.514,0,0,0-.684-.537,6.307,6.307,0,0,0,3.359-2.656,7.346,7.346,0,0,0,.664-3.418,10.945,10.945,0,0,0-.1-1.5q.5.029,1.133.1Q231.953-6.963,231.953-6.8Zm-8.721,1.914a.666.666,0,0,1-.078.244,1.836,1.836,0,0,0-.117.576,17.042,17.042,0,0,1-.9,3.818q-.117.3-.225.3a.6.6,0,0,1-.234-.117,2.486,2.486,0,0,0-.723-.322,13.764,13.764,0,0,0,1-3.857q.029-.312.029-.576,0-.205-.01-.43a7.464,7.464,0,0,1,1,.186Q223.232-5,223.232-4.883Zm4.824,2.646a.287.287,0,0,1,.01.068q0,.127-.225.186l-.449.146a1.168,1.168,0,0,1-.225.049q-.078,0-.107-.156a21.782,21.782,0,0,0-.781-3.115.31.31,0,0,1-.02-.088q0-.078.2-.137l.479-.156a.444.444,0,0,1,.146-.039q.068,0,.117.137A16.844,16.844,0,0,1,228.057-2.236Z" transform="translate(1204 270)" fill="#ed831b"/>
    </g>
    <g id="logo" transform="translate(-12647 -318.571)">
      <path id="Path_99" data-name="Path 99" d="M-19.274,9.828a21.065,21.065,0,0,1-8.914,1.612,15.266,15.266,0,0,1-11.291-4.1A14.771,14.771,0,0,1-43.589-3.6a15.785,15.785,0,0,1,4.62-11.8,16.41,16.41,0,0,1,11.991-4.527,23,23,0,0,1,7.7,1.122v6.579a13.934,13.934,0,0,0-7.131-1.819,9.606,9.606,0,0,0-7.082,2.68A9.809,9.809,0,0,0-36.2-4.1a9.616,9.616,0,0,0,2.544,7.012A9.123,9.123,0,0,0-26.8,5.527,14.924,14.924,0,0,0-19.281,3.58ZM20.34-13.859H11.449v24.77H4.4v-24.77H-4.445v-5.57H20.34ZM35.386,9.747V2.978A13.462,13.462,0,0,0,39.5,5.3a13.539,13.539,0,0,0,4.478.774,10.2,10.2,0,0,0,2.315-.232,5.511,5.511,0,0,0,1.654-.654,2.853,2.853,0,0,0,.989-.973A2.376,2.376,0,0,0,49.259,3a2.582,2.582,0,0,0-.522-1.586A5.559,5.559,0,0,0,47.306.121a15.013,15.013,0,0,0-2.142-1.142q-1.239-.549-2.675-1.122A13.669,13.669,0,0,1,37.05-5.757a7.754,7.754,0,0,1-1.794-5.161,8.039,8.039,0,0,1,.978-4.072,8.174,8.174,0,0,1,2.661-2.8,12.12,12.12,0,0,1,3.906-1.62,20.588,20.588,0,0,1,4.7-.518,29.021,29.021,0,0,1,4.316.286,17.356,17.356,0,0,1,3.468.877v6.325a10.573,10.573,0,0,0-1.706-.928,13.766,13.766,0,0,0-1.908-.667,14.866,14.866,0,0,0-1.947-.391,14.15,14.15,0,0,0-1.837-.127,9.838,9.838,0,0,0-2.174.223,5.672,5.672,0,0,0-1.652.619,3.157,3.157,0,0,0-1.043.962,2.235,2.235,0,0,0-.369,1.258,2.357,2.357,0,0,0,.413,1.365,4.677,4.677,0,0,0,1.174,1.142A12.544,12.544,0,0,0,46.08-7.931q1.088.518,2.457,1.068A27.7,27.7,0,0,1,51.9-5.245a11.9,11.9,0,0,1,2.554,1.935A7.52,7.52,0,0,1,56.086-.84a8.5,8.5,0,0,1,.565,3.226,8.448,8.448,0,0,1-.989,4.262,7.905,7.905,0,0,1-2.684,2.785,11.833,11.833,0,0,1-3.946,1.533,23.421,23.421,0,0,1-4.75.464,27.134,27.134,0,0,1-4.882-.415,15.026,15.026,0,0,1-4.012-1.269ZM81.089.464V10.911H74.068V-19.421h11q11.784,0,11.784,9.667a9.175,9.175,0,0,1-3.381,7.392A13.644,13.644,0,0,1,84.438.461Zm0-14.638v9.458H83.85q5.609,0,5.609-4.781,0-4.674-5.609-4.674ZM-37.038,42.118A7.364,7.364,0,0,1-42.495,40a7.5,7.5,0,0,1-2.1-5.525,8.026,8.026,0,0,1,2.142-5.817,7.522,7.522,0,0,1,5.674-2.222A7.178,7.178,0,0,1-31.4,28.559a7.711,7.711,0,0,1,2.067,5.605,7.9,7.9,0,0,1-2.136,5.765,7.438,7.438,0,0,1-5.572,2.189Zm.159-12.744a3.574,3.574,0,0,0-2.936,1.349A5.515,5.515,0,0,0-40.9,34.293a5.413,5.413,0,0,0,1.088,3.558,3.521,3.521,0,0,0,2.848,1.312,3.559,3.559,0,0,0,2.882-1.275,5.353,5.353,0,0,0,1.066-3.538,5.8,5.8,0,0,0-1.032-3.67,3.4,3.4,0,0,0-2.834-1.306Zm9.426,11.9V37.888A6.726,6.726,0,0,0-25.4,39.047a6.769,6.769,0,0,0,2.239.387A5.1,5.1,0,0,0-22,39.318,2.755,2.755,0,0,0-21.175,39a1.426,1.426,0,0,0,.495-.486,1.189,1.189,0,0,0,.159-.608,1.291,1.291,0,0,0-.261-.794,2.778,2.778,0,0,0-.712-.645,7.508,7.508,0,0,0-1.07-.571q-.62-.275-1.337-.56a6.833,6.833,0,0,1-2.724-1.813,3.88,3.88,0,0,1-.9-2.581,4.02,4.02,0,0,1,.49-2.036A4.088,4.088,0,0,1-25.7,27.5a6.061,6.061,0,0,1,1.951-.809,10.286,10.286,0,0,1,2.349-.258,14.511,14.511,0,0,1,2.158.142,8.677,8.677,0,0,1,1.733.439v3.162a5.291,5.291,0,0,0-.854-.464,6.884,6.884,0,0,0-.954-.333,7.434,7.434,0,0,0-.973-.195,7.074,7.074,0,0,0-.919-.063,4.918,4.918,0,0,0-1.088.111,2.835,2.835,0,0,0-.827.309,1.573,1.573,0,0,0-.522.481,1.118,1.118,0,0,0-.184.63,1.179,1.179,0,0,0,.207.682,2.338,2.338,0,0,0,.587.571,6.27,6.27,0,0,0,.924.529q.544.258,1.228.534a13.85,13.85,0,0,1,1.679.809,5.952,5.952,0,0,1,1.272.967,3.76,3.76,0,0,1,.816,1.238,4.248,4.248,0,0,1,.283,1.612,4.223,4.223,0,0,1-.495,2.13,3.953,3.953,0,0,1-1.342,1.392,5.916,5.916,0,0,1-1.974.774,11.709,11.709,0,0,1-2.376.232,13.565,13.565,0,0,1-2.441-.212,7.512,7.512,0,0,1-2-.641Zm26.682.582H-4.294V35.678h-6.458v6.176h-3.511V26.692h3.511v6.049h6.458V26.692H-.771ZM6.452,26.328l-2.1,4.7H2.241l1.239-4.7Zm8.23,14.944V37.888a6.795,6.795,0,0,0,4.294,1.546,5.1,5.1,0,0,0,1.158-.116A2.755,2.755,0,0,0,20.961,39a1.426,1.426,0,0,0,.495-.486,1.189,1.189,0,0,0,.159-.608,1.291,1.291,0,0,0-.261-.794,2.778,2.778,0,0,0-.712-.645,7.507,7.507,0,0,0-1.07-.571q-.62-.275-1.337-.56a6.834,6.834,0,0,1-2.723-1.809,3.88,3.88,0,0,1-.9-2.581,4.02,4.02,0,0,1,.49-2.036,4.088,4.088,0,0,1,1.331-1.4,6.06,6.06,0,0,1,1.945-.814,10.286,10.286,0,0,1,2.349-.258,14.511,14.511,0,0,1,2.158.142,8.677,8.677,0,0,1,1.733.439v3.162a5.291,5.291,0,0,0-.854-.464,6.884,6.884,0,0,0-.954-.333,7.434,7.434,0,0,0-.973-.195,7.075,7.075,0,0,0-.914-.065,4.918,4.918,0,0,0-1.088.111,2.835,2.835,0,0,0-.827.309,1.573,1.573,0,0,0-.522.481,1.117,1.117,0,0,0-.184.63,1.179,1.179,0,0,0,.207.682,2.339,2.339,0,0,0,.587.571,6.27,6.27,0,0,0,.924.529q.544.258,1.228.534a13.848,13.848,0,0,1,1.679.809,5.952,5.952,0,0,1,1.272.967,3.76,3.76,0,0,1,.816,1.238,4.791,4.791,0,0,1-.212,3.743,3.953,3.953,0,0,1-1.342,1.392,5.916,5.916,0,0,1-1.974.774,11.71,11.71,0,0,1-2.376.232,13.566,13.566,0,0,1-2.441-.212,7.512,7.512,0,0,1-1.994-.639Zm24.944-14.58L34.55,36.46v5.393H31.038v-5.33l-4.946-9.832H30.1l2.511,5.658q.065.155.359,1.238h.037a5.393,5.393,0,0,1,.337-1.194l2.56-5.7Zm.827,14.585V37.888a6.795,6.795,0,0,0,4.294,1.546,5.1,5.1,0,0,0,1.158-.116A2.755,2.755,0,0,0,46.732,39a1.426,1.426,0,0,0,.495-.486,1.189,1.189,0,0,0,.159-.608,1.291,1.291,0,0,0-.261-.794,2.778,2.778,0,0,0-.712-.645,7.507,7.507,0,0,0-1.07-.571q-.62-.275-1.337-.56a6.833,6.833,0,0,1-2.724-1.813,3.88,3.88,0,0,1-.9-2.581,4.02,4.02,0,0,1,.49-2.036A4.088,4.088,0,0,1,42.2,27.5a6.061,6.061,0,0,1,1.951-.809,10.286,10.286,0,0,1,2.349-.258,14.511,14.511,0,0,1,2.158.142,8.677,8.677,0,0,1,1.733.439v3.162a5.291,5.291,0,0,0-.854-.464,6.884,6.884,0,0,0-.954-.333,7.432,7.432,0,0,0-.973-.195,7.075,7.075,0,0,0-.919-.063,4.918,4.918,0,0,0-1.088.111,2.835,2.835,0,0,0-.827.309,1.573,1.573,0,0,0-.522.481,1.117,1.117,0,0,0-.184.63,1.179,1.179,0,0,0,.207.682,2.339,2.339,0,0,0,.587.571,6.271,6.271,0,0,0,.924.529q.544.258,1.228.534a13.849,13.849,0,0,1,1.679.809,5.952,5.952,0,0,1,1.272.967,3.76,3.76,0,0,1,.816,1.238,4.8,4.8,0,0,1-.212,3.744,3.952,3.952,0,0,1-1.342,1.392,5.916,5.916,0,0,1-1.974.774,11.709,11.709,0,0,1-2.376.232,13.566,13.566,0,0,1-2.441-.212,7.511,7.511,0,0,1-1.989-.642ZM64.6,29.477H60.146V41.854H56.63V29.477H52.206V26.692H64.6Zm11.45,12.377H66.7V26.692h8.99v2.785H70.208v3.374h5.1v2.771h-5.1v3.469h5.838Zm20.256,0H92.841V32.78q0-1.47.13-3.249h-.086a15.611,15.611,0,0,1-.49,2.011L88.743,41.854H85.88L82.151,31.643a19.4,19.4,0,0,1-.49-2.115h-.1q.142,2.242.142,3.934v8.392H78.546V26.692h5.142l3.181,8.991a12.376,12.376,0,0,1,.555,2.166h.065a21.364,21.364,0,0,1,.62-2.189l3.181-8.974h5.016Z" transform="translate(206.141 45.899)" fill="#ed831b"/>
      <g id="Group_85" data-name="Group 85" transform="translate(68 14.571)">
        <g id="Group_85-2" data-name="Group 85" transform="translate(0 0)" clip-path="url(#clip-path)">
          <path id="Path_97" data-name="Path 97" d="M274.4,317.909c-.526-.773-1.018-1.494-1.506-2.217q-4.186-6.188-8.375-12.372c-.175-.259-.178-.387.1-.585q6.891-4.976,13.766-9.97c.1-.073.207-.142.342-.233l10.1,14.928L274.4,317.909" transform="translate(-228.602 -254.231)" fill="#ed831b"/>
          <path id="Path_98" data-name="Path 98" d="M84.335,41.4a3.731,3.731,0,0,0-.078.493,39.506,39.506,0,0,1-8.834,23.919A39.461,39.461,0,0,1,64.832,75.2c-.087.053-.178.1-.3.166L52.923,58.3c.433-.32.854-.635,1.272-.944,1.942-1.408,3.891-2.806,5.819-4.231a4.874,4.874,0,0,0,.86-.923,18.787,18.787,0,0,0,4.06-9.213,19.885,19.885,0,0,0-6.256-17.629,24.054,24.054,0,0,0-12.322-6.378,24.059,24.059,0,0,0-6.735-.474,24.729,24.729,0,0,0-19.71,11.267,21.223,21.223,0,0,0-3.181,8.4,19.645,19.645,0,0,0-.194,5.16A23.061,23.061,0,0,0,22.1,56.524a27.234,27.234,0,0,0,15.952,9.053c.926.178,1.869.274,2.8.41a.559.559,0,0,1,.235.085,17.859,17.859,0,0,1-4.734.021c-1.559-.195-3.1-.5-4.652-.761l-.046.137a5.733,5.733,0,0,0,.5.3,22.185,22.185,0,0,0,5.248,1.746,45.438,45.438,0,0,0,6.918.815,1.1,1.1,0,0,1,.477.134,2.055,2.055,0,0,1-.423.152,17.538,17.538,0,0,1-1.908.195c-2.168.023-4.335.009-6.5,0-.262,0-.525-.027-.8-.041l-.041.108a2.282,2.282,0,0,0,.46.225c1.188.286,2.368.621,3.572.824a39.648,39.648,0,0,0,7.424.333h.553l.016.088c-.525.116-1.046.251-1.576.343a31.8,31.8,0,0,1-6.741.469,37.645,37.645,0,0,1-8.522-1.357c-.752-.207-1.506-.407-2.261-.609a2.716,2.716,0,0,0-.364-.046l-.054.093a2.671,2.671,0,0,0,.463.356c1.151.547,2.288,1.13,3.473,1.6a32.051,32.051,0,0,0,7.67,1.949,36.9,36.9,0,0,0,7.042.228c1.083-.064,2.169-.108,3.273-.081-.318.1-.622.207-.938.289a24.659,24.659,0,0,1-5,.81c-1.659.082-3.325.174-4.982.113a32.6,32.6,0,0,1-8.457-1.484A34.809,34.809,0,0,1,8.5,54.953a32.847,32.847,0,0,1-3.068-9.074,30.5,30.5,0,0,1-.377-3.3c-.089-1.319-.145-2.643-.138-3.959a33.4,33.4,0,0,1,1.007-7.68c.07-.294.122-.591.178-.888a1.385,1.385,0,0,0-.051-.2c-.092.184-.159.3-.2.413a27.094,27.094,0,0,0-1.7,6.319,38.038,38.038,0,0,0-.407,5.9A34.036,34.036,0,0,0,6.688,56.029a37.2,37.2,0,0,0,8.559,12.36,40.612,40.612,0,0,0,19.166,10.16,40.218,40.218,0,0,0,12.958.842c1.3-.131,2.6-.283,3.89-.493s2.557-.505,3.858-.708c-.816.286-1.622.609-2.449.854a40.488,40.488,0,0,1-7.156,1.448,37.379,37.379,0,0,1-6.52.181A41.393,41.393,0,0,1,11.14,68.142,39.733,39.733,0,0,1,3.665,57.416,36.675,36.675,0,0,1,.538,47.351,39.867,39.867,0,0,1,8.711,16.019,41.659,41.659,0,0,1,25.166,3.477,41.122,41.122,0,0,1,35.355.585c1.784-.266,3.607-.343,5.4-.509.183-.017.366-.05.547-.076h1.547c.137.021.274.053.412.061.91.055,1.829.052,2.731.169,1.851.241,3.713.448,5.53.836a42.368,42.368,0,0,1,16.953,7.9A39.628,39.628,0,0,1,79,21.1a39.289,39.289,0,0,1,5.259,18.178,4.106,4.106,0,0,0,.076.493Z" transform="translate(0.001 0.393)" fill="#009fb8"/>
        </g>
      </g>
    </g>
  </g>
</svg>
